<svg width="250" height="112" viewBox="0 0 250 112" fill="none" xmlns="http://www.w3.org/2000/svg">
<path d="M154.402 105.401L211.529 78.8496L249.345 82.8724L229.23 111.435L154.402 105.401Z" fill="black" fill-opacity="0.1"/>
<path fill-rule="evenodd" clip-rule="evenodd" d="M214.211 0.216926V0H214.209H58.1062H58.1044L20.9865 19.0795H20.8138L20.5958 19.4268H19.9457V20.4617L0 52.2084H19.9457V102.682L182.815 108.054V108.059L182.82 108.054L182.988 108.059V107.899L214.209 79.0928V78.3993H214.211V42.1996L228.874 30.7089L228.953 30.8742L242.829 19.7734L214.557 0L214.211 0.216926Z" fill="#58B3AE"/>
<path fill-rule="evenodd" clip-rule="evenodd" d="M35.9663 60.4351C35.1413 60.4351 34.4727 61.1037 34.4727 61.9287V82.6916C34.4727 83.4917 35.103 84.1495 35.902 84.1841L57.1645 85.0963C58.0136 85.1327 58.7224 84.4541 58.7224 83.6042V61.9287C58.7224 61.1037 58.0534 60.4351 57.2288 60.4351H35.9663ZM85.7011 70.1421L164.737 72.4277C165.297 72.444 165.763 71.9994 165.772 71.4393C165.782 70.888 165.346 70.4315 164.795 70.4155L85.7594 68.1296C85.1993 68.1137 84.7335 68.5579 84.7238 69.1184C84.7142 69.6697 85.1499 70.1262 85.7011 70.1421ZM85.7175 75.6125L141.649 77.2547C142.273 77.2729 142.791 76.7733 142.802 76.1496C142.813 75.5363 142.328 75.0237 141.715 75.0055L85.7836 73.3637C85.1599 73.3452 84.6414 73.8448 84.6306 74.4684C84.6198 75.0817 85.1042 75.5943 85.7175 75.6125ZM127.613 81.8993L85.57 80.7147C84.9894 80.6984 84.5299 80.2177 84.54 79.6368C84.5504 79.0451 85.0429 78.5763 85.6346 78.5956L127.671 79.9618C127.897 79.9692 128.114 80.0554 128.283 80.2058C128.96 80.8065 128.517 81.9249 127.613 81.8993Z" fill="#4E3FCE"/>
<path fill-rule="evenodd" clip-rule="evenodd" d="M182.989 19.7734L213.169 43.0153L228.874 30.7092L228.953 30.8742L242.829 19.7734L214.557 0L182.989 19.7734ZM0 52.2084L20.8138 19.0795H35.9039H182.989L168.94 52.2084H47.6986H0Z" fill="white" fill-opacity="0.21"/>
</svg>
