<svg width="90" height="119" viewBox="0 0 90 119" fill="none" xmlns="http://www.w3.org/2000/svg">
<path d="M12.7437 26.9455C12.9655 27.1917 13.2364 27.3885 13.5391 27.5232C13.8418 27.6579 14.1693 27.7275 14.5006 27.7275C14.8319 27.7275 15.1595 27.6579 15.4622 27.5232C15.7648 27.3885 16.0358 27.1917 16.2576 26.9455L17.4006 25.6913C17.7282 25.3287 18.16 25.0764 18.6367 24.969C19.1134 24.8616 19.6117 24.9044 20.0631 25.0914C20.5146 25.2785 20.8971 25.6007 21.1581 26.0138C21.4191 26.4269 21.5459 26.9106 21.521 27.3987L21.4353 29.0903C21.4187 29.4203 21.4714 29.7501 21.59 30.0585C21.7086 30.3669 21.8905 30.6471 22.124 30.8809C22.3575 31.1147 22.6373 31.297 22.9456 31.4161C23.2538 31.5352 23.5835 31.5884 23.9136 31.5722L25.6052 31.4864C26.0929 31.4624 26.5761 31.5898 26.9886 31.8511C27.4011 32.1124 27.7227 32.4949 27.9093 32.9462C28.0959 33.3974 28.1383 33.8954 28.0309 34.3717C27.9234 34.848 27.6712 35.2795 27.309 35.6069L26.0499 36.7427C25.8041 36.9647 25.6075 37.2359 25.473 37.5386C25.3385 37.8414 25.269 38.169 25.269 38.5002C25.269 38.8315 25.3385 39.1591 25.473 39.4618C25.6075 39.7645 25.8041 40.0357 26.0499 40.2577L27.309 41.3936C27.6715 41.7212 27.9238 42.153 28.0312 42.6297C28.1386 43.1064 28.0959 43.6046 27.9088 44.0561C27.7217 44.5075 27.3996 44.89 26.9865 45.151C26.5734 45.4121 26.0896 45.5388 25.6016 45.514L23.9099 45.4282C23.5792 45.4112 23.2486 45.4638 22.9394 45.5826C22.6303 45.7015 22.3496 45.8839 22.1154 46.118C21.8813 46.3522 21.6989 46.6329 21.58 46.9421C21.4612 47.2512 21.4086 47.5818 21.4256 47.9125L21.5114 49.6042C21.533 50.0898 21.4046 50.5702 21.1437 50.9803C20.8828 51.3904 20.5019 51.7102 20.0529 51.8963C19.6039 52.0824 19.1085 52.1258 18.634 52.0205C18.1595 51.9152 17.7288 51.6665 17.4006 51.3079L16.2636 50.0501C16.0417 49.8043 15.7706 49.6078 15.468 49.4733C15.1653 49.3388 14.8378 49.2693 14.5067 49.2693C14.1755 49.2693 13.848 49.3388 13.5454 49.4733C13.2427 49.6078 12.9717 49.8043 12.7498 50.0501L11.6079 51.3079C11.2802 51.6681 10.8494 51.9185 10.3742 52.0249C9.89906 52.1313 9.40263 52.0886 8.95263 51.9026C8.50262 51.7165 8.12093 51.3963 7.8596 50.9854C7.59827 50.5745 7.47 50.093 7.4923 49.6066L7.5793 47.9149C7.59631 47.5842 7.5437 47.2536 7.42487 46.9445C7.30604 46.6354 7.12364 46.3546 6.88946 46.1205C6.65529 45.8863 6.37456 45.7039 6.06544 45.585C5.75632 45.4662 5.4257 45.4136 5.09497 45.4306L3.4033 45.5164C2.91548 45.5419 2.43173 45.4157 2.01848 45.1552C1.60522 44.8948 1.28272 44.5128 1.09524 44.0617C0.907767 43.6106 0.864511 43.1126 0.971414 42.6359C1.07832 42.1593 1.33014 41.7274 1.6923 41.3996L2.95018 40.2638C3.19601 40.0417 3.39252 39.7706 3.52702 39.4678C3.66152 39.1651 3.73102 38.8375 3.73102 38.5063C3.73102 38.175 3.66152 37.8474 3.52702 37.5447C3.39252 37.2419 3.19601 36.9708 2.95018 36.7487L1.6923 35.6069C1.33131 35.2794 1.08026 34.8485 0.973465 34.3729C0.86667 33.8974 0.909344 33.4005 1.09565 32.9501C1.28196 32.4997 1.60281 32.1179 2.01435 31.8568C2.42588 31.5957 2.90802 31.468 3.39484 31.4913L5.08651 31.5771C5.41787 31.5945 5.74919 31.542 6.05895 31.4231C6.36871 31.3041 6.64998 31.1213 6.8845 30.8866C7.11901 30.6518 7.30153 30.3704 7.42019 30.0605C7.53885 29.7506 7.591 29.4192 7.57326 29.0879L7.4923 27.395C7.46947 26.9084 7.59735 26.4266 7.85848 26.0153C8.11961 25.604 8.50128 25.2833 8.95141 25.097C9.40154 24.9106 9.8982 24.8677 10.3736 24.9741C10.849 25.0804 11.2801 25.3309 11.6079 25.6913L12.7437 26.9455Z" stroke="#9013FE" stroke-width="1.5" stroke-linecap="round" stroke-linejoin="round"/>
<path d="M14.5 43.9385C17.503 43.9385 19.9375 41.504 19.9375 38.501C19.9375 35.4979 17.503 33.0635 14.5 33.0635C11.497 33.0635 9.0625 35.4979 9.0625 38.501C9.0625 41.504 11.497 43.9385 14.5 43.9385Z" stroke="#FC175B" stroke-width="1.5" stroke-linecap="round" stroke-linejoin="round"/>
<g clip-path="url(#clip0)">
<path d="M78.2265 79.1333C78.387 79.3116 78.5833 79.4541 78.8024 79.5516C79.0216 79.6492 79.2588 79.6996 79.4987 79.6996C79.7386 79.6996 79.9758 79.6492 80.195 79.5516C80.4142 79.4541 80.6104 79.3116 80.771 79.1333L81.5987 78.2251C81.8359 77.9625 82.1486 77.7798 82.4938 77.7021C82.839 77.6243 83.1998 77.6553 83.5267 77.7907C83.8536 77.9262 84.1306 78.1595 84.3196 78.4586C84.5086 78.7578 84.6005 79.1081 84.5825 79.4615L84.5203 80.6865C84.5083 80.9254 84.5465 81.1643 84.6324 81.3876C84.7183 81.6109 84.85 81.8138 85.0191 81.9831C85.1882 82.1524 85.3908 82.2844 85.614 82.3706C85.8372 82.4569 86.076 82.4954 86.315 82.4837L87.54 82.4216C87.8931 82.4042 88.243 82.4964 88.5417 82.6857C88.8404 82.8749 89.0733 83.1519 89.2084 83.4786C89.3435 83.8054 89.3743 84.166 89.2965 84.5109C89.2186 84.8558 89.036 85.1682 88.7737 85.4053L87.862 86.2278C87.6839 86.3886 87.5416 86.585 87.4442 86.8042C87.3468 87.0234 87.2965 87.2606 87.2965 87.5005C87.2965 87.7404 87.3468 87.9776 87.4442 88.1968C87.5416 88.4161 87.6839 88.6124 87.862 88.7732L88.7737 89.5957C89.0363 89.8329 89.219 90.1456 89.2967 90.4908C89.3745 90.836 89.3435 91.1968 89.2081 91.5237C89.0726 91.8506 88.8393 92.1276 88.5402 92.3166C88.241 92.5056 87.8907 92.5975 87.5373 92.5795L86.3123 92.5173C86.0728 92.505 85.8334 92.5431 85.6096 92.6292C85.3857 92.7152 85.1824 92.8473 85.0129 93.0169C84.8433 93.1865 84.7112 93.3897 84.6252 93.6136C84.5391 93.8374 84.501 94.0768 84.5133 94.3163L84.5755 95.5413C84.5911 95.893 84.4982 96.2409 84.3092 96.5378C84.1203 96.8348 83.8445 97.0664 83.5193 97.2011C83.1942 97.3359 82.8354 97.3673 82.4918 97.2911C82.1482 97.2149 81.8364 97.0347 81.5987 96.7751L80.7753 95.8642C80.6146 95.6862 80.4183 95.5439 80.1992 95.4465C79.98 95.3491 79.7429 95.2988 79.5031 95.2988C79.2633 95.2988 79.0261 95.3491 78.807 95.4465C78.5878 95.5439 78.3915 95.6862 78.2308 95.8642L77.404 96.7751C77.1667 97.0359 76.8547 97.2172 76.5106 97.2943C76.1665 97.3713 75.8071 97.3404 75.4812 97.2057C75.1553 97.071 74.8789 96.839 74.6897 96.5415C74.5004 96.244 74.4076 95.8953 74.4237 95.5431L74.4867 94.3181C74.499 94.0786 74.4609 93.8392 74.3749 93.6153C74.2888 93.3915 74.1567 93.1882 73.9872 93.0186C73.8176 92.8491 73.6143 92.717 73.3905 92.6309C73.1666 92.5449 72.9272 92.5068 72.6877 92.5191L71.4627 92.5812C71.1095 92.5997 70.7592 92.5083 70.4599 92.3197C70.1607 92.1311 69.9271 91.8545 69.7914 91.5278C69.6556 91.2012 69.6243 90.8405 69.7017 90.4954C69.7791 90.1502 69.9615 89.8375 70.2237 89.6001L71.1346 88.7776C71.3126 88.6168 71.4549 88.4204 71.5523 88.2012C71.6497 87.982 71.7 87.7448 71.7 87.5049C71.7 87.265 71.6497 87.0278 71.5523 86.8086C71.4549 86.5894 71.3126 86.393 71.1346 86.2322L70.2237 85.4053C69.9623 85.1682 69.7805 84.8561 69.7032 84.5118C69.6258 84.1674 69.6567 83.8076 69.7917 83.4815C69.9266 83.1553 70.1589 82.8788 70.4569 82.6898C70.7549 82.5007 71.1041 82.4082 71.4566 82.4251L72.6816 82.4872C72.9215 82.4998 73.1615 82.4618 73.3858 82.3757C73.6101 82.2895 73.8138 82.1572 73.9836 81.9872C74.1534 81.8172 74.2856 81.6134 74.3715 81.389C74.4574 81.1646 74.4952 80.9247 74.4823 80.6847L74.4237 79.4588C74.4072 79.1064 74.4998 78.7575 74.6889 78.4597C74.878 78.1619 75.1543 77.9297 75.4803 77.7947C75.8063 77.6598 76.1659 77.6287 76.5102 77.7057C76.8545 77.7828 77.1666 77.9641 77.404 78.2251L78.2265 79.1333Z" stroke="#2FAAAD" stroke-width="1.5" stroke-linecap="round" stroke-linejoin="round"/>
<path d="M79.5 91.4385C81.6746 91.4385 83.4375 89.6756 83.4375 87.501C83.4375 85.3264 81.6746 83.5635 79.5 83.5635C77.3254 83.5635 75.5625 85.3264 75.5625 87.501C75.5625 89.6756 77.3254 91.4385 79.5 91.4385Z" stroke="#A847FE" stroke-width="1.5" stroke-linecap="round" stroke-linejoin="round"/>
</g>
<path fill-rule="evenodd" clip-rule="evenodd" d="M35.5955 29.6353V59.1763L69.3337 70.8319L86.0022 53.1473V23.2048L55.678 13.5586L35.5955 29.6353ZM15 77.1574V106.698L48.7382 118.354L65.4064 100.669V70.7269L35.0822 61.0807L15 77.1574Z" fill="#9013FE"/>
<path d="M15 106.899V77.1572L48.7382 87.4059V118.354L15 106.899Z" fill="white" fill-opacity="0.22"/>
<path d="M48.7383 87.8093V117.551L65.4065 100.671V70.9287L48.7383 87.8093Z" fill="#ED0606" fill-opacity="0.65"/>
<path d="M35.5938 59.3783V29.6367L69.332 39.8856V70.833L35.5938 59.3783Z" fill="white" fill-opacity="0.22"/>
<path fill-rule="evenodd" clip-rule="evenodd" d="M36.6786 10.372V29.4307L58.4451 36.9503L69.1989 25.5412V6.22309L49.6348 0L36.6786 10.372ZM28.0508 54.8805V73.9391L49.8175 81.4588L60.5711 70.0497V50.7315L41.0072 44.5084L28.0508 54.8805Z" fill="#22A6B3"/>
<path d="M69.332 40.2869V70.0285L86.0002 53.1482V23.4062L69.332 40.2869Z" fill="#FC175B"/>
<path d="M28.0508 74.0691V54.8809L49.8175 61.4927V81.4592L28.0508 74.0691Z" fill="white" fill-opacity="0.22"/>
<path d="M49.8184 61.753V80.9413L60.5722 70.0506V50.8623L49.8184 61.753Z" fill="#FDEB4C" fill-opacity="0.06"/>
<path d="M36.6816 29.5593V10.3711L58.4481 16.9833V36.9494L36.6816 29.5593Z" fill="white" fill-opacity="0.22"/>
<path d="M58.4453 17.2432V36.4315L69.1989 25.5408V6.35254L58.4453 17.2432Z" fill="#FAE73C" fill-opacity="0.12"/>
<defs>
<clipPath id="clip0">
<rect x="69" y="77" width="21" height="21" fill="white"/>
</clipPath>
</defs>
</svg>
