<svg width="383" height="214" viewBox="0 0 383 214" fill="none" xmlns="http://www.w3.org/2000/svg">
<g opacity="0.05">
<path fill-rule="evenodd" clip-rule="evenodd" d="M241.815 9.58415L264.126 35.1329C266.483 37.8287 269.154 40.8874 269.881 44.6224C270.426 47.4162 269.808 50.3367 269.21 53.1639L269.205 53.1856C269.054 53.8902 268.898 54.6204 268.763 55.3353C267.05 64.4599 268.097 74.1567 271.964 84.9767C275.508 94.8903 280.987 104.457 285.879 112.506C293.196 124.548 307.235 135.539 320.814 146.17L320.825 146.179C332.465 155.288 344.499 164.709 351.702 174.462C351.862 174.674 352.161 174.72 352.375 174.562C352.588 174.406 352.631 174.104 352.474 173.89C345.194 164.035 333.108 154.571 321.418 145.421C307.904 134.843 293.929 123.903 286.701 112.008C281.835 104 276.384 94.4869 272.871 84.6523C269.062 73.9982 268.028 64.4653 269.708 55.514C269.84 54.807 269.993 54.0842 270.144 53.3846L270.147 53.3714L270.147 53.3711C270.767 50.4495 271.407 47.4286 270.823 44.4387C270.048 40.4551 267.171 37.1594 264.857 34.5084L264.849 34.4995L242.277 8.65481C242.109 8.46334 241.938 8.27696 241.762 8.0957C241.795 8.34079 241.818 8.58588 241.828 8.83097C241.838 9.07862 241.833 9.33137 241.815 9.58415ZM370.464 177.005C374.523 175.175 378.717 173.283 382.719 175.077C382.957 175.185 383.068 175.471 382.957 175.711C382.85 175.953 382.566 176.063 382.324 175.953C378.717 174.337 374.722 176.139 370.856 177.883C369.969 178.284 369.054 178.698 368.164 179.058C359.908 182.402 350.797 181.659 341.989 180.939L341.939 180.935C338.619 180.666 335.19 180.387 331.867 180.334C326.036 180.237 320.105 180.859 314.371 181.46L314.32 181.465L314.231 181.475C308.872 182.033 303.375 182.606 297.889 182.606C296.239 182.606 294.592 182.555 292.951 182.435C289.344 182.175 285.723 181.585 282.223 181.013C279.169 180.515 276.014 180.002 272.891 179.711C263.963 178.879 254.849 179.818 246.035 180.73C239.617 181.393 232.977 182.078 226.423 182.083C226.157 182.083 225.943 181.866 225.943 181.603C225.943 181.338 226.157 181.12 226.423 181.12C232.925 181.118 239.538 180.434 245.931 179.773L245.938 179.772L245.97 179.769C254.82 178.856 263.969 177.912 272.981 178.754C276.119 179.046 279.273 179.56 282.326 180.058L282.376 180.066C285.856 180.633 289.456 181.218 293.02 181.478C300.071 181.988 307.255 181.236 314.205 180.509L314.221 180.508L314.225 180.507H314.226C320.002 179.905 325.972 179.282 331.883 179.374C335.253 179.428 338.717 179.709 342.068 179.982L342.075 179.982C350.772 180.692 359.762 181.426 367.805 178.166C368.624 177.835 369.475 177.451 370.304 177.077L370.461 177.008L370.464 177.005ZM322.115 208.564C326.603 209.334 331.244 210.129 335.355 208.456C335.6 208.354 335.881 208.474 335.981 208.719C336.08 208.965 335.962 209.245 335.717 209.345C331.352 211.122 326.572 210.305 321.951 209.511C320.999 209.347 320.013 209.179 319.059 209.039C308.445 207.478 297.669 209.13 287.247 210.729H287.247L287.232 210.73L287.216 210.731C287.201 210.733 287.187 210.734 287.173 210.734C286.938 210.734 286.734 210.563 286.698 210.325C286.658 210.062 286.839 209.817 287.102 209.779C297.592 208.17 308.443 206.508 319.199 208.089C320.164 208.231 321.157 208.4 322.115 208.564ZM202.863 209.072C213.205 206.74 223.903 204.33 234.485 206.146C234.746 206.189 234.922 206.439 234.876 206.7C234.833 206.96 234.588 207.139 234.322 207.093C223.928 205.309 213.33 207.697 203.08 210.007H203.079L203.072 210.008C195.196 211.783 187.052 213.616 178.92 213.616H178.507C169.584 213.547 160.742 211.221 152.937 206.894C152.685 206.753 152.432 206.61 152.179 206.467C150.479 205.507 148.72 204.514 146.826 204.241C144.569 203.915 142.254 204.622 140.018 205.306H140.017L140.009 205.308C139.897 205.342 139.786 205.376 139.675 205.41L139.669 205.412L139.64 205.421C139.537 205.452 139.433 205.484 139.329 205.515C126.459 209.393 112.226 209.587 99.2539 206.061C98.1994 205.773 97.1349 205.459 96.1035 205.153L96.1006 205.152L96.1003 205.151H96.0999C93.2951 204.322 90.396 203.465 87.4687 203.118C84.2609 202.738 80.9641 202.964 77.7741 203.184L77.7698 203.184L40.053 205.773C39.7899 205.791 39.5603 205.589 39.5425 205.326C39.5247 205.061 39.7237 204.831 39.9893 204.813L77.7033 202.224H77.705C80.9392 202.002 84.2833 201.772 87.5812 202.163C90.5911 202.52 93.5322 203.391 96.3765 204.233L96.693 204.327C97.6198 204.599 98.5693 204.878 99.5067 205.132C112.305 208.612 126.352 208.421 139.054 204.594C139.11 204.577 139.166 204.56 139.222 204.543C139.3 204.52 139.378 204.496 139.456 204.472L139.615 204.424L139.675 204.405L139.728 204.389L139.736 204.387C142.075 203.673 144.492 202.934 146.963 203.289C149.034 203.587 150.87 204.624 152.644 205.626L152.652 205.63C152.719 205.668 152.786 205.706 152.853 205.744L152.863 205.749C153.042 205.85 153.223 205.952 153.405 206.051C161.066 210.305 169.749 212.587 178.514 212.654C186.674 212.712 194.902 210.864 202.863 209.072ZM88.4136 141.195C88.4161 141.193 88.4186 141.193 88.4186 141.193C89.3019 140.733 90.1777 140.276 91.0432 139.822C91.0561 139.814 91.0714 139.807 91.0842 139.801C97.7501 136.304 103.9 132.959 109.535 129.768C131.938 117.084 146.144 106.849 151.883 99.2331C155.627 94.2658 159.163 89.0041 162.582 83.9164L162.583 83.9161L162.606 83.8812L162.624 83.8541C169.055 74.2834 175.703 64.3883 183.962 56.1346C186.623 53.4818 189.487 50.9544 192.334 48.5085C192.056 48.3322 191.79 48.1407 191.532 47.9289C188.729 50.3417 185.911 52.8335 183.283 55.4553C174.955 63.7756 168.277 73.7152 161.819 83.3269L161.819 83.3272L161.807 83.345L161.784 83.3788C158.373 88.4568 154.844 93.709 151.115 98.656C146.113 105.292 134.54 113.977 116.576 124.593C108.141 129.579 98.2966 134.991 87.0604 140.817L87.4 141.721C87.7393 141.545 88.0765 141.369 88.4136 141.195ZM11.8875 177.418C11.7011 177.418 11.5249 177.311 11.4458 177.13C11.3411 176.887 11.4509 176.604 11.696 176.497C14.5095 175.274 19.5084 173.081 26.0085 170.158V171.212C19.6974 174.051 14.8388 176.18 12.079 177.38C12.0152 177.406 11.9513 177.418 11.8875 177.418Z" fill="#0A0F21"/>
<path fill-rule="evenodd" clip-rule="evenodd" d="M87.4627 141.899L95.8087 164.251L97.1847 167.937H71.9502V183.501H64.5053V167.937H58.7455L55.0436 157.769L54.7142 156.862L48.2118 138.993L53.8541 123.876L50.1393 124.234L48.5051 118.941L61.577 86.3562H55.8582L67.2934 52.2471L78.7286 86.3562H73.0122L88.3588 124.612L80.7352 123.876L87.0593 140.818L87.3989 141.722L87.4627 141.899ZM46.9301 124.545L46.2305 124.612L46.2814 124.481L46.9301 124.545Z" fill="#7522E4"/>
<path fill-rule="evenodd" clip-rule="evenodd" d="M241.761 8.09586C241.794 8.34095 241.817 8.58607 241.828 8.83116C241.838 9.07881 241.833 9.33155 241.815 9.5843C241.677 11.3664 240.817 13.2531 239.665 14.6011C239.622 14.8488 239.568 15.0939 239.499 15.3364C237.666 21.9516 233.426 27.2923 228.886 32.2813C225.37 36.1439 221.929 40.0477 218.697 44.1506C210.203 55.3227 203.105 67.5113 197.555 80.4041C195.458 85.485 193.608 90.6598 192.007 95.9116C191.302 99.2561 190.702 101.728 190.281 102.956C189.576 115.961 189.663 129.005 190.536 142.002C191.136 150.946 196.697 158.766 204.852 162.483C205.464 162.761 206.072 163.042 206.679 163.328C214.101 166.818 220.908 171.192 226.984 176.734C229.151 178.713 139.347 165.736 123.735 163.252C117.232 162.463 110.683 162.299 104.166 162.958C102.417 163.221 100.681 163.542 98.9524 163.923C97.8978 164.156 96.8461 164.263 95.8094 164.25L87.4634 141.898C87.7646 141.648 88.0811 141.413 88.4133 141.195C88.4158 141.193 88.4182 141.193 88.4182 141.193C89.3015 140.734 90.1774 140.276 91.0429 139.822C91.0557 139.814 91.071 139.806 91.0838 139.801C97.372 136.718 103.63 133.531 109.535 129.768C131.938 117.084 146.143 106.849 151.883 99.2333C155.627 94.2664 159.163 89.0046 162.582 83.9174L162.606 83.8814L162.624 83.8544C169.054 74.2836 175.703 64.3886 183.962 56.1344C186.622 53.482 189.487 50.9543 192.334 48.5087C192.055 48.3325 191.79 48.1409 191.532 47.9291C188.729 50.3415 185.91 52.8334 183.283 55.4555C174.955 63.7758 168.277 73.7154 161.819 83.3271L161.806 83.3452L161.784 83.3791C158.372 88.4571 154.844 93.7092 151.114 98.6562C146.113 105.291 134.54 113.977 116.576 124.593C118.741 122.711 120.784 120.697 122.66 118.519C125.609 114.472 127.738 110.055 129.794 105.468C132.482 99.4733 135.755 94.3518 140.046 89.3528C143.186 85.6982 146.738 82.452 150.29 79.2061C153.849 75.953 157.408 72.7004 160.55 69.0379C164.235 64.0066 166.758 58.3632 169.286 52.7095C170.9 49.0993 172.515 45.485 174.437 42.0237C177.005 37.4028 180.133 33.1568 183.824 29.5467C185.856 27.2236 188.215 25.2192 190.95 23.8791C191.466 23.5523 191.989 23.2358 192.523 22.9317C194.077 21.2093 195.798 19.6093 197.451 18.0727C197.584 17.9491 197.716 17.8259 197.848 17.7031C201.157 14.619 204.683 11.7391 208.39 9.14265C215.725 4.00329 224.071 0.737881 233.02 0.0230142C237.666 -0.349711 241.22 3.86796 241.761 8.09586ZM60.4238 186.007C61.9683 186.268 63.6203 186.5 64.9657 186.097C67.0872 185.458 69.186 186.858 69.8319 188.859L12.4003 189.99C12.3033 187.825 14.287 186.071 16.3576 186.033C16.4023 186.032 16.447 186.031 16.4916 186.03C16.5363 186.029 16.581 186.029 16.6256 186.028C16.7942 185.943 16.9652 185.867 17.1414 185.806C20.0008 184.81 22.9904 184.399 26.0081 184.23V171.212V170.158V168.792H0L16.2504 124.146L8.72131 124.871L23.8816 75.7576H18.2315L29.5289 42.0621L40.8238 75.7576H35.1762L48.5058 118.94L50.14 124.233L50.3365 124.871L46.9308 124.544L46.2821 124.481L42.8076 124.146L48.2125 138.992L54.715 156.861L55.0443 157.768L58.7462 167.937L59.0578 168.792H36.0086V182.589C36.297 182.668 36.5804 182.763 36.8638 182.859C37.1724 182.963 37.4815 183.067 37.7983 183.15C38.0896 183.23 38.3908 183.291 38.6895 183.342C38.7154 183.34 38.8411 183.35 38.9739 183.36C39.0622 183.367 39.1534 183.374 39.2203 183.378C40.3126 183.438 41.4063 183.397 42.4979 183.355C42.7866 183.344 43.0757 183.333 43.3641 183.324C46.5374 183.224 49.8975 183.467 52.5653 185.369C52.7134 185.474 52.8511 185.589 52.9864 185.703C53.3058 185.652 53.6273 185.607 53.9516 185.571C56.1344 185.321 58.2688 185.645 60.4238 186.007Z" fill="#34D0DB"/>
</g>
</svg>
