<svg width="572" height="297" viewBox="0 0 572 297" fill="none" xmlns="http://www.w3.org/2000/svg">
<g opacity="0.2">
<path fill-rule="evenodd" clip-rule="evenodd" d="M219.672 118.921L295.292 25.7695L445.114 216.406H296.286L315.618 241.005H11.0371L165.795 50.3681L219.672 118.921Z" fill="#BD10E0"/>
<path d="M369.913 214.942L293.84 25.7695L446.566 214.942H369.913Z" fill="black" fill-opacity="0.04"/>
<path d="M240.414 239.541L164.342 50.3682L317.068 239.541H240.414Z" fill="black" fill-opacity="0.04"/>
<path d="M151.476 239.346L133.621 159.598L118.467 239.346H151.476Z" fill="#2A7E98"/>
<path d="M121.464 239.346L133.617 159.598L118.463 239.346H121.464Z" fill="white" fill-opacity="0.04"/>
<path d="M146.971 239.346L133.617 159.598L151.397 239.346H146.971Z" fill="black" fill-opacity="0.04"/>
<path d="M133.846 233.14L129.42 225.271M133.846 241.485V233.14V241.485ZM133.846 176.394V185.7V176.394ZM133.846 210.139L129.42 203.329L133.846 210.139ZM133.846 210.139V198.184V210.139ZM133.846 210.139V223.153V210.139ZM133.846 198.184L137.897 192.964L133.846 198.184ZM133.846 198.184V185.7V198.184ZM133.846 185.7L130.995 181.917L133.846 185.7ZM133.846 223.153L140.373 217.1L133.846 223.153ZM133.846 223.153V233.14V223.153Z" stroke="black" stroke-width="0.290405" stroke-linecap="round"/>
<path d="M170.257 239.172L150.042 148.883L132.885 239.172H170.257Z" fill="#1A6076"/>
<path d="M136.28 239.172L150.04 148.883L132.883 239.172H136.28Z" fill="white" fill-opacity="0.04"/>
<path d="M165.16 239.172L150.041 148.883L170.171 239.172H165.16Z" fill="black" fill-opacity="0.04"/>
<path d="M150.297 232.148L145.285 223.239M150.297 241.487V232.148V241.487ZM150.297 167.9V178.437V167.9ZM150.297 206.106L145.285 198.397L150.297 206.106ZM150.297 206.106V192.572V206.106ZM150.297 206.106V220.84V206.106ZM150.297 192.572L154.883 186.661L150.297 192.572ZM150.297 192.572V178.437V192.572ZM150.297 178.437L147.069 174.154L150.297 178.437ZM150.297 220.84L157.686 213.987L150.297 220.84ZM150.297 220.84V232.148V220.84Z" stroke="black" stroke-width="0.328792" stroke-linecap="round"/>
<path d="M193.21 238.998L170.635 138.167L151.475 238.998H193.21Z" fill="#0F4E5B"/>
<path d="M155.269 238.999L170.635 138.168L151.475 238.999H155.269Z" fill="white" fill-opacity="0.04"/>
<path d="M187.521 238.999L170.637 138.168L193.117 238.999H187.521Z" fill="black" fill-opacity="0.04"/>
<path d="M170.921 231.154L165.324 221.205M170.921 241.773V231.154V241.773ZM170.921 159.405V171.172V159.405ZM170.921 202.072L165.324 193.462L170.921 202.072ZM170.921 202.072V186.957V202.072ZM170.921 202.072V218.526V202.072ZM170.921 186.957L176.043 180.356L170.921 186.957ZM170.921 186.957V171.172V186.957ZM170.921 171.172L167.316 166.389L170.921 171.172ZM170.921 218.526L179.173 210.873L170.921 218.526ZM170.921 218.526V231.154V218.526Z" stroke="black" stroke-width="0.367179" stroke-linecap="round"/>
<path d="M182.018 239.728L199.872 159.979L215.027 239.728H182.018Z" fill="#2A7E98"/>
<path d="M212.027 239.728L199.873 159.979L215.027 239.728H212.027Z" fill="white" fill-opacity="0.04"/>
<path d="M186.52 239.728L199.873 159.979L182.094 239.728H186.52Z" fill="black" fill-opacity="0.04"/>
<path d="M199.648 233.523L204.074 225.654M199.648 241.868V233.523V241.868ZM199.648 176.776V186.083V176.776ZM199.648 210.522L204.074 203.712L199.648 210.522ZM199.648 210.522V198.567V210.522ZM199.648 210.522V223.536V210.522ZM199.648 198.567L195.597 193.346L199.648 198.567ZM199.648 198.567V186.083V198.567ZM199.648 186.083L202.499 182.3L199.648 186.083ZM199.648 223.536L193.121 217.483L199.648 223.536ZM199.648 223.536V233.523V223.536Z" stroke="black" stroke-width="0.290405" stroke-linecap="round"/>
<path d="M163.238 239.555L183.453 149.266L200.611 239.555H163.238Z" fill="#1A6076"/>
<path d="M197.211 239.555L183.451 149.266L200.608 239.555H197.211Z" fill="white" fill-opacity="0.04"/>
<path d="M168.332 239.555L183.45 149.266L163.32 239.555H168.332Z" fill="black" fill-opacity="0.04"/>
<path d="M183.196 232.531L188.207 223.622M183.196 241.869V232.531V241.869ZM183.196 168.283V178.82V168.283ZM183.196 206.49L188.207 198.779L183.196 206.49ZM183.196 206.49V192.954V206.49ZM183.196 206.49V221.224V206.49ZM183.196 192.954L178.61 187.044L183.196 192.954ZM183.196 192.954V178.82V192.954ZM183.196 178.82L186.423 174.537L183.196 178.82ZM183.196 221.224L175.807 214.37L183.196 221.224ZM183.196 221.224V232.531V221.224Z" stroke="black" stroke-width="0.328792" stroke-linecap="round"/>
<path d="M140.281 239.382L162.857 138.551L182.017 239.382H140.281Z" fill="#0F4E5B"/>
<path d="M178.224 239.382L162.857 138.552L182.018 239.382H178.224Z" fill="white" fill-opacity="0.04"/>
<path d="M145.973 239.382L162.857 138.552L140.377 239.382H145.973Z" fill="black" fill-opacity="0.04"/>
<path d="M162.573 231.537L168.169 221.588M162.573 242.156V231.537V242.156ZM162.573 159.788V171.555V159.788ZM162.573 202.455L168.169 193.845L162.573 202.455ZM162.573 202.455V187.34V202.455ZM162.573 202.455V218.909V202.455ZM162.573 187.34L157.45 180.739L162.573 187.34ZM162.573 187.34V171.555V187.34ZM162.573 171.555L166.177 166.772L162.573 171.555ZM162.573 218.909L154.32 211.256L162.573 218.909ZM162.573 218.909V231.537V218.909Z" stroke="black" stroke-width="0.367179" stroke-linecap="round"/>
<path d="M203.801 238.85L180.461 134.605L160.652 238.85H203.801Z" fill="#2A7E98"/>
<path d="M164.575 238.848L180.461 134.604L160.652 238.848H164.575Z" fill="white" fill-opacity="0.04"/>
<path d="M197.916 238.848L180.461 134.604L203.702 238.848H197.916Z" fill="black" fill-opacity="0.04"/>
<path d="M180.755 230.738L174.969 220.452M180.755 241.647V230.738V241.647ZM180.755 156.561V168.725V156.561ZM180.755 200.671L174.969 191.77L180.755 200.671ZM180.755 200.671V185.045V200.671ZM180.755 200.671V217.682V200.671ZM180.755 185.045L186.05 178.22L180.755 185.045ZM180.755 185.045V168.725V185.045ZM180.755 168.725L177.028 163.78L180.755 168.725ZM180.755 217.682L189.286 209.771L180.755 217.682ZM180.755 217.682V230.738V217.682Z" stroke="black" stroke-width="0.379608" stroke-linecap="round"/>
<path d="M228.35 238.622L201.926 120.599L179.498 238.622H228.35Z" fill="#1A6076"/>
<path d="M183.941 238.621L201.928 120.598L179.5 238.621H183.941Z" fill="white" fill-opacity="0.04"/>
<path d="M221.691 238.621L201.928 120.598L228.241 238.621H221.691Z" fill="black" fill-opacity="0.04"/>
<path d="M202.259 229.442L195.709 217.796M202.259 241.648V229.442V241.648ZM202.259 145.459V159.232V145.459ZM202.259 195.4L195.709 185.323L202.259 195.4ZM202.259 195.4V177.708V195.4ZM202.259 195.4V214.66V195.4ZM202.259 177.708L208.255 169.982L202.259 177.708ZM202.259 177.708V159.232V177.708ZM202.259 159.232L198.041 153.633L202.259 159.232ZM202.259 214.66L211.919 205.702L202.259 214.66ZM202.259 214.66V229.442V214.66Z" stroke="black" stroke-width="0.429786" stroke-linecap="round"/>
<path d="M258.356 238.395L228.846 106.593L203.801 238.395H258.356Z" fill="#0F4E5B"/>
<path d="M208.76 238.395L228.846 106.593L203.801 238.395H208.76Z" fill="white" fill-opacity="0.04"/>
<path d="M250.916 238.395L228.846 106.593L258.231 238.395H250.916Z" fill="black" fill-opacity="0.04"/>
<path d="M229.22 228.142L221.904 215.137M229.22 242.023V228.142V242.023ZM229.22 134.354V149.736V134.354ZM229.22 190.127L221.904 178.872L229.22 190.127ZM229.22 190.127V170.369V190.127ZM229.22 190.127V211.636V190.127ZM229.22 170.369L235.915 161.741L229.22 170.369ZM229.22 170.369V149.736V170.369ZM229.22 149.736L224.508 143.483L229.22 149.736ZM229.22 211.636L240.007 201.631L229.22 211.636ZM229.22 211.636V228.142V211.636Z" stroke="black" stroke-width="0.479964" stroke-linecap="round"/>
<path d="M243.723 239.349L267.062 135.104L286.871 239.349H243.723Z" fill="#2A7E98"/>
<path d="M282.953 239.349L267.066 135.104L286.875 239.349H282.953Z" fill="white" fill-opacity="0.04"/>
<path d="M249.61 239.349L267.065 135.104L243.824 239.349H249.61Z" fill="black" fill-opacity="0.04"/>
<path d="M266.77 231.238L272.556 220.952M266.77 242.147V231.238V242.147ZM266.77 157.061V169.225V157.061ZM266.77 201.172L272.556 192.27L266.77 201.172ZM266.77 201.172V185.545V201.172ZM266.77 201.172V218.183V201.172ZM266.77 185.545L261.474 178.721L266.77 185.545ZM266.77 185.545V169.225V185.545ZM266.77 169.225L270.496 164.281L266.77 169.225ZM266.77 218.183L258.238 210.271L266.77 218.183ZM266.77 218.183V231.238V218.183Z" stroke="black" stroke-width="0.379608" stroke-linecap="round"/>
<path d="M219.174 239.123L245.598 121.1L268.025 239.123H219.174Z" fill="#1A6076"/>
<path d="M263.584 239.123L245.598 121.099L268.025 239.123H263.584Z" fill="white" fill-opacity="0.04"/>
<path d="M225.838 239.123L245.601 121.099L219.287 239.123H225.838Z" fill="black" fill-opacity="0.04"/>
<path d="M245.265 229.941L251.815 218.296M245.265 242.148V229.941V242.148ZM245.265 145.959V159.732V145.959ZM245.265 195.9L251.815 185.823L245.265 195.9ZM245.265 195.9V178.208V195.9ZM245.265 195.9V215.16V195.9ZM245.265 178.208L239.27 170.482L245.265 178.208ZM245.265 178.208V159.732V178.208ZM245.265 159.732L249.484 154.133L245.265 159.732ZM245.265 215.16L235.605 206.202L245.265 215.16ZM245.265 215.16V229.941V215.16Z" stroke="black" stroke-width="0.429786" stroke-linecap="round"/>
<path d="M189.17 238.895L218.679 107.093L243.725 238.895H189.17Z" fill="#0F4E5B"/>
<path d="M238.764 238.896L218.678 107.093L243.724 238.896H238.764Z" fill="white" fill-opacity="0.04"/>
<path d="M196.608 238.896L218.678 107.093L189.293 238.896H196.608Z" fill="black" fill-opacity="0.04"/>
<path d="M218.305 228.642L225.62 215.637M218.305 242.523V228.642V242.523ZM218.305 134.854V150.236V134.854ZM218.305 190.627L225.62 179.372L218.305 190.627ZM218.305 190.627V170.869V190.627ZM218.305 190.627V212.136V190.627ZM218.305 170.869L211.609 162.241L218.305 170.869ZM218.305 170.869V150.236V170.869ZM218.305 150.236L223.017 143.983L218.305 150.236ZM218.305 212.136L207.518 202.132L218.305 212.136ZM218.305 212.136V228.642V212.136Z" stroke="black" stroke-width="0.479964" stroke-linecap="round"/>
<path d="M268.024 227.484C268.024 226.53 267.87 225.584 267.572 224.702C267.273 223.82 266.835 223.018 266.283 222.343C265.731 221.668 265.076 221.132 264.354 220.767C263.633 220.401 262.86 220.213 262.08 220.213C261.299 220.213 260.526 220.401 259.804 220.767C259.083 221.132 258.428 221.668 257.876 222.343C257.324 223.018 256.886 223.82 256.587 224.702C256.289 225.584 256.135 226.53 256.135 227.484H262.08H268.024Z" fill="#419ACB"/>
<path d="M270.614 227.502C270.614 226.912 270.499 226.326 270.275 225.781C270.053 225.235 269.725 224.739 269.312 224.322C268.9 223.903 268.41 223.572 267.871 223.346C267.331 223.12 266.754 223.004 266.17 223.004C265.587 223.004 265.009 223.12 264.47 223.346C263.931 223.572 263.44 223.903 263.028 224.322C262.615 224.739 262.288 225.235 262.065 225.781C261.841 226.326 261.727 226.912 261.727 227.502H266.17H270.614Z" fill="#368FC0"/>
<path d="M262.079 227.536C262.079 226.945 261.964 226.36 261.74 225.814C261.517 225.268 261.19 224.772 260.777 224.355C260.365 223.937 259.875 223.606 259.336 223.38C258.797 223.154 258.219 223.037 257.635 223.037C257.052 223.037 256.474 223.154 255.934 223.38C255.395 223.606 254.906 223.937 254.493 224.355C254.08 224.772 253.753 225.268 253.53 225.814C253.306 226.36 253.191 226.945 253.191 227.536H257.635H262.079Z" fill="#3682AD"/>
<path d="M333.424 233.922L301.962 93.4004L275.26 233.922H333.424Z" fill="#2A7E98"/>
<path d="M280.547 233.92L301.963 93.3984L275.26 233.92H280.547Z" fill="white" fill-opacity="0.04"/>
<path d="M325.494 233.92L301.965 93.3984L333.294 233.92H325.494Z" fill="black" fill-opacity="0.04"/>
<path d="M302.356 222.988L294.557 209.122M302.356 237.692V222.988V237.692ZM302.356 122.996V139.394V122.996ZM302.356 182.458L294.557 170.458L302.356 182.458ZM302.356 182.458V161.393V182.458ZM302.356 182.458V205.389V182.458ZM302.356 161.393L309.494 152.193L302.356 161.393ZM302.356 161.393V139.394V161.393ZM302.356 139.394L297.333 132.728L302.356 139.394ZM302.356 205.389L313.857 194.723L302.356 205.389ZM302.356 205.389V222.988V205.389Z" stroke="black" stroke-width="0.511714" stroke-linecap="round"/>
<path d="M366.517 233.615L330.896 74.5186L300.664 233.615H366.517Z" fill="#1A6076"/>
<path d="M306.649 233.614L330.895 74.5176L300.662 233.614H306.649Z" fill="white" fill-opacity="0.04"/>
<path d="M357.535 233.614L330.895 74.5176L366.365 233.614H357.535Z" fill="black" fill-opacity="0.04"/>
<path d="M331.344 221.238L322.514 205.54M331.344 237.693V221.238V237.693ZM331.344 108.029V126.596V108.029ZM331.344 175.351L322.514 161.766L331.344 175.351ZM331.344 175.351V151.501V175.351ZM331.344 175.351V201.314V175.351ZM331.344 151.501L339.426 141.086L331.344 151.501ZM331.344 151.501V126.596V151.501ZM331.344 126.596L325.657 119.048L331.344 126.596ZM331.344 201.314L344.365 189.238L331.344 201.314ZM331.344 201.314V221.238V201.314Z" stroke="black" stroke-width="0.579354" stroke-linecap="round"/>
<path d="M406.965 233.311L367.186 55.6396L333.424 233.311H406.965Z" fill="#0F4E5B"/>
<path d="M340.111 233.311L367.188 55.6396L333.426 233.311H340.111Z" fill="white" fill-opacity="0.04"/>
<path d="M396.94 233.311L367.189 55.6396L406.801 233.311H396.94Z" fill="black" fill-opacity="0.04"/>
<path d="M367.687 219.488L357.826 201.957M367.687 238.199V219.488V238.199ZM367.687 93.0615V113.795V93.0615ZM367.687 168.243L357.826 153.072L367.687 168.243ZM367.687 168.243V141.609V168.243ZM367.687 168.243V197.237V168.243ZM367.687 141.609L376.713 129.978L367.687 141.609ZM367.687 141.609V113.795V141.609ZM367.687 113.795L361.336 105.367L367.687 113.795ZM367.687 197.237L382.228 183.751L367.687 197.237ZM367.687 197.237V219.488V197.237Z" stroke="black" stroke-width="0.646994" stroke-linecap="round"/>
<path d="M387.242 234.594L418.704 94.0723L445.406 234.594H387.242Z" fill="#2A7E98"/>
<path d="M440.116 234.594L418.701 94.0723L445.404 234.594H440.116Z" fill="white" fill-opacity="0.04"/>
<path d="M395.172 234.594L418.702 94.0723L387.373 234.594H395.172Z" fill="black" fill-opacity="0.04"/>
<path d="M418.308 223.663L426.107 209.797M418.308 238.368V223.663V238.368ZM418.308 123.671V140.07V123.671ZM418.308 183.133L426.107 171.134L418.308 183.133ZM418.308 183.133V162.068V183.133ZM418.308 183.133V206.064V183.133ZM418.308 162.068L411.169 152.869L418.308 162.068ZM418.308 162.068V140.07V162.068ZM418.308 140.07L423.331 133.404L418.308 140.07ZM418.308 206.064L406.807 195.399L418.308 206.064ZM418.308 206.064V223.663V206.064Z" stroke="black" stroke-width="0.511714" stroke-linecap="round"/>
<path d="M354.15 234.29L389.771 75.1934L420.003 234.29H354.15Z" fill="#1A6076"/>
<path d="M414.017 234.29L389.771 75.1934L420.003 234.29H414.017Z" fill="white" fill-opacity="0.04"/>
<path d="M363.131 234.29L389.772 75.1934L354.301 234.29H363.131Z" fill="black" fill-opacity="0.04"/>
<path d="M389.322 221.912L398.152 206.214M389.322 238.367V221.912V238.367ZM389.322 108.703V127.269V108.703ZM389.322 176.025L398.152 162.44L389.322 176.025ZM389.322 176.025V152.176V176.025ZM389.322 176.025V201.988V176.025ZM389.322 152.176L381.24 141.76L389.322 152.176ZM389.322 152.176V127.269V152.176ZM389.322 127.269L395.009 119.722L389.322 127.269ZM389.322 201.988L376.301 189.912L389.322 201.988ZM389.322 201.988V221.912V201.988Z" stroke="black" stroke-width="0.579354" stroke-linecap="round"/>
<path d="M313.701 233.985L353.48 56.3145L387.243 233.985H313.701Z" fill="#0F4E5B"/>
<path d="M380.558 233.987L353.482 56.3154L387.244 233.987H380.558Z" fill="white" fill-opacity="0.04"/>
<path d="M323.73 233.987L353.481 56.3154L313.869 233.987H323.73Z" fill="black" fill-opacity="0.04"/>
<path d="M352.978 220.163L362.84 202.631M352.978 238.873V220.163V238.873ZM352.978 93.7363V114.47V93.7363ZM352.978 168.918L362.84 153.747L352.978 168.918ZM352.978 168.918V142.284V168.918ZM352.978 168.918V197.911V168.918ZM352.978 142.284L343.953 130.653L352.978 142.284ZM352.978 142.284V114.47V142.284ZM352.978 114.47L359.33 106.041L352.978 114.47ZM352.978 197.911L338.438 184.426L352.978 197.911ZM352.978 197.911V220.163V197.911Z" stroke="black" stroke-width="0.646994" stroke-linecap="round"/>
<path d="M425.619 233.043L384.493 49.3584L349.588 233.043H425.619Z" fill="#2A7E98"/>
<path d="M356.5 233.044L384.492 49.3584L349.588 233.044H356.5Z" fill="white" fill-opacity="0.04"/>
<path d="M415.25 233.044L384.492 49.3584L425.445 233.044H415.25Z" fill="black" fill-opacity="0.04"/>
<path d="M385.011 218.754L374.816 200.629M385.011 237.976V218.754V237.976ZM385.011 88.0479V109.484V88.0479ZM385.011 165.774L374.816 150.09L385.011 165.774ZM385.011 165.774V138.239V165.774ZM385.011 165.774V195.749V165.774ZM385.011 138.239L394.342 126.214L385.011 138.239ZM385.011 138.239V109.484V138.239ZM385.011 109.484L378.445 100.77L385.011 109.484ZM385.011 195.749L400.045 181.807L385.011 195.749ZM385.011 195.749V218.754V195.749Z" stroke="black" stroke-width="0.668896" stroke-linecap="round"/>
<path d="M468.877 232.645L422.316 24.6797L382.797 232.645H468.877Z" fill="#1A6076"/>
<path d="M390.623 232.645L422.316 24.6797L382.797 232.645H390.623Z" fill="white" fill-opacity="0.04"/>
<path d="M457.138 232.645L422.314 24.6797L468.681 232.645H457.138Z" fill="black" fill-opacity="0.04"/>
<path d="M422.9 216.467L411.357 195.946M422.9 237.976V216.467V237.976ZM422.9 68.4834V92.7528V68.4834ZM422.9 156.484L411.357 138.726L422.9 156.484ZM422.9 156.484V125.309V156.484ZM422.9 156.484V190.421V156.484ZM422.9 125.309L433.465 111.695L422.9 125.309ZM422.9 125.309V92.7528V125.309ZM422.9 92.7528L415.466 82.887L422.9 92.7528ZM422.9 190.421L439.92 174.637L422.9 190.421ZM422.9 190.421V216.467V190.421Z" stroke="black" stroke-width="0.757313" stroke-linecap="round"/>
<path d="M521.75 232.246L469.752 0L425.619 232.246H521.75Z" fill="#0F4E5B"/>
<path d="M434.358 232.246L469.752 0L425.619 232.246H434.358Z" fill="white" fill-opacity="0.04"/>
<path d="M508.639 232.246L469.75 0L521.529 232.246H508.639Z" fill="black" fill-opacity="0.04"/>
<path d="M470.408 214.177L457.518 191.261M470.408 238.636V214.177V238.636ZM470.408 48.917V76.0198V48.917ZM470.408 147.192L457.518 127.361L470.408 147.192ZM470.408 147.192V112.377V147.192ZM470.408 147.192V185.092V147.192ZM470.408 112.377L482.205 97.1729L470.408 112.377ZM470.408 112.377V76.0198V112.377ZM470.408 76.0198L462.105 65.0025L470.408 76.0198ZM470.408 185.092L489.415 167.464L470.408 185.092ZM470.408 185.092V214.177V185.092Z" stroke="black" stroke-width="0.84573" stroke-linecap="round"/>
<path d="M495.967 233.925L537.095 50.2393L571.999 233.925H495.967Z" fill="#2A7E98"/>
<path d="M565.086 233.925L537.09 50.2393L571.999 233.925H565.086Z" fill="white" fill-opacity="0.04"/>
<path d="M506.334 233.925L537.089 50.2393L496.139 233.925H506.334Z" fill="black" fill-opacity="0.04"/>
<path d="M536.575 219.635L546.772 201.51M536.575 238.856V219.635V238.856ZM536.575 88.9287V110.364V88.9287ZM536.575 166.655L546.772 150.97L536.575 166.655ZM536.575 166.655V139.12V166.655ZM536.575 166.655V196.63V166.655ZM536.575 139.12L527.241 127.095L536.575 139.12ZM536.575 139.12V110.364V139.12ZM536.575 110.364L543.141 101.651L536.575 110.364ZM536.575 196.63L521.541 182.688L536.575 196.63ZM536.575 196.63V219.635V196.63Z" stroke="black" stroke-width="0.668896" stroke-linecap="round"/>
<path d="M452.709 233.526L499.271 25.5605L538.787 233.526H452.709Z" fill="#1A6076"/>
<path d="M530.966 233.527L499.271 25.5615L538.787 233.527H530.966Z" fill="white" fill-opacity="0.04"/>
<path d="M464.447 233.527L499.271 25.5615L452.904 233.527H464.447Z" fill="black" fill-opacity="0.04"/>
<path d="M498.686 217.347L510.229 196.826M498.686 238.856V217.347V238.856ZM498.686 69.3633V93.6327V69.3633ZM498.686 157.364L510.229 139.606L498.686 157.364ZM498.686 157.364V126.189V157.364ZM498.686 157.364V191.301V157.364ZM498.686 126.189L488.122 112.574L498.686 126.189ZM498.686 126.189V93.6327V126.189ZM498.686 93.6327L506.121 83.7669L498.686 93.6327ZM498.686 191.301L481.666 175.517L498.686 191.301ZM498.686 191.301V217.347V191.301Z" stroke="black" stroke-width="0.757313" stroke-linecap="round"/>
<path d="M399.838 233.127L451.836 0.881836L495.968 233.127H399.838Z" fill="#0F4E5B"/>
<path d="M487.232 233.128L451.838 0.881836L495.971 233.128H487.232Z" fill="white" fill-opacity="0.04"/>
<path d="M412.948 233.128L451.837 0.881836L400.059 233.128H412.948Z" fill="black" fill-opacity="0.04"/>
<path d="M451.181 215.059L464.071 192.143M451.181 239.518V215.059V239.518ZM451.181 49.7988V76.9017V49.7988ZM451.181 148.074L464.071 128.243L451.181 148.074ZM451.181 148.074V113.259V148.074ZM451.181 148.074V185.974V148.074ZM451.181 113.259L439.383 98.0549L451.181 113.259ZM451.181 113.259V76.9017V113.259ZM451.181 76.9017L459.484 65.8844L451.181 76.9017ZM451.181 185.974L432.174 168.346L451.181 185.974ZM451.181 185.974V215.059V185.974Z" stroke="black" stroke-width="0.84573" stroke-linecap="round"/>
<path d="M38.9297 242.065L17.8734 148.018L0.00195312 242.065H38.9297Z" fill="#2A7E98"/>
<path d="M3.53891 242.063L17.8714 148.016L0 242.063H3.53891Z" fill="white" fill-opacity="0.04"/>
<path d="M33.6191 242.063L17.8711 148.016L38.839 242.063H33.6191Z" fill="black" fill-opacity="0.04"/>
<path d="M18.1359 234.748L12.916 225.468M18.1359 244.59V234.748V244.59ZM18.1359 167.826V178.801V167.826ZM18.1359 207.623L12.916 199.592L18.1359 207.623ZM18.1359 207.623V193.524V207.623ZM18.1359 207.623V222.97V207.623ZM18.1359 193.524L22.9133 187.367L18.1359 193.524ZM18.1359 193.524V178.801V193.524ZM18.1359 178.801L14.7739 174.34L18.1359 178.801ZM18.1359 222.97L25.8328 215.832L18.1359 222.97ZM18.1359 222.97V234.748V222.97Z" stroke="black" stroke-width="0.342478" stroke-linecap="round"/>
<path d="M61.0794 241.86L37.2394 135.381L17.0059 241.86H61.0794Z" fill="#1A6076"/>
<path d="M21.0128 241.86L37.2395 135.381L17.0059 241.86H21.0128Z" fill="white" fill-opacity="0.04"/>
<path d="M55.0684 241.86L37.2383 135.381L60.978 241.86H55.0684Z" fill="black" fill-opacity="0.04"/>
<path d="M37.5385 233.577L31.6289 223.071M37.5385 244.59V233.577V244.59ZM37.5385 157.81V170.235V157.81ZM37.5385 202.866L31.6289 193.774L37.5385 202.866ZM37.5385 202.866V186.904V202.866ZM37.5385 202.866V220.242V202.866ZM37.5385 186.904L42.9478 179.933L37.5385 186.904ZM37.5385 186.904V170.235V186.904ZM37.5385 170.235L33.7321 165.184L37.5385 170.235ZM37.5385 220.242L46.2533 212.16L37.5385 220.242ZM37.5385 220.242V233.577V220.242Z" stroke="black" stroke-width="0.387748" stroke-linecap="round"/>
<path d="M88.1488 241.657L61.5254 122.746L38.9297 241.657H88.1488Z" fill="#0F4E5B"/>
<path d="M43.4064 241.657L61.5279 122.746L38.9316 241.657H43.4064Z" fill="white" fill-opacity="0.04"/>
<path d="M81.4388 241.657L61.5273 122.746L88.0387 241.657H81.4388Z" fill="black" fill-opacity="0.04"/>
<path d="M61.8615 232.405L55.2617 220.672M61.8615 244.928V232.405V244.928ZM61.8615 147.791V161.667V147.791ZM61.8615 198.108L55.2617 187.955L61.8615 198.108ZM61.8615 198.108V180.283V198.108ZM61.8615 198.108V217.513V198.108ZM61.8615 180.283L67.9022 172.498L61.8615 180.283ZM61.8615 180.283V161.667V180.283ZM61.8615 161.667L57.6109 156.027L61.8615 161.667ZM61.8615 217.513L71.5937 208.487L61.8615 217.513ZM61.8615 217.513V232.405V217.513Z" stroke="black" stroke-width="0.433018" stroke-linecap="round"/>
<path d="M74.9492 242.515L96.0059 148.468L113.877 242.515H74.9492Z" fill="#2A7E98"/>
<path d="M110.34 242.515L96.0078 148.467L113.879 242.515H110.34Z" fill="white" fill-opacity="0.04"/>
<path d="M80.2604 242.515L96.0086 148.467L75.041 242.515H80.2604Z" fill="black" fill-opacity="0.04"/>
<path d="M95.7403 235.198L100.96 225.919M95.7403 245.04V235.198V245.04ZM95.7403 168.276V179.252V168.276ZM95.7403 208.073L100.96 200.042L95.7403 208.073ZM95.7403 208.073V193.975V208.073ZM95.7403 208.073V223.42V208.073ZM95.7403 193.975L90.963 187.818L95.7403 193.975ZM95.7403 193.975V179.252V193.975ZM95.7403 179.252L99.1024 174.79L95.7403 179.252ZM95.7403 223.42L88.043 216.282L95.7403 223.42ZM95.7403 223.42V235.198V223.42Z" stroke="black" stroke-width="0.342478" stroke-linecap="round"/>
<path d="M52.8008 242.312L76.6402 135.833L96.8739 242.312H52.8008Z" fill="#1A6076"/>
<path d="M92.8659 242.312L76.6387 135.833L96.8723 242.312H92.8659Z" fill="white" fill-opacity="0.04"/>
<path d="M58.8105 242.312L76.6401 135.833L52.9004 242.312H58.8105Z" fill="black" fill-opacity="0.04"/>
<path d="M76.3398 234.029L82.2494 223.522M76.3398 245.041V234.029V245.041ZM76.3398 158.261V170.687V158.261ZM76.3398 203.317L82.2494 194.226L76.3398 203.317ZM76.3398 203.317V187.356V203.317ZM76.3398 203.317V220.694V203.317ZM76.3398 187.356L70.9305 180.385L76.3398 187.356ZM76.3398 187.356V170.687V187.356ZM76.3398 170.687L80.1462 165.635L76.3398 170.687ZM76.3398 220.694L67.625 212.612L76.3398 220.694ZM76.3398 220.694V234.029V220.694Z" stroke="black" stroke-width="0.387748" stroke-linecap="round"/>
<path d="M25.7305 242.108L52.3533 123.197L74.9495 242.108H25.7305Z" fill="#0F4E5B"/>
<path d="M70.4756 242.108L52.3535 123.197L74.9498 242.108H70.4756Z" fill="white" fill-opacity="0.04"/>
<path d="M32.4416 242.108L52.3531 123.197L25.8418 242.108H32.4416Z" fill="black" fill-opacity="0.04"/>
<path d="M52.0188 232.856L58.6186 221.123M52.0188 245.379V232.856V245.379ZM52.0188 148.242V162.119V148.242ZM52.0188 198.559L58.6186 188.406L52.0188 198.559ZM52.0188 198.559V180.734V198.559ZM52.0188 198.559V217.964V198.559ZM52.0188 180.734L45.9781 172.949L52.0188 180.734ZM52.0188 180.734V162.119V180.734ZM52.0188 162.119L56.2694 156.478L52.0188 162.119ZM52.0188 217.964L42.2871 208.939L52.0188 217.964ZM52.0188 217.964V232.856V217.964Z" stroke="black" stroke-width="0.433018" stroke-linecap="round"/>
<path d="M100.639 241.481L73.1149 118.545L49.7539 241.481H100.639Z" fill="#2A7E98"/>
<path d="M54.3774 241.479L73.113 118.543L49.752 241.479H54.3774Z" fill="white" fill-opacity="0.04"/>
<path d="M93.6982 241.479L73.1133 118.543L100.522 241.479H93.6982Z" fill="black" fill-opacity="0.04"/>
<path d="M73.4601 231.914L66.6367 219.784M73.4601 244.779V231.914V244.779ZM73.4601 144.437V158.783V144.437ZM73.4601 196.457L66.6367 185.959L73.4601 196.457ZM73.4601 196.457V178.028V196.457ZM73.4601 196.457V216.518V196.457ZM73.4601 178.028L79.7053 169.98L73.4601 178.028ZM73.4601 178.028V158.783V178.028ZM73.4601 158.783L69.0654 152.951L73.4601 158.783ZM73.4601 216.518L83.5217 207.187L73.4601 216.518ZM73.4601 216.518V231.914V216.518Z" stroke="black" stroke-width="0.447676" stroke-linecap="round"/>
<path d="M129.588 241.211L98.4257 102.025L71.9766 241.211H129.588Z" fill="#1A6076"/>
<path d="M77.2138 241.211L98.4257 102.025L71.9766 241.211H77.2138Z" fill="white" fill-opacity="0.04"/>
<path d="M121.732 241.211L98.4258 102.025L129.457 241.211H121.732Z" fill="black" fill-opacity="0.04"/>
<path d="M98.8191 230.384L91.0938 216.65M98.8191 244.78V230.384V244.78ZM98.8191 131.343V147.586V131.343ZM98.8191 190.239L91.0938 178.354L98.8191 190.239ZM98.8191 190.239V169.374V190.239ZM98.8191 190.239V212.953V190.239ZM98.8191 169.374L105.89 160.263L98.8191 169.374ZM98.8191 169.374V147.586V169.374ZM98.8191 147.586L93.8435 140.983L98.8191 147.586ZM98.8191 212.953L110.21 202.389L98.8191 212.953ZM98.8191 212.953V230.384V212.953Z" stroke="black" stroke-width="0.506851" stroke-linecap="round"/>
<path d="M164.976 240.946L130.175 85.5088L100.639 240.946H164.976Z" fill="#0F4E5B"/>
<path d="M106.488 240.945L130.176 85.5088L100.639 240.945H106.488Z" fill="white" fill-opacity="0.04"/>
<path d="M156.203 240.945L130.176 85.5088L164.83 240.945H156.203Z" fill="black" fill-opacity="0.04"/>
<path d="M130.611 228.854L121.984 213.517M130.611 245.223V228.854V245.223ZM130.611 118.249V136.388V118.249ZM130.611 184.022L121.984 170.749L130.611 184.022ZM130.611 184.022V160.721V184.022ZM130.611 184.022V209.387V184.022ZM130.611 160.721L138.507 150.546L130.611 160.721ZM130.611 160.721V136.388V160.721ZM130.611 136.388L125.055 129.015L130.611 136.388ZM130.611 209.387L143.332 197.59L130.611 209.387ZM130.611 209.387V228.854V209.387Z" stroke="black" stroke-width="0.566027" stroke-linecap="round"/>
<path d="M147.725 242.068L175.249 119.132L198.61 242.068H147.725Z" fill="#2A7E98"/>
<path d="M193.982 242.068L175.246 119.132L198.607 242.068H193.982Z" fill="white" fill-opacity="0.04"/>
<path d="M154.661 242.068L175.246 119.132L147.838 242.068H154.661Z" fill="black" fill-opacity="0.04"/>
<path d="M174.897 232.503L181.72 220.373M174.897 245.368V232.503V245.368ZM174.897 145.025V159.372V145.025ZM174.897 197.045L181.72 186.549L174.897 197.045ZM174.897 197.045V178.617V197.045ZM174.897 197.045V217.107V197.045ZM174.897 178.617L168.652 170.569L174.897 178.617ZM174.897 178.617V159.372V178.617ZM174.897 159.372L179.292 153.54L174.897 159.372ZM174.897 217.107L164.836 207.776L174.897 217.107ZM174.897 217.107V232.503V217.107Z" stroke="black" stroke-width="0.447676" stroke-linecap="round"/>
<path d="M118.771 241.802L149.934 102.616L176.383 241.802H118.771Z" fill="#1A6076"/>
<path d="M171.141 241.803L149.93 102.616L176.378 241.803H171.141Z" fill="white" fill-opacity="0.04"/>
<path d="M126.624 241.803L149.93 102.616L118.898 241.803H126.624Z" fill="black" fill-opacity="0.04"/>
<path d="M149.538 230.975L157.263 217.241M149.538 245.371V230.975V245.371ZM149.538 131.934V148.176V131.934ZM149.538 190.83L157.263 178.945L149.538 190.83ZM149.538 190.83V169.965V190.83ZM149.538 190.83V213.544V190.83ZM149.538 169.965L142.467 160.854L149.538 169.965ZM149.538 169.965V148.176V169.965ZM149.538 148.176L154.513 141.574L149.538 148.176ZM149.538 213.544L138.146 202.979L149.538 213.544ZM149.538 213.544V230.975V213.544Z" stroke="black" stroke-width="0.506851" stroke-linecap="round"/>
<path d="M83.3828 241.535L118.184 86.0986L147.72 241.535H83.3828Z" fill="#0F4E5B"/>
<path d="M141.873 241.535L118.186 86.0986L147.722 241.535H141.873Z" fill="white" fill-opacity="0.04"/>
<path d="M92.1561 241.535L118.184 86.0986L83.5293 241.535H92.1561Z" fill="black" fill-opacity="0.04"/>
<path d="M117.745 229.443L126.371 214.106M117.745 245.812V229.443V245.812ZM117.745 118.838V136.977V118.838ZM117.745 184.611L126.371 171.338L117.745 184.611ZM117.745 184.611V161.31V184.611ZM117.745 184.611V209.976V184.611ZM117.745 161.31L109.848 151.134L117.745 161.31ZM117.745 161.31V136.977V161.31ZM117.745 136.977L123.301 129.604L117.745 136.977ZM117.745 209.976L105.023 198.179L117.745 209.976ZM117.745 209.976V229.443V209.976Z" stroke="black" stroke-width="0.566027" stroke-linecap="round"/>
<path d="M328.107 210.239C328.107 207.995 327.745 205.773 327.043 203.7C326.341 201.628 325.313 199.744 324.016 198.158C322.719 196.572 321.179 195.313 319.485 194.454C317.79 193.596 315.974 193.154 314.14 193.154C312.306 193.154 310.49 193.596 308.795 194.454C307.101 195.313 305.561 196.572 304.264 198.158C302.967 199.744 301.939 201.628 301.237 203.7C300.535 205.773 300.174 207.995 300.174 210.239H314.14H328.107Z" fill="#419ACB"/>
<path d="M334.191 210.279C334.191 208.891 333.921 207.517 333.396 206.235C332.871 204.952 332.103 203.787 331.133 202.806C330.164 201.824 329.013 201.046 327.746 200.515C326.479 199.983 325.122 199.71 323.751 199.71C322.38 199.71 321.022 199.983 319.756 200.515C318.489 201.046 317.338 201.824 316.368 202.806C315.399 203.787 314.63 204.952 314.106 206.235C313.581 207.517 313.311 208.891 313.311 210.279H323.751H334.191Z" fill="#368FC0"/>
<path d="M314.14 210.359C314.14 208.971 313.87 207.597 313.346 206.314C312.821 205.032 312.052 203.867 311.082 202.885C310.113 201.904 308.962 201.125 307.695 200.594C306.429 200.063 305.071 199.79 303.7 199.79C302.329 199.79 300.971 200.063 299.704 200.594C298.438 201.125 297.287 201.904 296.318 202.885C295.348 203.867 294.579 205.032 294.054 206.314C293.53 207.597 293.26 208.971 293.26 210.359H303.7H314.14Z" fill="#3682AD"/>
<path d="M493.608 210.356C493.608 208.112 493.247 205.891 492.545 203.818C491.843 201.746 490.814 199.862 489.517 198.276C488.22 196.689 486.681 195.431 484.987 194.572C483.292 193.713 481.476 193.271 479.642 193.271C477.808 193.271 475.992 193.713 474.297 194.572C472.603 195.431 471.063 196.689 469.766 198.276C468.469 199.862 467.441 201.746 466.739 203.818C466.037 205.891 465.676 208.112 465.676 210.356H479.642H493.608Z" fill="#419ACB"/>
<path d="M499.693 210.397C499.693 209.009 499.423 207.635 498.898 206.353C498.374 205.07 497.605 203.905 496.635 202.923C495.666 201.942 494.515 201.164 493.248 200.633C491.981 200.102 490.624 199.828 489.253 199.828C487.882 199.828 486.524 200.102 485.258 200.633C483.991 201.164 482.84 201.942 481.87 202.923C480.901 203.905 480.132 205.07 479.608 206.353C479.083 207.635 478.812 209.009 478.812 210.397H489.253H499.693Z" fill="#368FC0"/>
<path d="M479.644 210.477C479.644 209.09 479.374 207.715 478.849 206.433C478.324 205.151 477.555 203.986 476.586 203.004C475.617 202.023 474.465 201.244 473.199 200.713C471.932 200.182 470.574 199.908 469.203 199.908C467.833 199.908 466.475 200.182 465.208 200.713C463.942 201.244 462.791 202.023 461.822 203.004C460.852 203.986 460.083 205.151 459.558 206.433C459.034 207.715 458.764 209.09 458.764 210.477H469.203H479.644Z" fill="#3682AD"/>
<path d="M414.052 210.356C414.052 208.112 413.69 205.891 412.988 203.818C412.287 201.746 411.258 199.862 409.961 198.276C408.664 196.689 407.125 195.431 405.43 194.572C403.736 193.713 401.919 193.271 400.085 193.271C398.251 193.271 396.435 193.713 394.741 194.572C393.046 195.431 391.507 196.689 390.21 198.276C388.913 199.862 387.884 201.746 387.183 203.818C386.481 205.891 386.119 208.112 386.119 210.356H400.085H414.052Z" fill="#3684B0"/>
<path d="M420.137 210.397C420.137 209.009 419.867 207.635 419.342 206.353C418.817 205.07 418.048 203.905 417.079 202.923C416.109 201.942 414.958 201.164 413.691 200.633C412.425 200.102 411.067 199.828 409.696 199.828C408.325 199.828 406.968 200.102 405.701 200.633C404.434 201.164 403.284 201.942 402.314 202.923C401.344 203.905 400.575 205.07 400.051 206.353C399.526 207.635 399.256 209.009 399.256 210.397H409.696H420.137Z" fill="#368FC0"/>
<path d="M400.083 210.477C400.083 209.09 399.813 207.715 399.289 206.433C398.764 205.151 397.995 203.986 397.026 203.004C396.056 202.023 394.905 201.244 393.639 200.713C392.372 200.182 391.014 199.908 389.644 199.908C388.273 199.908 386.915 200.182 385.648 200.713C384.382 201.244 383.231 202.023 382.261 203.004C381.292 203.986 380.523 205.151 379.998 206.433C379.473 207.715 379.203 209.09 379.203 210.477H389.644H400.083Z" fill="#327AA2"/>
<path d="M162.487 61.0566L68.5215 265.84C109.923 279.624 227.059 277.495 253.186 265.84L162.487 61.0566Z" fill="#6F186F"/>
<path d="M162.85 61.7891L82.3077 268.524L68.5215 265.597L162.85 61.7891Z" fill="black" fill-opacity="0.09"/>
<path d="M128.385 253.156L129.836 244.009H145.437L143.623 253.156H128.385Z" fill="black" fill-opacity="0.1"/>
<path d="M195.139 274.378C178.458 274.784 174.685 277.334 166.478 274.378L161.762 62.8867L195.139 274.378Z" fill="black" fill-opacity="0.03"/>
<path d="M108.068 272.183L162.488 63.6182" stroke="black" stroke-opacity="0.21" stroke-width="0.648316" stroke-linecap="round" stroke-dasharray="3.24 3.24"/>
<path d="M173.008 108.624L195.865 274.012C195.865 275.475 224.163 272.548 234.684 270.719L199.13 175.218L173.008 108.624Z" fill="black" fill-opacity="0.57"/>
<path d="M252.462 265.596L162.125 60.3242C174.823 118.137 234.685 270.718 234.685 270.718C234.685 270.718 249.923 267.791 252.462 265.596Z" fill="white" fill-opacity="0.07"/>
<path d="M297.016 259.18L278.434 291.977L281.627 294.906L300.5 262.401L297.016 259.18Z" fill="#5D626F"/>
<path d="M290.631 260.938L309.213 293.736L306.019 296.664L287.146 264.159L290.631 260.938Z" fill="#545967"/>
<path d="M293.823 259.18L313.276 291.392L310.082 294.32L291.209 261.815L293.823 259.18Z" fill="#474B55"/>
<path d="M299.34 267.38L284.822 291.685L288.016 294.614L301.662 269.43L299.34 267.38Z" fill="#3B3E43"/>
<path d="M292.371 279.093C286.758 278.801 276.344 276.107 279.595 267.673C282.686 259.658 280.078 255.24 278.149 253.815L277.854 253.617C277.95 253.675 278.048 253.741 278.149 253.815L283.951 257.717C285.209 254.105 285.112 248.695 285.112 244.831C285.112 241.024 287.145 236.241 288.016 234.289C289.371 237.218 288.596 239.853 289.468 244.831C290.532 243.66 291.21 246.296 294.403 243.953C295.732 242.978 290.919 248.346 294.403 250.981C297.017 252.543 298.038 248.204 300.792 250.981C303.405 253.617 301.663 243.563 302.824 242.196C304.276 246.588 306.889 255.608 305.727 256.545C304.566 257.482 306.986 259.864 308.34 260.937C309.696 261.231 306.737 257.717 310.373 257.717C312.115 257.717 310.857 251.86 312.115 250.981C315.503 261.718 316.296 282.373 292.371 279.093Z" fill="#FE9B7C"/>
<path d="M295.215 274.685C292.319 274.534 286.946 273.144 288.624 268.792C290.218 264.657 288.872 262.377 287.878 261.642L287.725 261.54C287.774 261.57 287.825 261.604 287.878 261.642L290.871 263.655C291.52 261.791 291.47 259.001 291.47 257.007C291.47 255.042 292.519 252.575 292.968 251.567C293.667 253.078 293.268 254.438 293.717 257.007C294.267 256.402 294.616 257.763 296.264 256.553C296.949 256.051 294.466 258.82 296.264 260.18C297.613 260.986 298.139 258.747 299.56 260.18C300.909 261.54 300.009 256.352 300.609 255.647C301.358 257.913 302.706 262.567 302.107 263.051C301.507 263.534 302.756 264.763 303.455 265.317C304.154 265.468 302.628 263.655 304.504 263.655C305.403 263.655 304.754 260.633 305.403 260.18C307.15 265.72 307.56 276.378 295.215 274.685Z" fill="#FECA7C"/>
</g>
</svg>
