<svg width="120" height="119" viewBox="0 0 120 119" fill="none" xmlns="http://www.w3.org/2000/svg">
<path d="M0 53.0887L43.1011 36L120 48.5317V89.1644L82.2151 110.43L3.60771 92.7722L0 53.0887Z" fill="#22A6B3"/>
<path d="M43.1014 37.3291L3.41797 53.2784L33.1724 58.936L43.1014 60.851V37.3291Z" fill="white" fill-opacity="0.06"/>
<path d="M3.98864 92.7721L0.191406 52.709L82.2165 68.4682V110.43L3.98864 92.7721Z" fill="black" fill-opacity="0.1"/>
<path d="M119.999 48.3418L82.5938 68.8481V110.24L119.999 89.1644V48.3418Z" fill="white" fill-opacity="0.06"/>
<path fill-rule="evenodd" clip-rule="evenodd" d="M55.7504 34.0564H59.8129C60.3491 34.0564 60.7879 33.6177 60.7879 33.0814V29.0189C60.7879 28.4827 60.3491 28.0439 59.8129 28.0439H55.7504C55.2141 28.0439 54.7754 28.4827 54.7754 29.0189V33.0814C54.7754 33.6177 55.2141 34.0564 55.7504 34.0564ZM58.8379 32.1064H56.7254V29.9939H58.8379V32.1064ZM55.7504 42.5063H59.8129C60.3491 42.5063 60.7879 42.0675 60.7879 41.5313V37.4688C60.7879 36.9325 60.3491 36.4938 59.8129 36.4938H55.7504C55.2141 36.4938 54.7754 36.9325 54.7754 37.4688V41.5313C54.7754 42.0675 55.2141 42.5063 55.7504 42.5063ZM58.8379 40.5563H56.7254V38.4438H58.8379V40.5563ZM59.8129 50.9566H55.7504C55.2141 50.9566 54.7754 50.5179 54.7754 49.9816V45.9191C54.7754 45.3829 55.2141 44.9441 55.7504 44.9441H59.8129C60.3491 44.9441 60.7879 45.3829 60.7879 45.9191V49.9816C60.7879 50.5179 60.3491 50.9566 59.8129 50.9566ZM56.7254 49.0066H58.8379V46.8941H56.7254V49.0066ZM64.2004 32.0252H75.2504C75.7866 32.0252 76.2254 31.5864 76.2254 31.0502C76.2254 30.5139 75.7866 30.0752 75.2504 30.0752H64.2004C63.6641 30.0752 63.2254 30.5139 63.2254 31.0502C63.2254 31.5864 63.6641 32.0252 64.2004 32.0252ZM64.2004 40.475H75.2504C75.7866 40.475 76.2254 40.0363 76.2254 39.5C76.2254 38.9638 75.7866 38.525 75.2504 38.525H64.2004C63.6641 38.525 63.2254 38.9638 63.2254 39.5C63.2254 40.0363 63.6641 40.475 64.2004 40.475ZM75.2504 48.9254H64.2004C63.6641 48.9254 63.2254 48.4866 63.2254 47.9504C63.2254 47.4141 63.6641 46.9754 64.2004 46.9754H75.2504C75.7866 46.9754 76.2254 47.4141 76.2254 47.9504C76.2254 48.4866 75.7866 48.9254 75.2504 48.9254Z" fill="#5436D6"/>
<path fill-rule="evenodd" clip-rule="evenodd" d="M80.775 55.75H50.225C49.6887 55.75 49.25 55.3112 49.25 54.775V24.225C49.25 23.6887 49.6887 23.25 50.225 23.25H80.775C81.3112 23.25 81.75 23.6887 81.75 24.225V54.775C81.75 55.3112 81.3112 55.75 80.775 55.75ZM51.2 53.8H79.8V25.2H51.2V53.8Z" fill="white"/>
<path fill-rule="evenodd" clip-rule="evenodd" d="M80.775 55.75H50.225C49.6887 55.75 49.25 55.3112 49.25 54.775V24.225C49.25 23.6887 49.6887 23.25 50.225 23.25H80.775C81.3112 23.25 81.75 23.6887 81.75 24.225V54.775C81.75 55.3112 81.3112 55.75 80.775 55.75ZM51.2 53.8H79.8V25.2H51.2V53.8Z" fill="#5436D6"/>
<line x1="103.5" y1="9" x2="103.5" y2="36" stroke="#5436D6"/>
<path d="M74.5 0V17" stroke="#5436D6"/>
<line x1="31.5" y1="27" x2="31.5" y2="54" stroke="#5436D6"/>
<line x1="38.5" x2="38.5" y2="12" stroke="#5436D6"/>
<line x1="95.5" y1="41" x2="95.5" y2="53" stroke="#5436D6"/>
</svg>
