<svg width="810" height="679" viewBox="0 0 810 679" fill="none" xmlns="http://www.w3.org/2000/svg">
<path d="M275.002 563.624C288.034 656.048 341.399 672.174 341.399 672.174C341.399 672.174 343.262 675.276 363.74 672.174C385.963 668.81 387.32 664.112 404.076 662.25C421.856 660.276 436.964 678.999 451.235 678.999C465.508 678.999 479.069 670.026 480.401 668.454C480.401 668.454 510.528 641.586 526.322 621.311C544.808 597.577 538.481 584.098 565.416 554.939C590.774 527.486 640.053 519.993 659.117 476.161C677.733 433.362 666.869 399.882 703.175 380.637C744.13 358.926 745.83 361.438 765.85 340.317C798.137 306.255 803.218 274.65 808.668 228.044C829.95 46.0066 580.851 191.396 341.399 25.2065C221.635 -57.9126 -5.52651 84.3321 0.102701 236.108C1.81963 282.423 54.8492 306.347 36.7146 349.002C15.6161 398.625 90.0937 410.719 137.241 424.057C170.131 433.362 149.267 496.124 180.68 525.785C209.534 553.029 269.463 524.337 275.002 563.624Z" fill="white" fill-opacity="0.64"/>
<path d="M360.533 544.642C388.828 559.529 383.079 630.242 376.666 663.738C310.888 705.918 277.371 583.721 273.657 558.908C269.943 534.097 214.396 548.322 187.402 526.652C155.644 501.16 176.529 449.369 150.169 426.786C132.793 411.898 19.2332 398.872 35.3675 362.895C51.5019 326.918 29.7824 289.08 16.1318 278.535C-31.0293 168.371 66.396 77.3524 121.003 47.7845C136.931 58.7434 185.286 86.2406 176.232 101.131C137.759 164.401 106.732 237.596 137.759 264.269C149.049 273.974 106.732 377.782 201.054 416.241C241.65 432.793 235.182 468.965 273.657 501.841C312.13 534.716 325.161 526.033 360.533 544.642Z" fill="#7E48F1" fill-opacity="0.08"/>
<path d="M420.724 460.281C514.098 460.281 472.953 494.772 451.233 568.834C429.514 642.895 436.962 679.001 451.233 679.001C465.505 679.001 479.066 670.027 480.399 668.455C480.399 668.455 510.527 641.587 526.318 621.313C544.806 597.581 538.479 584.1 565.412 554.941C590.771 527.488 640.049 519.995 659.114 476.163C677.73 433.364 666.867 399.884 703.174 380.639C744.129 358.928 745.827 361.439 765.848 340.319C798.135 306.258 803.217 274.652 808.664 228.045C829.948 46.0083 580.849 191.397 341.398 25.2081C320.299 74.8334 132.172 118.499 229.597 297.765C245.913 327.788 305.303 313.273 305.303 393.911C305.303 433.584 297.133 460.281 420.724 460.281Z" fill="#22A6B3"/>
<path d="M420.724 460.281C514.098 460.281 472.953 494.772 451.233 568.834C429.514 642.895 436.962 679.001 451.233 679.001C465.505 679.001 479.066 670.027 480.399 668.455C480.399 668.455 510.527 641.587 526.318 621.313C544.806 597.581 538.479 584.1 565.412 554.941C590.771 527.488 640.049 519.995 659.114 476.163C677.73 433.364 666.867 399.884 703.174 380.639C744.129 358.928 745.827 361.439 765.848 340.319C798.135 306.258 803.217 274.652 808.664 228.045C829.948 46.0083 580.849 191.397 341.398 25.2081C320.299 74.8334 132.172 118.499 229.597 297.765C245.913 327.788 305.303 313.273 305.303 393.911C305.303 433.584 297.133 460.281 420.724 460.281Z" fill="white" fill-opacity="0.15"/>
<path d="M498.623 408.987C558.838 408.987 532.305 431.23 518.298 478.99C504.293 526.75 509.094 550.033 518.298 550.033C527.502 550.033 536.246 544.246 537.106 543.232C537.106 543.232 556.534 525.905 566.718 512.832C578.64 497.526 574.56 488.835 591.929 470.031C608.282 452.327 640.061 447.496 652.354 419.229C664.359 391.628 657.354 370.039 680.766 357.629C707.177 343.627 708.273 345.247 721.184 331.627C742.004 309.662 733.063 285.078 748.795 259.226C858.21 79.4191 549.181 134.005 495.815 96.1678C467.444 76.0511 312.545 188.582 375.373 304.186C385.893 323.546 424.191 314.185 424.191 366.186C424.191 391.772 418.923 408.987 498.623 408.987Z" fill="white" fill-opacity="0.05"/>
<path d="M261.756 367.702C294.957 367.702 321.872 340.798 321.872 307.61C321.872 274.422 294.957 247.518 261.756 247.518C228.554 247.518 201.64 274.422 201.64 307.61C201.64 340.798 228.554 367.702 261.756 367.702Z" fill="#FA7AB7"/>
<path d="M261.757 367.702C294.957 367.702 321.873 340.799 321.873 307.61C321.873 274.421 294.957 247.518 261.757 247.518C261.757 247.518 222.882 277.861 222.882 313.619C222.88 348.072 261.757 367.702 261.757 367.702Z" fill="white" fill-opacity="0.16"/>
<path d="M278.193 364.499C301.838 361.294 322.278 333.936 322.278 307.466C322.278 280.997 303.441 259.939 283.403 251.525C283.403 251.525 243.325 283.739 243.325 312.259C243.325 339.737 278.193 364.499 278.193 364.499Z" fill="white" fill-opacity="0.16"/>
<path d="M207.65 336.855C194.29 344.466 183.362 354.018 186.809 361.693C195.626 381.323 354.759 294.297 346.317 276.363C343.111 269.552 325.343 273.158 315.859 276.363" stroke="#FDFEFF" stroke-width="4.01939" stroke-linecap="round"/>
<path d="M536.614 457.72C515.559 457.72 498.49 440.658 498.49 419.611C498.49 398.564 515.559 381.502 536.614 381.502C557.67 381.502 574.738 398.564 574.738 419.611C574.738 440.658 557.67 457.72 536.614 457.72Z" fill="#7AA6FA"/>
<path d="M536.61 457.722C515.554 457.722 498.486 440.66 498.486 419.614C498.486 398.566 515.554 381.505 536.61 381.505C536.61 381.505 561.263 400.747 561.264 423.424C561.264 445.274 536.61 457.722 536.61 457.722Z" fill="white" fill-opacity="0.16"/>
<path d="M526.195 455.689C511.199 453.658 498.237 436.307 498.237 419.521C498.237 402.735 510.183 389.38 522.89 384.044C522.89 384.044 548.306 404.473 548.306 422.56C548.306 439.987 526.195 455.689 526.195 455.689Z" fill="white" fill-opacity="0.16"/>
<path d="M570.931 438.157C579.404 442.984 586.334 449.042 584.147 453.909C578.557 466.357 477.638 411.167 482.993 399.795C485.025 395.475 496.294 397.761 502.308 399.795" stroke="#FDFEFF" stroke-width="2.549" stroke-linecap="round"/>
<path d="M293.338 187.377C293.732 186.181 295.424 186.181 295.817 187.377L297.799 193.399C297.917 193.758 298.187 194.05 298.537 194.196L304.302 196.594C305.372 197.04 305.372 198.556 304.302 199.002L298.537 201.4C298.187 201.546 297.917 201.837 297.799 202.197L295.817 208.219C295.424 209.415 293.732 209.415 293.338 208.219L291.357 202.197C291.24 201.837 290.97 201.546 290.619 201.4L284.856 199.002C283.785 198.556 283.785 197.04 284.856 196.594L290.619 194.196C290.97 194.05 291.24 193.758 291.357 193.399L293.338 187.377Z" fill="white"/>
<path d="M151.407 168.461C151.8 167.265 153.492 167.265 153.885 168.461L155.867 174.483C155.986 174.842 156.254 175.134 156.605 175.278L162.368 177.678C163.439 178.124 163.439 179.64 162.368 180.086L156.605 182.484C156.254 182.63 155.986 182.92 155.867 183.281L153.885 189.303C153.492 190.497 151.8 190.497 151.407 189.303L149.425 183.281C149.306 182.92 149.036 182.63 148.687 182.484L142.922 180.086C141.852 179.64 141.852 178.124 142.922 177.678L148.687 175.278C149.036 175.134 149.306 174.842 149.425 174.483L151.407 168.461Z" fill="white"/>
<path d="M145.102 348.167C145.496 346.971 147.188 346.971 147.581 348.167L149.563 354.189C149.681 354.548 149.951 354.838 150.301 354.984L156.064 357.384C157.136 357.828 157.136 359.346 156.064 359.792L150.301 362.19C149.951 362.336 149.681 362.626 149.563 362.985L147.581 369.008C147.188 370.203 145.496 370.203 145.102 369.009L143.121 362.985C143.002 362.626 142.732 362.336 142.383 362.19L136.62 359.792C135.547 359.346 135.547 357.828 136.62 357.384L142.383 354.984C142.732 354.838 143.002 354.548 143.121 354.189L145.102 348.167Z" fill="white"/>
<path d="M557.077 325.123C557.34 324.277 558.54 324.277 558.801 325.123L559.948 328.844C560.024 329.091 560.206 329.295 560.443 329.402L563.969 330.965C564.683 331.282 564.683 332.296 563.969 332.612L560.443 334.177C560.206 334.282 560.024 334.486 559.948 334.735L558.801 338.456C558.54 339.302 557.34 339.302 557.077 338.456L555.931 334.735C555.854 334.486 555.673 334.282 555.435 334.177L551.91 332.612C551.195 332.296 551.195 331.282 551.91 330.965L555.435 329.402C555.673 329.295 555.854 329.091 555.931 328.844L557.077 325.123Z" fill="white"/>
<path d="M497.152 466.997C497.413 466.151 498.613 466.151 498.874 466.997L500.023 470.718C500.099 470.967 500.279 471.171 500.518 471.276L504.044 472.841C504.758 473.157 504.758 474.171 504.044 474.488L500.518 476.051C500.279 476.158 500.099 476.362 500.023 476.609L498.874 480.33C498.613 481.176 497.413 481.176 497.152 480.33L496.004 476.609C495.927 476.362 495.747 476.158 495.508 476.051L491.983 474.488C491.27 474.171 491.27 473.157 491.983 472.841L495.508 471.276C495.747 471.171 495.927 470.967 496.004 470.718L497.152 466.997Z" fill="white"/>
</svg>
