<svg width="908" height="907" viewBox="0 0 908 907" fill="none" xmlns="http://www.w3.org/2000/svg">
<circle cx="453.91" cy="453.613" r="453.387" fill="#EA8500"/>
<circle cx="453.91" cy="453.613" r="453.387" fill="url(#paint0_linear)"/>
<g clip-path="url(#clip0)">
<path d="M557 642.833L642.834 556.999L248 162.166H162.167V247.999L557 642.833Z" fill="#CCD6DD"/>
<path d="M162.167 162.166V247.999L557 642.833L599.917 599.916L162.167 162.166Z" fill="#9AAAB4"/>
<path d="M696.789 729.16C710.196 742.567 742.572 710.208 729.165 696.784L640.139 591.586C626.749 578.179 608.604 574.557 599.677 583.484L583.489 599.655C574.545 608.599 578.167 626.709 591.592 640.117L696.789 729.16V729.16Z" fill="#642116"/>
<path d="M530.888 664.405C535.716 669.233 542.265 671.945 549.093 671.945C555.921 671.945 562.469 669.233 567.298 664.405L664.427 567.311C669.05 562.438 671.587 555.953 671.499 549.237C671.411 542.521 668.704 536.105 663.954 531.356C659.205 526.607 652.789 523.899 646.073 523.811C639.357 523.723 632.872 526.26 628 530.883L530.888 627.995C526.064 632.826 523.355 639.373 523.355 646.2C523.355 653.027 526.064 659.574 530.888 664.405V664.405Z" fill="#BF6952"/>
<path d="M682.624 755.464C687.453 760.291 694.002 763.003 700.83 763.003C707.658 763.003 714.206 760.291 719.035 755.464L755.445 719.053C760.276 714.225 762.991 707.675 762.992 700.845C762.994 694.015 760.282 687.465 755.454 682.634C750.626 677.803 744.076 675.089 737.246 675.087C730.416 675.085 723.865 677.797 719.035 682.625L682.624 719.053C677.797 723.882 675.085 730.43 675.085 737.258C675.085 744.086 677.797 750.635 682.624 755.464V755.464Z" fill="#BF6952"/>
<path d="M350.999 642.833L265.166 556.999L659.999 162.166H745.833V247.999L350.999 642.833Z" fill="#CCD6DD"/>
<path d="M350.998 642.833L745.831 247.999V162.166L308.081 599.916L350.998 642.833Z" fill="#9AAAB4"/>
<path d="M211.212 729.16C197.805 742.567 165.428 710.208 178.836 696.784L267.862 591.586C281.269 578.179 299.38 574.557 308.324 583.484L324.495 599.655C333.439 608.599 329.816 626.709 316.409 640.117L211.212 729.16V729.16Z" fill="#642116"/>
<path d="M377.112 664.405C372.283 669.233 365.735 671.945 358.907 671.945C352.079 671.945 345.53 669.233 340.702 664.405L243.59 567.311C238.967 562.438 236.43 555.953 236.518 549.237C236.606 542.521 239.313 536.105 244.063 531.356C248.812 526.607 255.228 523.899 261.944 523.811C268.66 523.723 275.145 526.26 280.017 530.883L377.129 627.995C381.946 632.83 384.649 639.378 384.646 646.204C384.642 653.029 381.933 659.574 377.112 664.405V664.405Z" fill="#BF6952"/>
<path d="M225.373 755.466C220.544 760.294 213.996 763.006 207.168 763.006C200.34 763.006 193.791 760.294 188.963 755.466L152.535 719.056C147.912 714.183 145.375 707.698 145.463 700.982C145.552 694.266 148.259 687.85 153.008 683.101C157.757 678.352 164.173 675.645 170.889 675.556C177.605 675.468 184.09 678.005 188.963 682.628L225.373 719.056C230.201 723.885 232.912 730.433 232.912 737.261C232.912 744.089 230.201 750.638 225.373 755.466V755.466Z" fill="#BF6952"/>
</g>
<defs>
<linearGradient id="paint0_linear" x1="453.91" y1="0.22583" x2="453.91" y2="907" gradientUnits="userSpaceOnUse">
<stop stop-color="white"/>
<stop offset="1" stop-color="white" stop-opacity="0"/>
</linearGradient>
<clipPath id="clip0">
<rect x="145" y="145" width="618" height="618" fill="white"/>
</clipPath>
</defs>
</svg>
