<svg width="1207" height="539" viewBox="0 0 1207 539" fill="none" xmlns="http://www.w3.org/2000/svg">
<path d="M746.797 509.787L1023.1 381.368L1206 400.825L1108.71 538.974L746.797 509.787Z" fill="black" fill-opacity="0.1"/>
<path fill-rule="evenodd" clip-rule="evenodd" d="M1036.06 1.0492V0H1036.06H281.04H281.031L101.505 92.2812H100.669L99.6148 93.961H96.4708V98.9662L0 252.514H96.4708V496.639L884.214 522.619V522.644L884.241 522.619L885.051 522.646V521.871L1036.06 382.545V379.191H1036.06V204.106L1106.99 148.528L1107.37 149.328L1174.48 95.6372L1037.74 0L1036.06 1.0492Z" fill="#58B3AE"/>
<path fill-rule="evenodd" clip-rule="evenodd" d="M173.956 292.305C169.966 292.305 166.732 295.539 166.732 299.529V399.952C166.732 403.822 169.781 407.004 173.646 407.171L276.485 411.583C280.592 411.759 284.02 408.477 284.02 404.366V299.529C284.02 295.539 280.785 292.305 276.796 292.305H173.956ZM414.507 339.255L796.778 350.309C799.487 350.388 801.738 348.238 801.785 345.529C801.831 342.862 799.724 340.654 797.058 340.577L414.789 329.521C412.08 329.444 409.827 331.593 409.781 334.304C409.734 336.97 411.841 339.178 414.507 339.255ZM414.586 365.713L685.11 373.656C688.126 373.744 690.632 371.327 690.686 368.311C690.737 365.345 688.394 362.866 685.428 362.777L414.906 354.837C411.89 354.747 409.382 357.163 409.33 360.18C409.278 363.146 411.62 365.625 414.586 365.713ZM617.219 396.12L413.873 390.391C411.065 390.312 408.843 387.987 408.891 385.177C408.942 382.315 411.324 380.048 414.186 380.141L617.503 386.749C618.597 386.785 619.644 387.202 620.463 387.93C623.737 390.835 621.593 396.244 617.219 396.12Z" fill="#4E3FCE"/>
<path fill-rule="evenodd" clip-rule="evenodd" d="M885.057 95.6372L1031.03 208.051L1106.99 148.53L1107.37 149.328L1174.48 95.6372L1037.74 0L885.057 95.6372ZM0 252.514L100.669 92.2812H173.655H885.057L817.105 252.514H230.702H0Z" fill="white" fill-opacity="0.21"/>
</svg>
