<svg width="907" height="907" viewBox="0 0 907 907" fill="none" xmlns="http://www.w3.org/2000/svg">
<circle cx="453.387" cy="453.613" r="453.387" fill="#F7F7F7"/>
<path d="M382.559 597.901L312.09 519.783L670.511 194.611L744.703 198.325L740.979 272.729L382.559 597.901Z" fill="#CCD6DD"/>
<path d="M382.103 597.878L740.979 272.729L744.704 198.325L346.819 558.816L382.103 597.878Z" fill="#9AAAB4"/>
<path d="M255.779 671.538C243.242 682.879 215.853 652.621 228.391 641.264L312.358 551.558C324.895 540.216 341.184 537.798 348.751 546.146L362.43 561.267C369.996 569.63 365.963 585.595 353.427 596.936L255.779 671.538V671.538Z" fill="#642116"/>
<path d="M406.789 620.828C402.266 624.882 396.301 626.988 390.208 626.683C384.114 626.378 378.39 623.686 374.294 619.201L291.926 528.988C288.016 524.472 286.039 518.623 286.415 512.687C286.791 506.751 289.491 501.197 293.94 497.209C298.389 493.221 304.235 491.113 310.232 491.335C316.23 491.557 321.905 494.091 326.049 498.397L408.416 588.626C412.501 593.118 414.623 599.03 414.318 605.066C414.013 611.102 411.306 616.77 406.789 620.828V620.828Z" fill="#BF6952"/>
<path d="M268.651 689.8C264.271 693.761 258.497 695.82 252.599 695.525C246.701 695.23 241.161 692.604 237.199 688.225L207.307 655.198C203.524 650.789 201.613 645.078 201.98 639.28C202.346 633.483 204.962 628.058 209.27 624.161C213.578 620.263 219.237 618.202 225.042 618.416C230.847 618.631 236.34 621.103 240.349 625.307L270.225 658.348C274.186 662.728 276.246 668.502 275.951 674.4C275.655 680.298 273.03 685.837 268.651 689.8V689.8Z" fill="#BF6952"/>
</svg>
