<svg width="18" height="18" viewBox="0 0 18 18" fill="none" xmlns="http://www.w3.org/2000/svg">
<path d="M8.6 17.2C3.86691 17.2 0 13.3486 0 8.6C0 3.85144 3.86691 0 8.6 0C13.3331 0 17.2 3.86691 17.2 8.6C17.2 13.3331 13.3486 17.2 8.6 17.2ZM8.6 0.773381C4.28453 0.773381 0.773381 4.28453 0.773381 8.6C0.773381 12.9155 4.28453 16.4266 8.6 16.4266C12.9155 16.4266 16.4266 12.9155 16.4266 8.6C16.4266 4.28453 12.9155 0.773381 8.6 0.773381Z" fill="#666666"/>
<path d="M14.477 9.17188H12.5281V8.04274H14.477C14.6472 8.04274 14.7864 7.90353 14.7864 7.73339C14.7864 7.56325 14.6472 7.42404 14.477 7.42404H12.5281V6.14023V5.98555C12.5281 5.70713 12.791 5.55246 13.3169 5.53699C13.3788 5.50605 13.4097 5.44418 13.4097 5.38231V5.10389C13.4097 5.02656 13.3324 4.94922 13.2551 4.94922H10.7648C10.6874 4.94922 10.5946 5.01109 10.5637 5.08843L8.8468 10.1618L8.72306 10.5485C8.69212 10.6258 8.64572 10.6258 8.63025 10.5485L8.50651 10.1618L6.77414 5.10389C6.7432 5.01109 6.6504 4.94922 6.57306 4.94922H3.94356C3.86622 4.94922 3.78889 5.02656 3.78889 5.10389V5.38231C3.78889 5.44418 3.81982 5.50605 3.88169 5.53699C4.40759 5.55246 4.67054 5.70713 4.67054 5.98555V6.14023V7.42404H2.73709C2.56694 7.42404 2.42773 7.56325 2.42773 7.73339C2.42773 7.90353 2.56694 8.04274 2.73709 8.04274H4.67054V9.17188H2.73709C2.56694 9.17188 2.42773 9.31109 2.42773 9.48123C2.42773 9.65138 2.56694 9.79058 2.73709 9.79058H4.67054V11.0899V11.2445C4.67054 11.523 4.40759 11.6776 3.88169 11.6931C3.81982 11.724 3.78889 11.7859 3.78889 11.8478V12.0953C3.78889 12.1726 3.86622 12.2499 3.94356 12.2499H6.20183C6.27917 12.2499 6.35651 12.1726 6.35651 12.0953V11.8478C6.35651 11.7859 6.32558 11.724 6.2637 11.6931C5.73781 11.6776 5.47486 11.523 5.47486 11.2445V11.0899V6.2485C5.47486 6.17116 5.49032 6.15569 5.52126 6.23303L6.99068 10.4402L7.57845 12.1107C7.60939 12.1881 7.70219 12.2499 7.77953 12.2499H8.75399C8.83133 12.2499 8.92414 12.1881 8.95507 12.1107L9.54284 10.4402L11.0123 6.23303C11.0432 6.15569 11.0587 6.15569 11.0587 6.2485V11.0899V11.2445C11.0587 11.523 10.7957 11.6776 10.2698 11.6931C10.2079 11.724 10.177 11.7859 10.177 11.8478V12.0953C10.177 12.1726 10.2544 12.2499 10.3317 12.2499H13.2551C13.3324 12.2499 13.4097 12.1726 13.4097 12.0953V11.8478C13.4097 11.7859 13.3788 11.724 13.3169 11.6931C12.791 11.6776 12.5281 11.523 12.5281 11.2445V11.0899V9.79058H14.477C14.6472 9.79058 14.7864 9.65138 14.7864 9.48123C14.7864 9.31109 14.6472 9.17188 14.477 9.17188Z" fill="#666666"/>
</svg>
