<svg width="908" height="907" viewBox="0 0 908 907" fill="none" xmlns="http://www.w3.org/2000/svg">
<circle cx="454.149" cy="453.387" r="453.387" fill="#C136E4"/>
<circle cx="454.149" cy="453.387" r="453.387" fill="url(#paint0_linear)"/>
<path d="M402.757 699.25L341.371 610.593L748.392 327.058L823.326 340.567L809.778 415.715L402.757 699.25Z" fill="#CCD6DD"/>
<path d="M402.296 699.167L809.778 415.715L823.326 340.567L371.553 654.829L402.296 699.167Z" fill="#9AAAB4"/>
<path d="M264.215 757.474C249.983 767.358 226.11 733.005 240.345 723.106L337.474 642.929C351.706 633.045 368.583 632.724 375.179 642.203L387.102 659.369C393.696 668.863 387.501 684.564 373.269 694.448L264.215 757.474V757.474Z" fill="#642116"/>
<path d="M424.381 725.736C419.251 729.264 412.912 730.622 406.757 729.513C400.603 728.403 395.137 724.916 391.562 719.819L319.664 617.305C316.282 612.201 315.04 605.996 316.201 600.011C317.362 594.026 320.835 588.734 325.881 585.264C330.927 581.793 337.146 580.417 343.214 581.43C349.282 582.442 354.718 585.763 358.366 590.684L430.26 693.214C433.823 698.316 435.205 704.605 434.103 710.701C433.001 716.798 429.505 722.204 424.381 725.736V725.736Z" fill="#BF6952"/>
<path d="M274.905 777.728C269.933 781.18 263.793 782.516 257.836 781.442C251.879 780.368 246.592 776.972 243.139 772.001L217.084 734.504C213.818 729.526 212.624 723.469 213.757 717.624C214.891 711.778 218.262 706.607 223.152 703.21C228.043 699.814 234.066 698.461 239.939 699.44C245.813 700.419 251.071 703.653 254.595 708.453L280.632 745.961C284.084 750.933 285.42 757.073 284.346 763.03C283.272 768.987 279.876 774.274 274.905 777.728V777.728Z" fill="#BF6952"/>
<path d="M330.757 494.25L269.371 405.593L676.392 122.058L751.326 135.567L737.778 210.715L330.757 494.25Z" fill="#CCD6DD"/>
<path d="M330.296 494.167L737.778 210.715L751.326 135.567L299.553 449.829L330.296 494.167Z" fill="#9AAAB4"/>
<path d="M192.215 552.474C177.983 562.358 154.11 528.005 168.345 518.106L265.474 437.929C279.706 428.045 296.583 427.724 303.179 437.203L315.102 454.369C321.696 463.863 315.501 479.564 301.269 489.448L192.215 552.474V552.474Z" fill="#642116"/>
<path d="M352.381 520.736C347.251 524.264 340.912 525.622 334.757 524.513C328.603 523.403 323.137 519.916 319.562 514.819L247.664 412.305C244.282 407.201 243.04 400.996 244.201 395.011C245.362 389.026 248.835 383.734 253.881 380.264C258.927 376.793 265.146 375.417 271.214 376.43C277.282 377.442 282.718 380.763 286.366 385.684L358.26 488.214C361.823 493.316 363.205 499.605 362.103 505.701C361.001 511.798 357.505 517.204 352.381 520.736V520.736Z" fill="#BF6952"/>
<path d="M202.905 572.728C197.933 576.18 191.793 577.516 185.836 576.442C179.879 575.368 174.592 571.972 171.139 567.001L145.084 529.504C141.818 524.526 140.624 518.469 141.757 512.624C142.891 506.778 146.262 501.607 151.152 498.21C156.043 494.814 162.066 493.461 167.939 494.44C173.813 495.419 179.071 498.653 182.595 503.453L208.632 540.961C212.084 545.933 213.42 552.073 212.346 558.03C211.272 563.987 207.876 569.274 202.905 572.728V572.728Z" fill="#BF6952"/>
<defs>
<linearGradient id="paint0_linear" x1="454.149" y1="0" x2="454.149" y2="906.774" gradientUnits="userSpaceOnUse">
<stop stop-color="white" stop-opacity="0.64"/>
<stop offset="1" stop-color="white" stop-opacity="0"/>
</linearGradient>
</defs>
</svg>
