<svg width="61" height="71" viewBox="0 0 61 71" fill="none" xmlns="http://www.w3.org/2000/svg">
<path fill-rule="evenodd" clip-rule="evenodd" d="M9.01615 11.5626C8.30111 11.5626 7.59735 11.2332 7.14812 10.6118C6.40315 9.58229 6.63526 8.14479 7.66474 7.39986C12.3104 4.04193 17.3753 1.7846 22.7285 0.691522C23.9451 0.444425 25.1841 1.23804 25.4424 2.48464C25.697 3.72748 24.8962 4.94411 23.6496 5.19868C18.9439 6.16073 14.4704 8.15602 10.36 11.1283C9.95202 11.4241 9.48032 11.5626 9.01615 11.5626ZM58.2723 18.4006C57.5159 18.4006 56.7784 18.03 56.3368 17.3487C52.3275 11.1457 45.9224 7.22249 37.2974 5.69517C36.047 5.4743 35.2125 4.28014 35.4333 3.02978C35.6579 1.77946 36.8746 0.967139 38.0986 1.16555C48.0338 2.92873 55.4682 7.53322 60.2 14.8555C60.8889 15.9224 60.5818 17.3449 59.515 18.0337C59.1294 18.2845 58.6989 18.4006 58.2723 18.4006ZM23.4169 58.4819C27.0202 54.8402 31.0836 48.8602 32.1949 39.8906C32.3486 38.6256 31.4665 37.4756 30.1636 37.2836C28.8986 37.1689 27.7869 38.0502 27.6332 39.3152C26.8286 46.1386 24.0299 50.8923 21.3085 54.0352C19.6602 55.9902 18.0119 57.3323 16.9 58.0989C16.8617 58.1369 16.8617 58.1752 16.8617 58.2136C16.5552 59.4019 16.8235 60.5136 17.59 61.1656C17.6246 61.1886 17.6558 61.2116 17.6855 61.2335C17.7547 61.2845 17.8164 61.3301 17.8968 61.3569C18.4718 61.7019 19.2002 61.7786 19.9285 61.5486C20.925 60.8202 22.1517 59.8236 23.4169 58.5206V58.4819ZM31.2396 28.1729C30.1666 28.0579 29.0929 28.0962 28.02 28.2495C23.0366 29.0929 19.1265 33.1562 18.4749 38.2545C18.0914 41.5895 17.0182 44.1579 15.8299 46.0745C15.1783 47.1095 14.4881 47.9529 13.8365 48.6429C13.2997 49.2562 12.8014 49.7162 12.3798 50.0229C12.0731 51.2112 12.3414 52.3229 13.1082 52.9746C13.1425 52.9976 13.1734 53.0206 13.2029 53.0424C13.2723 53.0938 13.3341 53.1394 13.4149 53.1662C14.0281 53.5112 14.7948 53.5879 15.5615 53.3579L15.5621 53.3575C15.8302 53.1275 16.0985 52.8979 16.4047 52.6296V52.5912C17.3249 51.7095 18.3598 50.5596 19.3181 49.1029C21.0048 46.6112 22.4999 43.2379 23.0366 38.7529C23.42 35.7629 25.7966 33.3096 28.7866 32.8112C29.4383 32.6962 30.0896 32.6579 30.7033 32.7729C34.5366 33.1945 37.22 36.6446 36.7596 40.4012C35.61 49.7929 31.6616 56.3096 27.8283 60.5646C26.2563 62.3279 24.685 63.7079 23.3813 64.7429C23.075 65.9312 23.3429 67.0429 24.11 67.6945C24.1441 67.7176 24.1751 67.7405 24.2047 67.7624H24.205C24.274 67.8138 24.3358 67.8594 24.4166 67.8862C24.9916 68.2312 25.72 68.3079 26.4479 68.0779H26.4863H26.5633C27.5983 67.2345 28.7483 66.2379 29.9366 65.0495V65.0112C34.69 60.2579 39.9416 52.5145 41.3213 40.9762C42.0883 34.7279 37.6033 28.9779 31.2396 28.1729ZM47.3396 28.8245C47.2633 28.5562 47.1866 28.3262 47.0333 28.0962C47.0076 28.0199 46.9482 27.9433 46.8888 27.867C46.8589 27.8283 46.829 27.7899 46.8033 27.7512C43.545 23.1131 38.37 19.7778 32.275 19.0114C30.3583 18.8195 28.4029 18.8579 26.525 19.203C17.5166 20.698 10.4631 28.0196 9.35156 37.1045C9.27482 37.8712 9.12156 38.5612 8.92993 39.1745C8.54645 40.4012 8.00974 41.2829 7.58811 41.8579L7.24327 42.3179C7.08978 42.6629 6.9749 43.0462 6.9749 43.4679C6.9749 43.9279 7.12815 44.3879 7.35815 44.7329C7.4349 44.8862 7.5116 45.0012 7.62649 45.0779C8.04811 45.4995 8.58482 45.7679 9.23645 45.7679H9.35156C9.65827 45.7679 9.96478 45.6912 10.2332 45.5762C10.4247 45.4995 10.5782 45.3846 10.7315 45.2696C10.9231 45.0779 11.0766 44.8862 11.2299 44.6945C11.9582 43.7362 12.7633 42.3179 13.2997 40.4779C13.5681 39.6346 13.7981 38.7146 13.9132 37.6796C14.8332 30.6262 20.2764 24.8763 27.2916 23.7263C28.7483 23.4963 30.2433 23.4195 31.7766 23.6112C36.5683 24.1863 40.67 26.8313 43.2 30.5495C43.2766 30.7029 43.3533 30.8179 43.4679 30.8946C43.89 31.3162 44.4263 31.5845 45.0783 31.5845C46.3429 31.5845 47.3783 30.5496 47.3783 29.2845C47.3783 29.1312 47.3783 28.9779 47.3396 28.8245ZM52.8983 64.3937C56.1183 58.5674 58.5713 51.552 59.6066 43.157C61.5616 26.8654 49.755 11.9537 33.2716 9.88382C31.8533 9.73033 30.3966 9.65382 29.0166 9.73033C28.6329 9.73033 28.25 9.73033 27.8666 9.7687H27.7516C27.6504 9.7687 27.56 9.7794 27.4745 9.78952C27.3978 9.79853 27.3254 9.80707 27.2533 9.80707C26.2179 10.0371 25.4896 10.9954 25.4896 12.0689C25.4896 12.5288 25.6433 12.9888 25.8733 13.3337C25.95 13.4872 26.0266 13.602 26.1416 13.6788C26.5633 14.1004 27.1 14.3688 27.7516 14.3688H27.8283C28.3646 14.3304 28.9016 14.292 29.4383 14.292H29.4766C30.5883 14.2537 31.6616 14.3304 32.7733 14.4455C46.7266 16.1703 56.6933 28.8203 55.045 42.582C54.0866 50.287 51.825 56.7653 48.95 62.0937C47.9916 63.9337 46.9183 65.6587 45.845 67.2303C45.9216 67.882 46.19 68.4187 46.65 68.802C46.6845 68.825 46.7155 68.848 46.7454 68.8702C46.8144 68.9212 46.8761 68.9668 46.9566 68.9937C47.5313 69.3391 48.2596 69.4153 48.9879 69.1853H49.0266H49.1033C49.1416 69.1662 49.1896 69.147 49.2375 69.1278C49.2854 69.1087 49.3333 69.0895 49.3716 69.0703C49.699 68.9611 49.9574 68.8173 50.2782 68.6391L50.33 68.6103C50.5853 68.2699 50.8291 67.8935 51.0871 67.4952C51.2937 67.1763 51.5095 66.8428 51.7483 66.502C52.17 65.812 52.5533 65.122 52.8983 64.3937ZM21.3115 14.2578C21.3115 15.178 20.7364 15.9829 19.9699 16.3664C19.7401 16.4582 19.5241 16.5639 19.3136 16.6668L19.3136 16.6669L19.3135 16.6669C19.1729 16.7357 19.0347 16.8033 18.8965 16.8647C12.1114 20.1613 6.9749 26.4862 5.24986 33.9995C5.22425 34.1529 5.16468 34.2721 5.10507 34.3913C5.07525 34.4511 5.04543 34.5109 5.01986 34.5745C4.8666 34.7662 4.71311 34.9579 4.52152 35.1495C4.36827 35.2645 4.21478 35.3796 4.02315 35.4562C3.71641 35.5712 3.40993 35.6479 3.10319 35.6479H2.98808C2.33649 35.6479 1.79974 35.3795 1.37815 34.9579C1.26327 34.8812 1.18652 34.7662 1.10978 34.6129C0.87978 34.2679 0.726562 33.8079 0.726562 33.3095C0.726562 33.2712 0.726563 33.1945 0.764897 33.1562L0.765739 33.1508C0.803843 32.8844 0.841946 32.6176 0.918153 32.3129C0.937358 32.2937 0.946941 32.265 0.956524 32.2362C0.966146 32.2075 0.97573 32.1787 0.994896 32.1595C3.14156 23.7263 8.96808 16.6347 16.6731 12.8395C16.8779 12.7258 17.0962 12.6256 17.32 12.5228L17.32 12.5228H17.3201C17.4733 12.4525 17.6291 12.3809 17.7849 12.303C18.0149 12.1495 18.2449 12.073 18.5133 11.9963C18.5856 11.9963 18.6579 11.9877 18.7343 11.9787C18.8198 11.9686 18.9103 11.9579 19.0116 11.9579H19.1265C19.9316 11.9963 20.5832 12.4563 20.9664 13.0695C21.1199 13.2995 21.1964 13.5297 21.2732 13.7978C21.3115 13.9513 21.3115 14.1046 21.3115 14.2578ZM50.4262 42.4291C50.4569 42.3114 50.4833 42.2105 50.4833 42.0837C50.5983 41.0487 50.5983 39.6687 50.56 38.4037C50.56 38.2503 50.56 38.097 50.5216 37.9437C50.2916 36.9087 49.3716 36.1037 48.2596 36.1037C46.995 36.1037 45.9983 37.1387 45.9983 38.4037C46.0366 39.362 46.0366 40.3203 45.9216 41.2787V41.5087C44.7333 50.9387 41.245 58.107 37.335 63.397C36.185 64.9687 34.9966 66.387 33.77 67.6137C33.54 68.7253 33.8083 69.722 34.5366 70.3353C34.5708 70.3583 34.6018 70.3809 34.6309 70.4028C34.7007 70.4545 34.7624 70.5002 34.8429 70.527C35.4183 70.872 36.1466 70.9487 36.875 70.7187H36.9133H36.9896C37.0279 70.6995 37.0758 70.6807 37.1234 70.6615C37.1717 70.642 37.2196 70.6228 37.2579 70.6037C38.4083 69.377 39.5966 68.0353 40.7466 66.502V66.464C45.1166 60.714 49.065 52.8553 50.4063 42.5057C50.4132 42.4793 50.4197 42.454 50.4262 42.4291Z" fill="#9013FE"/>
</svg>
