<svg width="237" height="259" viewBox="0 0 237 259" fill="none" xmlns="http://www.w3.org/2000/svg">
<path fill-rule="evenodd" clip-rule="evenodd" d="M86.1566 97.588C86.1566 96.0477 87.4052 94.7998 88.9448 94.7998C90.4851 94.7998 91.733 96.0477 91.733 97.588V133.835C91.733 135.375 90.4851 136.623 88.9448 136.623C87.4052 136.623 86.1566 135.375 86.1566 133.835V97.588ZM49.9093 117.105C48.3697 117.105 47.1211 118.354 47.1211 119.894V142.2C47.1211 143.739 48.3697 144.988 49.9093 144.988C51.4497 144.988 52.6975 143.739 52.6975 142.2V119.894C52.6975 118.354 51.4497 117.105 49.9093 117.105ZM69.4274 117.105C67.8871 117.105 66.6392 118.354 66.6392 119.894V156.141C66.6392 157.68 67.8871 158.929 69.4274 158.929C70.967 158.929 72.2156 157.68 72.2156 156.141V119.894C72.2156 118.354 70.967 117.105 69.4274 117.105ZM108.463 117.105C106.923 117.105 105.674 118.354 105.674 119.894V147.776C105.674 149.316 106.923 150.564 108.463 150.564C110.002 150.564 111.251 149.316 111.251 147.776V119.894C111.251 118.354 110.002 117.105 108.463 117.105ZM105.674 158.929C105.674 157.389 106.923 156.141 108.463 156.141C110.002 156.141 111.251 157.389 111.251 158.929V186.811C111.251 188.351 110.002 189.599 108.463 189.599C106.923 189.599 105.674 188.351 105.674 186.811V158.929ZM108.463 195.176C106.923 195.176 105.674 196.424 105.674 197.965V225.846C105.674 227.387 106.923 228.635 108.463 228.635C110.002 228.635 111.251 227.387 111.251 225.846V197.965C111.251 196.424 110.002 195.176 108.463 195.176ZM86.1566 144.988C86.1566 143.448 87.4052 142.2 88.9448 142.2C90.4851 142.2 91.733 143.448 91.733 144.988C91.733 146.528 90.4851 147.776 88.9448 147.776C87.4052 147.776 86.1566 146.528 86.1566 144.988ZM88.9448 153.353C87.4052 153.353 86.1566 154.601 86.1566 156.141V178.446C86.1566 179.987 87.4052 181.235 88.9448 181.235C90.4851 181.235 91.733 179.987 91.733 178.446V156.141C91.733 154.601 90.4851 153.353 88.9448 153.353ZM86.1566 189.599C86.1566 188.06 87.4052 186.811 88.9448 186.811C90.4851 186.811 91.733 188.06 91.733 189.599C91.733 191.14 90.4851 192.388 88.9448 192.388C87.4052 192.388 86.1566 191.14 86.1566 189.599ZM88.9448 197.965C87.4052 197.965 86.1566 199.212 86.1566 200.753V209.117C86.1566 210.657 87.4052 211.906 88.9448 211.906C90.4851 211.906 91.733 210.657 91.733 209.117V200.753C91.733 199.212 90.4851 197.965 88.9448 197.965ZM66.6392 167.294C66.6392 165.754 67.8871 164.505 69.4274 164.505C70.967 164.505 72.2156 165.754 72.2156 167.294V175.658C72.2156 177.199 70.967 178.446 69.4274 178.446C67.8871 178.446 66.6392 177.199 66.6392 175.658V167.294ZM69.4274 184.023C67.8871 184.023 66.6392 185.271 66.6392 186.811V195.176C66.6392 196.716 67.8871 197.965 69.4274 197.965C70.967 197.965 72.2156 196.716 72.2156 195.176V186.811C72.2156 185.271 70.967 184.023 69.4274 184.023ZM66.6392 206.329C66.6392 204.789 67.8871 203.541 69.4274 203.541C70.967 203.541 72.2156 204.789 72.2156 206.329V214.694C72.2156 216.233 70.967 217.482 69.4274 217.482C67.8871 217.482 66.6392 216.233 66.6392 214.694V206.329ZM49.9093 197.965C48.3697 197.965 47.1211 199.212 47.1211 200.753V221.943C47.1211 223.483 48.3697 224.732 49.9093 224.732C51.4497 224.732 52.6975 223.483 52.6975 221.943V200.753C52.6975 199.212 51.4497 197.965 49.9093 197.965ZM47.1211 153.353C47.1211 151.812 48.3697 150.564 49.9093 150.564C51.4497 150.564 52.6975 151.812 52.6975 153.353V189.599C52.6975 191.14 51.4497 192.388 49.9093 192.388C48.3697 192.388 47.1211 191.14 47.1211 189.599V153.353ZM127.98 117.105C126.44 117.105 125.192 118.354 125.192 119.894V142.2C125.192 143.739 126.44 144.988 127.98 144.988C129.52 144.988 130.769 143.739 130.769 142.2V119.894C130.769 118.354 129.52 117.105 127.98 117.105ZM144.709 119.894C144.709 118.354 145.958 117.105 147.498 117.105C149.038 117.105 150.286 118.354 150.286 119.894V156.141C150.286 157.68 149.038 158.929 147.498 158.929C145.958 158.929 144.709 157.68 144.709 156.141V119.894ZM167.016 94.7998C165.475 94.7998 164.228 96.0477 164.228 97.588V133.835C164.228 135.375 165.475 136.623 167.016 136.623C168.555 136.623 169.804 135.375 169.804 133.835V97.588C169.804 96.0477 168.555 94.7998 167.016 94.7998ZM183.745 119.894C183.745 118.354 184.994 117.105 186.533 117.105C188.073 117.105 189.321 118.354 189.321 119.894V147.776C189.321 149.316 188.073 150.564 186.533 150.564C184.994 150.564 183.745 149.316 183.745 147.776V119.894ZM186.533 156.141C184.994 156.141 183.745 157.389 183.745 158.929V186.811C183.745 188.351 184.994 189.599 186.533 189.599C188.073 189.599 189.321 188.351 189.321 186.811V158.929C189.321 157.389 188.073 156.141 186.533 156.141ZM183.745 197.965C183.745 196.424 184.994 195.176 186.533 195.176C188.073 195.176 189.321 196.424 189.321 197.965V225.846C189.321 227.387 188.073 228.635 186.533 228.635C184.994 228.635 183.745 227.387 183.745 225.846V197.965ZM167.016 142.2C165.475 142.2 164.228 143.448 164.228 144.988C164.228 146.528 165.475 147.776 167.016 147.776C168.555 147.776 169.804 146.528 169.804 144.988C169.804 143.448 168.555 142.2 167.016 142.2ZM164.228 156.141C164.228 154.601 165.475 153.353 167.016 153.353C168.555 153.353 169.804 154.601 169.804 156.141V178.446C169.804 179.987 168.555 181.235 167.016 181.235C165.475 181.235 164.228 179.987 164.228 178.446V156.141ZM167.016 186.811C165.475 186.811 164.228 188.06 164.228 189.599C164.228 191.14 165.475 192.388 167.016 192.388C168.555 192.388 169.804 191.14 169.804 189.599C169.804 188.06 168.555 186.811 167.016 186.811ZM164.228 200.753C164.228 199.212 165.475 197.965 167.016 197.965C168.555 197.965 169.804 199.212 169.804 200.753V209.117C169.804 210.657 168.555 211.906 167.016 211.906C165.475 211.906 164.228 210.657 164.228 209.117V200.753ZM147.498 164.505C145.958 164.505 144.709 165.754 144.709 167.294V175.658C144.709 177.199 145.958 178.446 147.498 178.446C149.038 178.446 150.286 177.199 150.286 175.658V167.294C150.286 165.754 149.038 164.505 147.498 164.505ZM144.709 186.811C144.709 185.271 145.958 184.023 147.498 184.023C149.038 184.023 150.286 185.271 150.286 186.811V195.176C150.286 196.716 149.038 197.965 147.498 197.965C145.958 197.965 144.709 196.716 144.709 195.176V186.811ZM147.498 203.541C145.958 203.541 144.709 204.789 144.709 206.329V214.694C144.709 216.233 145.958 217.482 147.498 217.482C149.038 217.482 150.286 216.233 150.286 214.694V206.329C150.286 204.789 149.038 203.541 147.498 203.541ZM125.192 200.753C125.192 199.212 126.44 197.965 127.98 197.965C129.52 197.965 130.769 199.212 130.769 200.753V221.943C130.769 223.483 129.52 224.732 127.98 224.732C126.44 224.732 125.192 223.483 125.192 221.943V200.753ZM127.98 150.564C126.44 150.564 125.192 151.812 125.192 153.353V189.599C125.192 191.14 126.44 192.388 127.98 192.388C129.52 192.388 130.769 191.14 130.769 189.599V153.353C130.769 151.812 129.52 150.564 127.98 150.564Z" fill="url(#paint0_linear)"/>
<path d="M90.507 0.0990167C34.8603 2.4097 36.5925 63.8376 36.5925 63.8376C36.5925 63.8376 0 60.5642 0 95.2256C0 129.888 34.427 125.266 34.427 125.266H209.595C209.595 125.266 240.558 116.408 236.661 88.8708C232.763 61.3348 198.552 63.8376 198.552 63.8376C198.552 63.8376 201.367 45.351 187.293 36.6861C173.219 28.0211 155.68 36.6861 155.68 36.6861C155.68 36.6861 146.153 -2.21166 90.507 0.0990167Z" fill="#3794C8"/>
<path d="M155 225C155 243.777 139.777 259 121 259C102.224 259 87 243.777 87 225C87 206.224 102.224 191 121 191C139.777 191 155 206.224 155 225Z" fill="#FFCC4D"/>
<path d="M108.722 228.778C111.33 228.778 113.444 225.818 113.444 222.167C113.444 218.516 111.33 215.556 108.722 215.556C106.114 215.556 104 218.516 104 222.167C104 225.818 106.114 228.778 108.722 228.778Z" fill="#664500"/>
<path d="M133.277 228.778C135.885 228.778 137.999 225.818 137.999 222.167C137.999 218.516 135.885 215.556 133.277 215.556C130.669 215.556 128.555 218.516 128.555 222.167C128.555 225.818 130.669 228.778 133.277 228.778Z" fill="#664500"/>
<path d="M131.358 243.66C131.338 243.577 129.196 235.389 120.998 235.389C112.8 235.389 110.658 243.577 110.637 243.66C110.59 243.856 110.608 244.061 110.686 244.246C110.765 244.431 110.902 244.586 111.075 244.688C111.251 244.79 111.455 244.834 111.657 244.814C111.859 244.793 112.05 244.71 112.201 244.574C112.218 244.561 114.115 242.944 120.998 242.944C127.779 242.944 129.719 244.512 129.792 244.574C129.938 244.715 130.126 244.804 130.327 244.829C130.528 244.854 130.731 244.813 130.907 244.712C131.087 244.61 131.229 244.452 131.31 244.262C131.392 244.072 131.409 243.861 131.358 243.66Z" fill="#664500"/>
<path d="M105.889 247.667C105.889 252.884 101.662 257.112 96.4444 257.112C91.2273 257.112 87 252.884 87 247.667C87 242.45 94.5556 228.778 96.4444 228.778C98.3333 228.778 105.889 242.45 105.889 247.667Z" fill="#5DADEC"/>
<path d="M143.668 215.555C133.177 215.555 128.93 207.306 128.755 206.955C128.53 206.508 128.491 205.989 128.649 205.513C128.806 205.037 129.146 204.644 129.593 204.418C130.041 204.193 130.56 204.155 131.036 204.312C131.511 204.47 131.905 204.809 132.13 205.257C132.272 205.533 135.57 211.777 143.668 211.777C144.168 211.777 144.649 211.976 145.003 212.331C145.357 212.685 145.556 213.165 145.556 213.666C145.556 214.167 145.357 214.648 145.003 215.002C144.649 215.356 144.168 215.555 143.668 215.555ZM98.3342 215.555C97.8332 215.555 97.3528 215.356 96.9986 215.002C96.6443 214.648 96.4453 214.167 96.4453 213.666C96.4453 213.165 96.6443 212.685 96.9986 212.331C97.3528 211.976 97.8332 211.777 98.3342 211.777C107.935 211.777 109.66 205.884 109.73 205.633C110.004 204.636 111.033 204.031 112.032 204.294C113.034 204.556 113.64 205.565 113.389 206.57C113.296 206.936 110.997 215.555 98.3342 215.555Z" fill="#664500"/>
<defs>
<linearGradient id="paint0_linear" x1="118.222" y1="94.7998" x2="118.222" y2="228.635" gradientUnits="userSpaceOnUse">
<stop stop-color="#1D85C1"/>
<stop offset="1" stop-color="#7CC2D5"/>
</linearGradient>
</defs>
</svg>
