<svg width="289" height="242" viewBox="0 0 289 242" fill="none" xmlns="http://www.w3.org/2000/svg">
<path d="M98.1054 200.84C102.754 233.812 121.792 239.565 121.792 239.565C121.792 239.565 122.457 240.672 129.762 239.565C137.69 238.365 138.174 236.689 144.151 236.025C150.494 235.321 155.884 242 160.975 242C166.067 242 170.905 238.799 171.38 238.238C171.38 238.238 182.128 228.653 187.762 221.42C194.357 212.953 192.1 208.145 201.709 197.742C210.755 187.949 228.335 185.276 235.136 169.639C241.777 154.37 237.901 142.427 250.853 135.561C265.464 127.816 266.07 128.712 273.212 121.177C284.73 109.026 286.543 97.751 288.487 81.1244C296.079 16.1838 207.215 68.0504 121.792 8.76345C79.067 -20.8888 -1.97155 29.8561 0.0366379 84.0012C0.64914 100.524 19.5671 109.058 13.0977 124.275C5.57094 141.978 32.1404 146.293 48.96 151.051C60.6932 154.37 53.2499 176.76 64.4565 187.342C74.7498 197.061 96.1293 186.825 98.1054 200.84Z" fill="white" fill-opacity="0.64"/>
<path d="M128.619 194.069C138.713 199.38 136.662 224.607 134.374 236.556C110.908 251.604 98.9513 208.01 97.6264 199.159C96.3015 190.307 76.4854 195.382 66.8554 187.651C55.526 178.557 62.9765 160.081 53.5728 152.025C47.374 146.714 6.86228 142.067 12.6181 129.232C18.3739 116.398 10.6256 102.899 5.75589 99.137C-11.0686 59.8368 23.6873 27.3665 43.1682 16.8184C48.8502 20.7279 66.1007 30.5373 62.8705 35.8492C49.1455 58.4205 38.0769 84.5323 49.1455 94.0478C53.1734 97.5102 38.0769 134.543 71.7258 148.263C86.208 154.168 83.9008 167.072 97.6264 178.8C111.351 190.528 116 187.431 128.619 194.069Z" fill="#7E48F1" fill-opacity="0.08"/>
<path d="M150.091 163.973C183.401 163.973 168.723 176.278 160.975 202.699C153.227 229.12 155.884 242 160.975 242C166.066 242 170.904 238.799 171.38 238.238C171.38 238.238 182.127 228.653 187.761 221.42C194.356 212.954 192.099 208.145 201.708 197.743C210.754 187.949 228.334 185.276 235.135 169.639C241.776 154.371 237.901 142.427 250.853 135.561C265.463 127.816 266.069 128.712 273.212 121.177C284.73 109.027 286.543 97.7512 288.486 81.1246C296.079 16.184 207.215 68.0506 121.792 8.76367C114.265 26.4672 47.1517 42.0447 81.9076 105.997C87.7282 116.707 108.915 111.529 108.915 140.296C108.915 154.449 106 163.973 150.091 163.973Z" fill="#22A6B3"/>
<path d="M150.091 163.973C183.401 163.973 168.723 176.278 160.975 202.699C153.227 229.12 155.884 242 160.975 242C166.066 242 170.904 238.799 171.38 238.238C171.38 238.238 182.127 228.653 187.761 221.42C194.356 212.954 192.099 208.145 201.708 197.743C210.754 187.949 228.334 185.276 235.135 169.639C241.776 154.371 237.901 142.427 250.853 135.561C265.463 127.816 266.069 128.712 273.212 121.177C284.73 109.027 286.543 97.7512 288.486 81.1246C296.079 16.184 207.215 68.0506 121.792 8.76367C114.265 26.4672 47.1517 42.0447 81.9076 105.997C87.7282 116.707 108.915 111.529 108.915 140.296C108.915 154.449 106 163.973 150.091 163.973Z" fill="white" fill-opacity="0.15"/>
<path d="M177.881 145.675C199.362 145.675 189.897 153.61 184.9 170.648C179.903 187.686 181.616 195.992 184.9 195.992C188.183 195.992 191.303 193.928 191.609 193.566C191.609 193.566 198.54 187.385 202.173 182.721C206.426 177.261 204.971 174.16 211.167 167.452C217.001 161.137 228.338 159.413 232.723 149.329C237.006 139.482 234.507 131.781 242.859 127.353C252.281 122.359 252.672 122.936 257.278 118.078C264.705 110.242 261.516 101.472 267.128 92.2489C306.161 28.1039 195.917 47.577 176.879 34.0788C166.758 26.9023 111.499 67.0471 133.912 108.288C137.665 115.195 151.328 111.855 151.328 130.406C151.328 139.534 149.448 145.675 177.881 145.675Z" fill="white" fill-opacity="0.05"/>
<path d="M93.3796 130.946C105.224 130.946 114.826 121.348 114.826 109.509C114.826 97.6692 105.224 88.0713 93.3796 88.0713C81.5353 88.0713 71.9336 97.6692 71.9336 109.509C71.9336 121.348 81.5353 130.946 93.3796 130.946Z" fill="#FA7AB7"/>
<path d="M93.3802 130.946C105.224 130.946 114.826 121.349 114.826 109.509C114.826 97.669 105.224 88.0713 93.3802 88.0713C93.3802 88.0713 79.5117 98.8959 79.5117 111.652C79.5111 123.944 93.3802 130.946 93.3802 130.946Z" fill="white" fill-opacity="0.16"/>
<path d="M99.2435 129.804C107.679 128.66 114.971 118.9 114.971 109.457C114.971 100.015 108.251 92.5024 101.102 89.501C101.102 89.501 86.8047 100.993 86.8047 111.167C86.8047 120.97 99.2435 129.804 99.2435 129.804Z" fill="white" fill-opacity="0.16"/>
<path d="M74.078 119.943C69.3117 122.658 65.4134 126.065 66.6432 128.803C69.7887 135.806 126.558 104.76 123.547 98.3623C122.403 95.9326 116.064 97.2189 112.681 98.3623" stroke="#FDFEFF" stroke-width="4.01939" stroke-linecap="round"/>
<path d="M191.433 163.059C183.921 163.059 177.832 156.973 177.832 149.464C177.832 141.956 183.921 135.869 191.433 135.869C198.944 135.869 205.033 141.956 205.033 149.464C205.033 156.973 198.944 163.059 191.433 163.059Z" fill="#7AA6FA"/>
<path d="M191.432 163.061C183.921 163.061 177.832 156.974 177.832 149.466C177.832 141.957 183.921 135.871 191.432 135.871C191.432 135.871 200.227 142.735 200.228 150.825C200.228 158.62 191.432 163.061 191.432 163.061Z" fill="white" fill-opacity="0.16"/>
<path d="M187.718 162.335C182.368 161.61 177.744 155.421 177.744 149.432C177.744 143.444 182.006 138.68 186.539 136.776C186.539 136.776 195.606 144.064 195.606 150.517C195.606 156.733 187.718 162.335 187.718 162.335Z" fill="white" fill-opacity="0.16"/>
<path d="M203.677 156.081C206.7 157.803 209.172 159.964 208.392 161.7C206.398 166.141 170.396 146.452 172.306 142.395C173.031 140.854 177.051 141.67 179.196 142.395" stroke="#FDFEFF" stroke-width="2.549" stroke-linecap="round"/>
<path d="M104.647 66.6168C104.787 66.1902 105.39 66.1902 105.531 66.6168L106.238 68.7651C106.28 68.8934 106.376 68.9975 106.501 69.0495L108.558 69.905C108.94 70.0641 108.94 70.6049 108.558 70.764L106.501 71.6195C106.376 71.6715 106.28 71.7756 106.238 71.9039L105.531 74.0522C105.39 74.4787 104.787 74.4787 104.647 74.0522L103.94 71.9039C103.898 71.7756 103.802 71.6715 103.676 71.6195L101.62 70.764C101.239 70.6049 101.239 70.0641 101.62 69.905L103.676 69.0495C103.802 68.9975 103.898 68.8934 103.94 68.7651L104.647 66.6168Z" fill="white"/>
<path d="M54.0144 59.8687C54.1548 59.4422 54.7583 59.4422 54.8987 59.8687L55.6056 62.0171C55.648 62.1453 55.7436 62.2494 55.8689 62.3008L57.9249 63.1569C58.3068 63.316 58.3068 63.8569 57.9249 64.016L55.8689 64.8715C55.7436 64.9235 55.648 65.027 55.6056 65.1558L54.8987 67.3042C54.7583 67.7301 54.1548 67.7301 54.0144 67.3042L53.3075 65.1558C53.2651 65.027 53.1689 64.9235 53.0442 64.8715L50.9876 64.016C50.6057 63.8569 50.6057 63.316 50.9876 63.1569L53.0442 62.3008C53.1689 62.2494 53.2651 62.1453 53.3075 62.0171L54.0144 59.8687Z" fill="white"/>
<path d="M51.7643 123.977C51.9047 123.551 52.5081 123.551 52.6485 123.977L53.3554 126.125C53.3978 126.254 53.494 126.357 53.6187 126.409L55.6747 127.265C56.0572 127.424 56.0572 127.965 55.6747 128.124L53.6187 128.98C53.494 129.032 53.3978 129.135 53.3554 129.264L52.6485 131.412C52.5081 131.839 51.9047 131.839 51.7643 131.413L51.0573 129.264C51.0149 129.135 50.9187 129.032 50.794 128.98L48.7381 128.124C48.3555 127.965 48.3555 127.424 48.7381 127.265L50.794 126.409C50.9187 126.357 51.0149 126.254 51.0573 126.125L51.7643 123.977Z" fill="white"/>
<path d="M198.734 115.757C198.828 115.455 199.256 115.455 199.349 115.757L199.758 117.084C199.785 117.172 199.85 117.245 199.935 117.283L201.192 117.841C201.447 117.954 201.447 118.316 201.192 118.428L199.935 118.987C199.85 119.024 199.785 119.097 199.758 119.186L199.349 120.513C199.256 120.815 198.828 120.815 198.734 120.513L198.325 119.186C198.297 119.097 198.233 119.024 198.148 118.987L196.89 118.428C196.636 118.316 196.636 117.954 196.89 117.841L198.148 117.283C198.233 117.245 198.297 117.172 198.325 117.084L198.734 115.757Z" fill="white"/>
<path d="M177.357 166.37C177.45 166.068 177.878 166.068 177.971 166.37L178.381 167.697C178.408 167.786 178.473 167.859 178.558 167.896L179.816 168.455C180.07 168.567 180.07 168.929 179.816 169.042L178.558 169.6C178.473 169.638 178.408 169.711 178.381 169.799L177.971 171.127C177.878 171.428 177.45 171.428 177.357 171.127L176.947 169.799C176.92 169.711 176.856 169.638 176.771 169.6L175.513 169.042C175.259 168.929 175.259 168.567 175.513 168.455L176.771 167.896C176.856 167.859 176.92 167.786 176.947 167.697L177.357 166.37Z" fill="white"/>
</svg>
