<?xml version="1.0" encoding="UTF-8"?>
<svg width="61px" height="61px" viewBox="0 0 61 61" version="1.1" xmlns="http://www.w3.org/2000/svg" xmlns:xlink="http://www.w3.org/1999/xlink">
    <g id="Page-1" stroke="none" stroke-width="1" fill="none" fill-rule="evenodd">
        <g id="Group">
            <circle id="Oval" fill="#1168DF" cx="30.5" cy="30.5" r="30.5"></circle>
            <path d="M18,12 L44.1245675,12 C46.8859912,12 49.1245675,14.2385762 49.1245675,17 L49.1245675,43 C49.1245675,45.7614237 46.8859912,48 44.1245675,48 L18,48 C15.2385762,48 13,45.7614237 13,43 L13,17 C13,14.2385762 15.2385762,12 18,12 Z" id="border" fill="#FFFFFF" fill-rule="nonzero"></path>
            <path d="M31.2413495,17.9571903 C30.1770397,17.9571903 29.1820358,18.104085 28.256308,18.3978789 C27.3305801,18.6916728 26.510187,19.1295853 25.7951038,19.7116298 C25.0800206,20.2936742 24.484127,21.019833 24.0074048,21.890128 C23.5306827,22.760423 23.2091773,23.7720565 23.0428789,24.9250588 L25.2047474,25.3075433 C25.4043055,25.3408029 25.5927742,25.3574325 25.7701592,25.3574325 C26.1471022,25.3574325 26.4519781,25.2659698 26.6847958,25.0830415 C26.9176136,24.9001133 27.1005391,24.598009 27.2335779,24.1767197 C27.4885687,23.3674008 27.9375677,22.7049887 28.5805882,22.1894637 C29.2236088,21.6739386 30.0329155,21.4161799 31.0085329,21.4161799 C32.0839293,21.4161799 32.9320384,21.7071978 33.5528858,22.2892422 C34.1737332,22.8712866 34.4841522,23.7332538 34.4841522,24.8751696 C34.4841522,25.4073245 34.4065475,25.8951258 34.2513356,26.3385882 C34.0961238,26.7820507 33.8217355,27.1617597 33.4281626,27.4777266 C33.0345897,27.7936936 32.5052144,28.0403659 31.8400208,28.2177509 C31.1748271,28.3951358 30.3378044,28.4893702 29.3289273,28.5004567 L29.3289273,31.4272941 C30.548449,31.4272941 31.5212801,31.5215285 32.2474498,31.71 C32.9736195,31.8984715 33.5307109,32.1590018 33.9187405,32.4915986 C34.3067701,32.8241954 34.5617572,33.2260772 34.6837093,33.6972561 C34.8056615,34.1684349 34.8666367,34.692267 34.8666367,35.2687682 C34.8666367,35.7233172 34.7807171,36.1750877 34.6088754,36.6240934 C34.4370337,37.0730991 34.1765035,37.4805241 33.8272768,37.8463806 C33.4780502,38.2122371 33.0429092,38.5087982 32.5218408,38.7360727 C32.0007725,38.9633472 31.3910208,39.0769827 30.6925675,39.0769827 C30.0717201,39.0769827 29.5368016,38.9855199 29.0877958,38.8025917 C28.6387901,38.6196634 28.2479947,38.381306 27.9153979,38.0875121 C27.5828011,37.7937183 27.2973265,37.4583548 27.0589654,37.0814118 C26.8206043,36.7044687 26.6016481,36.3219881 26.40209,35.9339585 C26.2801378,35.7011407 26.1055271,35.5237584 25.8782526,35.4018062 C25.6509781,35.2798541 25.3932194,35.2188789 25.1049689,35.2188789 C24.7834586,35.2188789 24.4674964,35.2853973 24.1570727,35.418436 L22.3444291,36.1667751 C22.6770259,37.1978252 23.0761361,38.1069096 23.5417716,38.8940554 C24.0074072,39.6812012 24.5728133,40.3463848 25.2380069,40.8896263 C25.9032006,41.4328678 26.6847914,41.8430644 27.5828028,42.1202284 C28.4808142,42.3973924 29.5340216,42.5359723 30.7424567,42.5359723 C31.8511128,42.5359723 32.9015487,42.3752196 33.8937958,42.0537093 C34.886043,41.7321991 35.7590966,41.2582557 36.5129827,40.6318651 C37.2668688,40.0054744 37.8655341,39.2321984 38.3089965,38.3120138 C38.752459,37.3918293 38.9741869,36.3330787 38.9741869,35.1357301 C38.9741869,33.7277369 38.6194222,32.5581223 37.9098824,31.6268512 C37.2003425,30.6955801 36.1249622,30.0026805 34.6837093,29.5481315 C35.2823836,29.3485734 35.8173021,29.0991295 36.288481,28.7997924 C36.7596598,28.5004553 37.15877,28.1346042 37.4858235,27.7022284 C37.8128771,27.2698525 38.0623209,26.76265 38.2341626,26.1806055 C38.4060043,25.5985611 38.4919239,24.9250626 38.4919239,24.16009 C38.4919239,23.2842517 38.3228564,22.4694017 37.9847163,21.7155156 C37.6465762,20.9616295 37.1615464,20.3047606 36.5296125,19.7448893 C35.8976785,19.185018 35.1354889,18.7471054 34.2430208,18.4311384 C33.3505526,18.1151714 32.3500055,17.9571903 31.2413495,17.9571903 Z" id="three" fill="#1168DF"></path>
        </g>
    </g>
</svg>