<svg width="15" height="20" viewBox="0 0 15 20" fill="none" xmlns="http://www.w3.org/2000/svg">
<path d="M0.536 19.8857C0.697765 19.9698 0.879391 20.0083 1.06138 19.997C1.24337 19.9858 1.41886 19.9251 1.569 19.8217L14.569 10.8217C14.7018 10.7296 14.8104 10.6068 14.8854 10.4636C14.9603 10.3205 14.9995 10.1613 14.9995 9.99966C14.9995 9.83806 14.9603 9.67886 14.8854 9.53571C14.8104 9.39255 14.7018 9.26969 14.569 9.17766L1.569 0.177663C1.41897 0.0738554 1.24341 0.0130678 1.06131 0.00188176C0.879219 -0.00930423 0.697533 0.0295378 0.53593 0.114202C0.374326 0.198866 0.238963 0.326126 0.144497 0.482203C0.0500308 0.638279 6.15833e-05 0.817225 1.35831e-08 0.999663V18.9997C-3.00674e-05 19.1822 0.0499031 19.3613 0.144387 19.5174C0.238871 19.6736 0.374302 19.801 0.536 19.8857Z" fill="#9013FE"/>
</svg>
