
<svg width="737" height="821" viewBox="0 0 737 821" fill="none" xmlns="http://www.w3.org/2000/svg">
<path d="M471.384 795.357C422.407 833.325 346.094 820.037 317.618 806.274C272.059 784.253 219.379 795.357 170.972 777.799C116.285 757.961 -50.6028 669.235 16.2565 629.728C78.9026 592.71 -7.47175 482.606 78.9026 465.521C150.018 451.455 68.936 395.282 92.6643 283.28C116.394 171.278 172.209 117.07 260.295 131.888C361.856 148.973 524.796 314.92 590.131 319.824C690.283 349.438 722.406 486.402 736.203 541.454C736.203 616.914 627.047 731.764 627.047 731.764C627.047 731.764 575.319 771.629 471.384 795.357Z" fill="#E785F7" fill-opacity="0.1"/>
<path d="M496.062 685.255C495.683 688.671 489.261 693.006 486.097 694.746C497.486 713.349 521.69 731.29 527.86 733.188C496.062 699.492 496.442 681.837 496.062 685.255Z" fill="black" fill-opacity="0.11"/>
<path fill-rule="evenodd" clip-rule="evenodd" d="M407.871 523.707C407.871 523.707 414.04 484.01 377.497 480.996C331.462 477.198 338.106 527.505 338.106 527.505L345.28 549.918L350.387 561.743C349.594 568.405 347.941 576.134 346.875 581.124C346.547 582.658 346.275 583.933 346.099 584.838C346.099 584.838 349.437 597.961 354.481 604.745C363.477 616.842 386.109 614.814 395.692 604.745C401.228 598.929 399.249 582.27 399.249 582.27C394.15 578.992 392.72 562.352 392.611 553.461C393.19 552.904 393.735 552.345 394.239 551.786C402.629 542.488 407.871 523.707 407.871 523.707ZM517.895 662.001L536.879 685.256C537.501 678.292 542.423 668.787 551.648 650.976C554.159 646.13 556.987 640.667 560.134 634.475L582.914 581.797L576.6 553.407C577.089 551.399 580.611 551.479 581.207 553.46C582.538 557.895 584.594 562.745 587.66 565.66C590.606 568.461 592.887 546.905 593.531 540.073C593.649 538.815 594.414 537.706 595.556 537.161C596.736 536.596 598.101 537.457 598.101 538.765V561.864L605.153 535.474C605.409 534.517 606.278 533.849 607.269 533.849C608.597 533.849 609.62 535.02 609.441 536.335L605.588 564.712L614.499 545.224C615.208 543.673 617.156 543.155 618.542 544.147C619.551 544.87 619.94 546.183 619.489 547.338L611.524 567.726L622.002 558.646L622.48 559.747C623.06 561.084 622.997 562.608 622.28 563.876C620.369 567.253 616.319 574.157 612.572 578.902C607.333 585.537 600.349 591.823 600.349 591.823C591.649 638.65 571.145 734.043 541.151 735.562C534.19 737.144 513.34 731.196 485.623 694.747C490.053 695.064 502.708 688.957 517.895 662.001ZM254.502 680.509C252.128 685.571 246.148 702.055 246.907 712.307C233.485 684.864 213.795 657.427 199.955 638.142C191.776 626.744 185.64 618.193 184.051 614.175C180.773 605.887 180.475 602.369 180.039 597.199C179.906 595.621 179.758 593.89 179.511 591.823C179.108 588.463 179.313 585.388 179.493 582.694C179.788 578.297 180.014 574.913 177.416 572.964C176.098 571.977 174.273 575.06 174.273 576.107C174.273 583.014 173.853 586.949 171.129 590.427C169.268 592.801 160.767 564.868 157.629 554.256C157.14 552.605 154.977 552.203 153.932 553.571L152.483 555.465C152.125 555.934 151.98 556.531 152.086 557.112L157.686 587.966L139.631 557.843C138.484 555.927 135.598 556.339 135.031 558.497C134.886 559.044 134.93 559.626 135.157 560.146L150.175 594.617L129.983 574.841C128.001 572.9 124.7 574.673 125.224 577.397C125.324 577.923 125.567 578.404 125.933 578.796C129.514 582.645 149.156 603.944 146.681 605.443C141.959 608.305 130.268 602.301 130.268 602.301C123.955 603.81 126.776 606.841 134.807 609.635C134.807 609.635 154.521 618.715 164.144 626.748C167.217 629.312 172.176 641.865 178.829 658.709C193.013 694.614 214.898 750.016 242.637 769.731C268.074 768.972 286.14 736.194 291.994 719.9L254.502 680.509Z" fill="#4E3FCE"/>
<path d="M576.598 553.406L582.912 581.795C584.649 585.137 590.567 591.822 600.347 591.822C600.347 591.822 607.331 585.535 612.57 578.9C616.315 574.155 620.366 567.251 622.277 563.874C622.995 562.605 623.057 561.082 622.477 559.746L621.999 558.644L611.522 567.724L619.487 547.336C619.938 546.181 619.548 544.867 618.54 544.146C617.154 543.153 615.206 543.671 614.497 545.222L605.586 564.71L609.438 536.333C609.617 535.018 608.594 533.847 607.267 533.847C606.275 533.847 605.407 534.515 605.151 535.472L598.099 561.862V538.763C598.099 537.456 596.733 536.595 595.554 537.158C594.412 537.704 593.646 538.813 593.527 540.071C592.885 546.904 590.604 568.459 587.656 565.658C584.592 562.744 582.535 557.893 581.204 553.458C580.608 551.477 577.086 551.396 576.598 553.406Z" fill="white" fill-opacity="0.04"/>
<path d="M134.805 609.634C134.805 609.634 147.905 615.087 157.685 622.073C157.685 622.073 166.952 622.561 173.03 620.433C180.015 617.989 182.211 606.662 182.211 606.662C177.933 595.844 180.57 600.665 179.509 591.823C178.447 582.98 181.604 576.107 177.414 572.963C176.096 571.976 174.271 575.059 174.271 576.107C174.271 583.014 173.851 586.949 171.127 590.425C169.266 592.8 160.765 564.868 157.627 554.256C157.138 552.604 154.975 552.202 153.93 553.57L152.481 555.464C152.123 555.932 151.978 556.53 152.084 557.11L157.685 587.964L139.629 557.842C138.482 555.927 135.596 556.337 135.029 558.496C134.884 559.044 134.928 559.625 135.156 560.145L150.173 594.616L129.981 574.841C127.999 572.899 124.698 574.672 125.222 577.396C125.322 577.923 125.565 578.403 125.93 578.795C129.512 582.644 149.154 603.944 146.679 605.442C141.957 608.304 130.266 602.3 130.266 602.3C123.953 603.809 126.772 606.84 134.805 609.634Z" fill="white" fill-opacity="0.14"/>
<path d="M246.905 721.324C252.98 721.324 258.612 704.08 261.144 692.849C259.246 688.893 255.069 681.269 253.55 682.408C252.032 683.546 248.803 702.974 246.905 712.307C234.092 687.153 218.905 664.373 205.616 644.916C222.323 680.984 227.922 687.629 246.905 721.324Z" fill="white" fill-opacity="0.06"/>
<path d="M377.497 480.996C414.038 484.01 407.869 523.707 407.869 523.707C407.869 523.707 402.628 542.488 394.238 551.786C387.969 558.734 375.38 565.742 372.189 567.459C371.698 567.724 371.145 567.834 370.588 567.79L354.176 566.503C353.071 566.417 352.105 565.725 351.665 564.708L345.279 549.918L338.106 527.505C338.106 527.505 331.461 477.198 377.497 480.996Z" fill="white" fill-opacity="0.05"/>
<path d="M387.382 584.167C386.573 572.892 392.13 563.444 392.604 554.743C392.604 568.981 396.876 579.422 399.248 582.269C399.627 592.14 394.502 600.304 391.654 602.676C388.617 603.056 387.901 591.386 387.382 584.167Z" fill="black" fill-opacity="0.07"/>
<path d="M293.89 605.115C272.941 625.042 250.703 676.237 250.703 676.237C255.639 692.942 281.551 712.938 293.89 720.847L310.976 676.237L320.468 807.223C346.57 826.206 439.113 824.782 469.961 797.731C469.961 797.731 457.622 666.271 463.793 676.237C469.528 685.502 484.674 694.745 484.674 694.745C496.063 698.543 514.414 676.079 520.269 663.898C493.691 594.135 431.995 579.263 399.248 582.743C392.898 623.255 352.735 611.032 346.57 582.743C346.57 582.743 314.245 585.756 293.89 605.115Z" fill="#E0AFFE"/>
<path d="M419.654 647.288C438.638 656.78 456.831 673.865 461.893 680.984C461.893 680.984 462.911 714.849 464.266 736.51C465.775 760.643 469.486 798.207 469.486 798.207C414.434 833.136 346.885 819.088 319.991 807.698C319.991 807.698 397.349 796.308 399.247 758.976C400.765 729.132 419.654 740.943 419.654 730.34C434.852 732.379 396.873 649.848 419.654 647.288Z" fill="white" fill-opacity="0.06"/>
<path d="M336.128 599.355C341.822 598.594 345.778 588.596 347.043 583.693C302.242 587.869 289.412 609.688 283.533 617.527C287.488 614.205 292.042 613.819 296.597 612.301C302.292 610.403 304.331 605.999 314.296 599.355C324.263 592.71 329.009 600.303 336.128 599.355Z" fill="white" fill-opacity="0.09"/>
<path d="M538.301 694.271C530.708 701.864 515.047 672.914 515.047 672.914L519.793 663.897L536.878 685.254C541.623 669.592 553.014 645.864 559.182 636.371L581.014 587.489C580.381 590.97 580.009 598.749 579.116 601.252C576.743 607.897 569.625 621.184 568.675 625.456C567.725 629.727 562.03 641.117 559.182 654.406C556.905 665.036 545.895 686.677 538.301 694.271Z" fill="white" fill-opacity="0.06"/>
<path d="M536.879 735.56C539.885 727.809 550.357 710.693 568.201 708.034C563.929 718.001 551.686 738.219 536.879 735.56Z" fill="black" fill-opacity="0.09"/>
<path d="M254.355 766.287C258.404 763.961 274.346 729.662 282.025 712.307L291.991 719.9C280.742 748.962 263.318 762.9 254.355 766.287C254.235 766.357 254.124 766.399 254.024 766.409C254.134 766.37 254.244 766.329 254.355 766.287Z" fill="black" fill-opacity="0.11"/>
<path d="M181.852 664.513C174.683 648.422 170.079 636.526 170.079 636.526C174.356 646.461 178.239 655.773 181.852 664.513C191.157 685.393 204.781 713.339 218.275 731.52C229.646 746.84 248.33 768.781 248.33 768.781L243.109 769.731C215.021 747.521 203.093 715.897 181.852 664.513Z" fill="black" fill-opacity="0.11"/>
<path d="M409.215 595.558C399.723 595.939 398.616 586.858 399.249 582.271C456.673 582.271 484.2 610.271 482.301 609.797C480.403 609.321 464.741 607.899 461.895 607.899C459.047 607.899 443.86 603.627 434.369 597.932C424.876 592.236 421.08 595.084 409.215 595.558Z" fill="white" fill-opacity="0.11"/>
<path d="M459.994 670.068C465.689 668.929 484.672 689.051 497.961 691.425C490.747 695.221 486.729 695.854 485.621 695.221C480.64 692.373 472.332 686.679 463.317 676.238C460.09 672.502 463.159 730.182 466.163 758.34C463.159 749.007 458.57 729.201 458.57 724.645C458.57 718.95 459.045 689.051 458.57 680.034C458.096 671.016 452.876 671.492 459.994 670.068Z" fill="#D685F6" fill-opacity="0.25"/>
<path d="M312.874 664.372C306.799 665.131 304.015 683.987 303.382 693.322L310.501 676.711L319.519 792.511C321.417 784.758 322.461 761.378 324.739 745.052C327.586 724.644 321.417 720.372 319.519 703.763C317.62 687.152 320.467 663.422 312.874 664.372Z" fill="#E965DE" fill-opacity="0.15"/>
<path d="M264.59 652.799C264.59 666.206 260.696 688.801 261.387 692.761C261.836 693.349 261.967 693.583 261.618 693.321C261.515 693.244 261.439 693.054 261.387 692.761C259.389 690.143 251.091 680.5 250.703 676.238C255.445 666.515 263.284 647.574 264.59 652.799Z" fill="#DC93F8" fill-opacity="0.54"/>
<path d="M347.162 534.291C324.381 547.2 317.104 523.85 316.314 510.563C315.663 499.647 323.337 478.101 338.144 481.137C352.952 484.175 376.269 479.873 386.077 477.341C431.258 471.646 435.276 495.218 431.638 507.715C424.48 549.811 394.74 544.907 377.497 532.251C367.245 524.658 350.8 530.495 347.162 534.291Z" fill="#6699FB"/>
<path d="M363.349 511.481C358.793 513.76 338.67 520.023 332.975 518.6C327.798 517.306 330.076 528.596 336.247 528.596C339.86 528.596 358.077 515.308 365.67 515.308C373.264 515.308 394.145 533.817 403.162 533.817C415.986 533.817 417.452 520.499 413.655 521.922C406.742 524.513 395.622 523.822 391.35 522.398C385.046 520.296 369.044 508.633 363.349 511.481Z" fill="white" fill-opacity="0.08"/>
<path d="M357.128 508.664C342.075 514.429 316.472 517.364 316.788 513.409C314.89 502.019 320.586 476.392 342.416 481.612C352.857 482.562 368.803 482.277 385.129 477.342C400.158 474.652 430.69 475.253 432.588 499.172C430.69 506.766 422.173 515.236 408.858 519.105C390.468 524.446 379.433 500.121 357.128 508.664Z" fill="#100E8E"/>
<path d="M422.146 521.003C428.79 517.206 429.739 508.189 432.111 504.392C432.111 516.162 424.48 529.403 420.21 534.149C419.26 527.98 420.168 522.133 422.146 521.003Z" fill="white" fill-opacity="0.08"/>
<path d="M368.042 518.156C365.669 516.258 352.856 522.426 345.737 527.173C338.618 531.919 357.27 523.449 364.72 523.85C372.693 524.279 390.822 535.241 384.178 530.021C377.535 524.799 374.586 523.391 368.042 518.156Z" fill="white" fill-opacity="0.08"/>
<path d="M347.586 503.591C350.725 503.796 354.057 501.538 355.029 498.547C356.001 495.556 354.244 492.964 351.106 492.758C347.967 492.552 344.635 494.811 343.663 497.802C342.691 500.793 344.447 503.385 347.586 503.591Z" fill="#45DDF2"/>
<path d="M388.373 503.308C391.496 503.677 394.489 501.469 395.058 498.376C395.627 495.283 393.556 492.475 390.433 492.106C387.309 491.736 384.316 493.944 383.747 497.037C383.178 500.131 385.249 502.938 388.373 503.308Z" fill="#45DDF2"/>
<path d="M266.916 431.638C276.882 502.351 317.697 514.69 317.697 514.69C317.697 514.69 319.121 517.063 334.782 514.69C351.778 512.116 352.816 508.522 365.63 507.098C379.229 505.586 390.782 519.911 401.699 519.911C412.614 519.911 422.984 513.046 424.003 511.842C424.003 511.842 447.044 491.286 459.123 475.774C473.261 457.616 468.424 447.303 489.022 424.994C508.415 403.989 546.104 398.257 560.685 364.721C574.922 331.975 566.613 306.36 594.379 291.636C625.702 275.025 627.002 276.945 642.313 260.788C667.005 234.727 670.892 210.546 675.059 174.887C691.336 35.6111 500.828 146.848 317.696 19.6978C226.102 -43.897 52.3709 64.9344 56.6742 181.056C57.9884 216.493 98.5445 234.797 84.6744 267.432C68.539 305.399 125.498 314.651 161.558 324.856C186.711 331.975 170.754 379.995 194.778 402.688C216.846 423.532 262.679 401.58 266.916 431.638Z" fill="#F8E71C" fill-opacity="0.75"/>
<path d="M332.33 417.114C353.971 428.504 349.574 482.606 344.669 508.234C294.364 540.506 268.728 447.012 265.888 428.029C263.049 409.045 220.566 419.929 199.921 403.351C175.632 383.846 191.605 344.221 171.446 326.943C158.157 315.552 71.3075 305.586 83.6466 278.06C95.9869 250.534 79.3759 221.585 68.9351 213.517C32.8665 129.23 107.377 59.5925 149.141 36.9707C161.322 45.355 198.303 66.3928 191.378 77.785C161.954 126.193 138.226 182.194 161.954 202.6C170.591 210.027 138.226 289.45 210.362 318.874C241.411 331.539 236.464 359.214 265.888 384.367C295.313 409.521 305.279 402.876 332.33 417.114Z" fill="#7E48F1" fill-opacity="0.08"/>
<path d="M378.366 352.57C449.778 352.57 418.31 378.958 401.699 435.622C385.09 492.287 390.784 519.91 401.699 519.91C412.616 519.91 422.986 513.045 424.005 511.842C424.005 511.842 447.046 491.286 459.125 475.773C473.263 457.616 468.424 447.303 489.023 424.993C508.417 403.989 546.104 398.257 560.685 364.721C574.924 331.975 566.615 306.36 594.381 291.635C625.704 275.024 627.004 276.945 642.315 260.787C667.007 234.727 670.894 210.545 675.061 174.887C691.338 35.6108 500.829 146.848 317.697 19.6973C301.562 57.6641 157.685 91.0733 232.194 228.229C244.673 251.2 290.093 240.092 290.093 301.789C290.093 332.145 283.844 352.57 378.366 352.57Z" fill="#36A5F5" fill-opacity="0.3"/>
<path d="M378.366 352.57C449.778 352.57 418.31 378.958 401.699 435.622C385.09 492.287 390.784 519.91 401.699 519.91C412.616 519.91 422.986 513.045 424.005 511.842C424.005 511.842 447.046 491.286 459.125 475.773C473.263 457.616 468.424 447.303 489.023 424.993C508.417 403.989 546.104 398.257 560.685 364.721C574.924 331.975 566.615 306.36 594.381 291.635C625.704 275.024 627.004 276.945 642.315 260.787C667.007 234.727 670.894 210.545 675.061 174.887C691.338 35.6108 500.829 146.848 317.697 19.6973C301.562 57.6641 157.685 91.0733 232.194 228.229C244.673 251.2 290.093 240.092 290.093 301.789C290.093 332.145 283.844 352.57 378.366 352.57Z" fill="#4E22C8" fill-opacity="0.11"/>
<path d="M437.938 313.326C483.989 313.326 463.697 330.343 452.985 366.885C442.273 403.425 445.947 421.239 452.985 421.239C460.024 421.239 466.712 416.812 467.369 416.036C467.369 416.036 482.228 402.78 490.017 392.776C499.134 381.067 496.013 374.416 509.297 360.03C521.804 346.485 546.107 342.788 555.51 321.162C564.691 300.045 559.334 283.527 577.239 274.032C597.439 263.319 598.276 264.558 608.15 254.138C624.074 237.332 617.236 218.524 629.267 198.744C712.947 61.175 476.604 102.938 435.791 73.9888C414.091 58.5976 295.627 144.695 343.676 233.143C351.723 247.956 381.013 240.793 381.013 280.58C381.013 300.155 376.984 313.326 437.938 313.326Z" fill="white" fill-opacity="0.05"/>
<path d="M256.782 281.741C282.174 281.741 302.758 261.156 302.758 235.764C302.758 210.372 282.174 189.788 256.782 189.788C231.39 189.788 210.806 210.372 210.806 235.764C210.806 261.156 231.39 281.741 256.782 281.741Z" fill="#FA7AB7"/>
<path d="M256.782 281.741C282.173 281.741 302.758 261.156 302.758 235.764C302.758 210.372 282.173 189.788 256.782 189.788C256.782 189.788 227.051 213.003 227.051 240.362C227.051 266.721 256.782 281.741 256.782 281.741Z" fill="white" fill-opacity="0.16"/>
<path d="M269.348 279.288C287.433 276.835 303.064 255.904 303.064 235.652C303.064 215.4 288.658 199.29 273.333 192.853C273.333 192.853 242.683 217.498 242.682 239.319C242.682 260.343 269.348 279.288 269.348 279.288Z" fill="white" fill-opacity="0.16"/>
<path d="M215.403 258.141C205.186 263.965 196.827 271.271 199.464 277.144C206.207 292.163 327.911 225.58 321.455 211.859C319.003 206.647 305.413 209.407 298.16 211.859" stroke="#FDFEFF" stroke-width="3.75391" stroke-linecap="round"/>
<path d="M466.996 350.611C450.893 350.611 437.839 337.557 437.839 321.454C437.839 305.351 450.893 292.297 466.996 292.297C483.099 292.297 496.153 305.351 496.153 321.454C496.153 337.557 483.099 350.611 466.996 350.611Z" fill="#7AA6FA"/>
<path d="M466.995 350.612C450.891 350.612 437.837 337.557 437.837 321.454C437.837 305.352 450.891 292.298 466.995 292.298C466.995 292.298 485.849 307.02 485.849 324.37C485.849 341.087 466.995 350.612 466.995 350.612Z" fill="white" fill-opacity="0.16"/>
<path d="M459.025 349.057C447.556 347.501 437.644 334.227 437.644 321.384C437.644 308.54 446.779 298.324 456.498 294.242C456.498 294.242 475.936 309.872 475.936 323.709C475.936 337.042 459.025 349.057 459.025 349.057Z" fill="white" fill-opacity="0.16"/>
<path d="M493.238 335.644C499.716 339.337 505.018 343.971 503.346 347.696C499.068 357.22 421.887 314.995 425.981 306.293C427.537 302.988 436.154 304.737 440.754 306.293" stroke="#FDFEFF" stroke-width="2.38064" stroke-linecap="round"/>
<path d="M509.688 276.455C509.886 275.867 510.717 275.867 510.916 276.455L512.001 279.674C512.061 279.853 512.197 279.997 512.371 280.067L515.467 281.325C516.007 281.544 516.007 282.307 515.467 282.526L512.371 283.783C512.197 283.855 512.061 283.998 512.001 284.177L510.916 287.396C510.717 287.984 509.886 287.984 509.688 287.396L508.602 284.177C508.542 283.998 508.406 283.855 508.232 283.783L505.136 282.526C504.597 282.307 504.597 281.544 505.136 281.325L508.232 280.067C508.406 279.997 508.542 279.853 508.602 279.674L509.688 276.455Z" fill="white"/>
<path d="M281.737 143.066C282.025 142.215 283.228 142.215 283.515 143.066L285.087 147.725C285.173 147.984 285.369 148.192 285.623 148.295L290.104 150.115C290.883 150.431 290.883 151.536 290.104 151.854L285.623 153.674C285.369 153.775 285.173 153.983 285.087 154.242L283.515 158.902C283.228 159.754 282.025 159.754 281.737 158.902L280.167 154.242C280.079 153.983 279.883 153.775 279.63 153.674L275.15 151.854C274.369 151.536 274.369 150.431 275.15 150.115L279.63 148.295C279.883 148.192 280.079 147.984 280.167 147.725L281.737 143.066Z" fill="white"/>
<path d="M173.531 128.829C173.819 127.977 175.022 127.977 175.309 128.829L176.881 133.489C176.967 133.747 177.163 133.955 177.416 134.058L181.896 135.877C182.677 136.194 182.677 137.299 181.896 137.616L177.416 139.435C177.163 139.539 176.967 139.746 176.881 140.005L175.309 144.665C175.022 145.515 173.819 145.515 173.531 144.665L171.96 140.005C171.873 139.746 171.677 139.539 171.424 139.435L166.944 137.616C166.163 137.299 166.163 136.194 166.944 135.877L171.424 134.058C171.677 133.955 171.873 133.747 171.96 133.489L173.531 128.829Z" fill="white"/>
<path d="M166.888 267.408C167.175 266.557 168.378 266.557 168.666 267.408L170.237 272.068C170.324 272.327 170.519 272.535 170.773 272.638L175.253 274.458C176.034 274.774 176.034 275.879 175.253 276.195L170.773 278.015C170.519 278.118 170.324 278.326 170.237 278.585L168.666 283.245C168.378 284.096 167.175 284.096 166.888 283.245L165.317 278.585C165.23 278.326 165.034 278.118 164.78 278.015L160.301 276.195C159.52 275.879 159.52 274.774 160.301 274.458L164.78 272.638C165.034 272.535 165.23 272.327 165.317 272.068L166.888 267.408Z" fill="white"/>
<path d="M482.16 248.559C482.359 247.971 483.191 247.971 483.389 248.559L484.475 251.78C484.535 251.957 484.67 252.101 484.845 252.173L487.941 253.43C488.479 253.649 488.479 254.412 487.941 254.631L484.845 255.888C484.67 255.959 484.535 256.102 484.475 256.281L483.389 259.5C483.191 260.088 482.359 260.088 482.16 259.5L481.076 256.281C481.016 256.102 480.88 255.959 480.705 255.888L477.61 254.631C477.07 254.412 477.07 253.649 477.61 253.43L480.705 252.173C480.88 252.101 481.016 251.957 481.076 251.78L482.16 248.559Z" fill="white"/>
<path d="M436.599 357.714C436.798 357.126 437.63 357.126 437.829 357.714L438.914 360.933C438.974 361.112 439.109 361.255 439.284 361.326L442.38 362.584C442.918 362.802 442.918 363.566 442.38 363.785L439.284 365.043C439.109 365.113 438.974 365.257 438.914 365.436L437.829 368.655C437.63 369.243 436.798 369.243 436.599 368.655L435.515 365.436C435.455 365.257 435.319 365.113 435.144 365.043L432.049 363.785C431.51 363.566 431.51 362.802 432.049 362.584L435.144 361.326C435.319 361.255 435.455 361.112 435.515 360.933L436.599 357.714Z" fill="white"/>
</svg>
