<svg width="645" height="471" viewBox="0 0 645 471" fill="none" xmlns="http://www.w3.org/2000/svg">
<g filter="url(#filter0_d)">
<rect x="17" y="9" width="611" height="437" fill="white"/>
<rect x="16.5" y="8.5" width="612" height="438" stroke="#D6D6D6"/>
</g>
<g filter="url(#filter1_d)">
<rect x="17" y="9" width="611" height="437" fill="white"/>
<rect x="16.5" y="8.5" width="612" height="438" stroke="#D6D6D6"/>
</g>
<rect width="3.0866" height="19.5407" transform="matrix(0.707104 -0.70711 0.707104 0.70711 584 38.1826)" fill="#CCCCCC"/>
<rect width="3.0866" height="19.5407" transform="matrix(-0.707104 -0.70711 -0.707104 0.70711 600 38.1826)" fill="#CCCCCC"/>
<path d="M209.547 255V239.304H214.851C215.667 239.304 216.427 239.384 217.131 239.544C217.835 239.704 218.443 239.968 218.955 240.336C219.467 240.688 219.867 241.16 220.155 241.752C220.459 242.344 220.611 243.08 220.611 243.96C220.611 245.16 220.323 246.128 219.747 246.864C219.187 247.6 218.435 248.128 217.491 248.448L221.235 255H218.115L214.731 248.856H212.331V255H209.547ZM212.331 246.648H214.563C215.635 246.648 216.451 246.424 217.011 245.976C217.587 245.528 217.875 244.856 217.875 243.96C217.875 243.048 217.587 242.416 217.011 242.064C216.451 241.712 215.635 241.536 214.563 241.536H212.331V246.648ZM228.315 255.288C227.499 255.288 226.739 255.152 226.035 254.88C225.331 254.592 224.715 254.184 224.187 253.656C223.659 253.128 223.243 252.488 222.939 251.736C222.651 250.968 222.507 250.096 222.507 249.12C222.507 248.16 222.659 247.296 222.963 246.528C223.267 245.76 223.667 245.112 224.163 244.584C224.675 244.056 225.259 243.648 225.915 243.36C226.571 243.072 227.243 242.928 227.931 242.928C228.731 242.928 229.435 243.064 230.043 243.336C230.651 243.608 231.155 243.992 231.555 244.488C231.971 244.984 232.283 245.576 232.491 246.264C232.699 246.952 232.803 247.704 232.803 248.52C232.803 248.792 232.787 249.048 232.755 249.288C232.739 249.528 232.715 249.72 232.683 249.864H225.195C225.323 250.92 225.691 251.736 226.299 252.312C226.923 252.872 227.715 253.152 228.675 253.152C229.187 253.152 229.659 253.08 230.091 252.936C230.539 252.776 230.979 252.56 231.411 252.288L232.347 254.016C231.787 254.384 231.163 254.688 230.475 254.928C229.787 255.168 229.067 255.288 228.315 255.288ZM225.171 247.992H230.403C230.403 247.08 230.203 246.368 229.803 245.856C229.419 245.328 228.819 245.064 228.003 245.064C227.299 245.064 226.683 245.312 226.155 245.808C225.627 246.304 225.299 247.032 225.171 247.992ZM240.36 255.288C239.56 255.288 238.808 255.152 238.104 254.88C237.416 254.608 236.816 254.208 236.304 253.68C235.792 253.152 235.392 252.504 235.104 251.736C234.816 250.968 234.672 250.096 234.672 249.12C234.672 248.144 234.832 247.272 235.152 246.504C235.472 245.736 235.904 245.088 236.448 244.56C236.992 244.032 237.616 243.632 238.32 243.36C239.04 243.072 239.792 242.928 240.576 242.928C241.344 242.928 242 243.056 242.544 243.312C243.104 243.568 243.6 243.88 244.032 244.248L242.688 246.048C242.368 245.776 242.048 245.568 241.728 245.424C241.424 245.264 241.088 245.184 240.72 245.184C239.76 245.184 238.984 245.544 238.392 246.264C237.8 246.968 237.504 247.92 237.504 249.12C237.504 250.304 237.792 251.256 238.368 251.976C238.96 252.68 239.72 253.032 240.648 253.032C241.112 253.032 241.544 252.936 241.944 252.744C242.36 252.536 242.736 252.296 243.072 252.024L244.2 253.848C243.64 254.328 243.024 254.688 242.352 254.928C241.696 255.168 241.032 255.288 240.36 255.288ZM250.764 255.288C250.028 255.288 249.324 255.152 248.652 254.88C247.98 254.608 247.38 254.208 246.852 253.68C246.34 253.152 245.932 252.504 245.628 251.736C245.324 250.968 245.172 250.096 245.172 249.12C245.172 248.144 245.324 247.272 245.628 246.504C245.932 245.736 246.34 245.088 246.852 244.56C247.38 244.032 247.98 243.632 248.652 243.36C249.324 243.072 250.028 242.928 250.764 242.928C251.5 242.928 252.204 243.072 252.876 243.36C253.564 243.632 254.164 244.032 254.676 244.56C255.188 245.088 255.596 245.736 255.9 246.504C256.22 247.272 256.38 248.144 256.38 249.12C256.38 250.096 256.22 250.968 255.9 251.736C255.596 252.504 255.188 253.152 254.676 253.68C254.164 254.208 253.564 254.608 252.876 254.88C252.204 255.152 251.5 255.288 250.764 255.288ZM250.764 253.032C251.628 253.032 252.308 252.68 252.804 251.976C253.3 251.256 253.548 250.304 253.548 249.12C253.548 247.92 253.3 246.968 252.804 246.264C252.308 245.544 251.628 245.184 250.764 245.184C249.9 245.184 249.22 245.544 248.724 246.264C248.244 246.968 248.004 247.92 248.004 249.12C248.004 250.304 248.244 251.256 248.724 251.976C249.22 252.68 249.9 253.032 250.764 253.032ZM259.111 255V243.216H261.391L261.583 244.8H261.679C262.207 244.288 262.775 243.848 263.383 243.48C264.007 243.112 264.727 242.928 265.543 242.928C266.807 242.928 267.727 243.336 268.303 244.152C268.879 244.952 269.167 246.104 269.167 247.608V255H266.407V247.968C266.407 246.992 266.263 246.304 265.975 245.904C265.687 245.504 265.215 245.304 264.559 245.304C264.047 245.304 263.591 245.432 263.191 245.688C262.807 245.928 262.367 246.288 261.871 246.768V255H259.111ZM272.541 255V243.216H274.821L275.013 244.8H275.109C275.637 244.288 276.205 243.848 276.813 243.48C277.437 243.112 278.157 242.928 278.973 242.928C280.237 242.928 281.157 243.336 281.733 244.152C282.309 244.952 282.597 246.104 282.597 247.608V255H279.837V247.968C279.837 246.992 279.693 246.304 279.405 245.904C279.117 245.504 278.645 245.304 277.989 245.304C277.477 245.304 277.021 245.432 276.621 245.688C276.237 245.928 275.797 246.288 275.301 246.768V255H272.541ZM291.011 255.288C290.195 255.288 289.435 255.152 288.731 254.88C288.027 254.592 287.411 254.184 286.883 253.656C286.355 253.128 285.939 252.488 285.635 251.736C285.347 250.968 285.203 250.096 285.203 249.12C285.203 248.16 285.355 247.296 285.659 246.528C285.963 245.76 286.363 245.112 286.859 244.584C287.371 244.056 287.955 243.648 288.611 243.36C289.267 243.072 289.939 242.928 290.627 242.928C291.427 242.928 292.131 243.064 292.739 243.336C293.347 243.608 293.851 243.992 294.251 244.488C294.667 244.984 294.979 245.576 295.187 246.264C295.395 246.952 295.499 247.704 295.499 248.52C295.499 248.792 295.483 249.048 295.451 249.288C295.435 249.528 295.411 249.72 295.379 249.864H287.891C288.019 250.92 288.387 251.736 288.995 252.312C289.619 252.872 290.411 253.152 291.371 253.152C291.883 253.152 292.355 253.08 292.787 252.936C293.235 252.776 293.675 252.56 294.107 252.288L295.043 254.016C294.483 254.384 293.859 254.688 293.171 254.928C292.483 255.168 291.763 255.288 291.011 255.288ZM287.867 247.992H293.099C293.099 247.08 292.899 246.368 292.499 245.856C292.115 245.328 291.515 245.064 290.699 245.064C289.995 245.064 289.379 245.312 288.851 245.808C288.323 246.304 287.995 247.032 287.867 247.992ZM303.055 255.288C302.255 255.288 301.503 255.152 300.799 254.88C300.111 254.608 299.511 254.208 298.999 253.68C298.487 253.152 298.087 252.504 297.799 251.736C297.511 250.968 297.367 250.096 297.367 249.12C297.367 248.144 297.527 247.272 297.847 246.504C298.167 245.736 298.599 245.088 299.143 244.56C299.687 244.032 300.311 243.632 301.015 243.36C301.735 243.072 302.487 242.928 303.271 242.928C304.039 242.928 304.695 243.056 305.239 243.312C305.799 243.568 306.295 243.88 306.727 244.248L305.383 246.048C305.063 245.776 304.743 245.568 304.423 245.424C304.119 245.264 303.783 245.184 303.415 245.184C302.455 245.184 301.679 245.544 301.087 246.264C300.495 246.968 300.199 247.92 300.199 249.12C300.199 250.304 300.487 251.256 301.063 251.976C301.655 252.68 302.415 253.032 303.343 253.032C303.807 253.032 304.239 252.936 304.639 252.744C305.055 252.536 305.431 252.296 305.767 252.024L306.895 253.848C306.335 254.328 305.719 254.688 305.047 254.928C304.391 255.168 303.727 255.288 303.055 255.288ZM313.138 255.288C312.45 255.288 311.866 255.184 311.386 254.976C310.922 254.768 310.538 254.48 310.234 254.112C309.946 253.728 309.73 253.28 309.586 252.768C309.458 252.24 309.394 251.656 309.394 251.016V245.4H307.714V243.336L309.538 243.216L309.874 240H312.178V243.216H315.178V245.4H312.178V251.016C312.178 252.392 312.73 253.08 313.834 253.08C314.042 253.08 314.25 253.056 314.458 253.008C314.682 252.96 314.882 252.896 315.058 252.816L315.538 254.856C315.218 254.968 314.85 255.064 314.434 255.144C314.034 255.24 313.602 255.288 313.138 255.288ZM323.255 259.848C322.935 259.848 322.655 259.824 322.415 259.776C322.175 259.744 321.943 259.688 321.719 259.608L322.223 257.448C322.335 257.48 322.463 257.512 322.607 257.544C322.767 257.592 322.919 257.616 323.063 257.616C323.687 257.616 324.183 257.424 324.551 257.04C324.935 256.672 325.223 256.192 325.415 255.6L325.631 254.856L320.999 243.216H323.807L325.847 249C326.023 249.512 326.191 250.056 326.351 250.632C326.527 251.192 326.703 251.752 326.879 252.312H326.975C327.119 251.768 327.263 251.216 327.407 250.656C327.567 250.08 327.719 249.528 327.863 249L329.639 243.216H332.303L328.031 255.528C327.791 256.2 327.527 256.8 327.239 257.328C326.951 257.856 326.615 258.304 326.231 258.672C325.863 259.056 325.431 259.344 324.935 259.536C324.455 259.744 323.895 259.848 323.255 259.848ZM339.029 255.288C338.293 255.288 337.589 255.152 336.917 254.88C336.245 254.608 335.645 254.208 335.117 253.68C334.605 253.152 334.197 252.504 333.893 251.736C333.589 250.968 333.437 250.096 333.437 249.12C333.437 248.144 333.589 247.272 333.893 246.504C334.197 245.736 334.605 245.088 335.117 244.56C335.645 244.032 336.245 243.632 336.917 243.36C337.589 243.072 338.293 242.928 339.029 242.928C339.765 242.928 340.469 243.072 341.141 243.36C341.829 243.632 342.429 244.032 342.941 244.56C343.453 245.088 343.861 245.736 344.165 246.504C344.485 247.272 344.645 248.144 344.645 249.12C344.645 250.096 344.485 250.968 344.165 251.736C343.861 252.504 343.453 253.152 342.941 253.68C342.429 254.208 341.829 254.608 341.141 254.88C340.469 255.152 339.765 255.288 339.029 255.288ZM339.029 253.032C339.893 253.032 340.573 252.68 341.069 251.976C341.565 251.256 341.813 250.304 341.813 249.12C341.813 247.92 341.565 246.968 341.069 246.264C340.573 245.544 339.893 245.184 339.029 245.184C338.165 245.184 337.485 245.544 336.989 246.264C336.509 246.968 336.269 247.92 336.269 249.12C336.269 250.304 336.509 251.256 336.989 251.976C337.485 252.68 338.165 253.032 339.029 253.032ZM350.881 255.288C349.617 255.288 348.697 254.888 348.121 254.088C347.545 253.272 347.257 252.112 347.257 250.608V243.216H350.017V250.248C350.017 251.224 350.161 251.912 350.449 252.312C350.737 252.712 351.201 252.912 351.841 252.912C352.353 252.912 352.801 252.784 353.185 252.528C353.585 252.272 354.009 251.856 354.457 251.28V243.216H357.217V255H354.961L354.745 253.272H354.673C354.161 253.88 353.601 254.368 352.993 254.736C352.401 255.104 351.697 255.288 350.881 255.288ZM360.713 255V243.216H362.993L363.185 245.304H363.281C363.697 244.536 364.201 243.952 364.793 243.552C365.385 243.136 365.993 242.928 366.617 242.928C367.177 242.928 367.625 243.008 367.961 243.168L367.481 245.568C367.273 245.504 367.081 245.456 366.905 245.424C366.729 245.392 366.513 245.376 366.257 245.376C365.793 245.376 365.305 245.56 364.793 245.928C364.281 246.28 363.841 246.904 363.473 247.8V255H360.713ZM376.415 255L373.295 243.216H376.079L377.495 249.336C377.623 249.896 377.727 250.456 377.807 251.016C377.903 251.576 378.007 252.144 378.119 252.72H378.215C378.327 252.144 378.439 251.576 378.551 251.016C378.679 250.456 378.815 249.896 378.959 249.336L380.495 243.216H383.015L384.575 249.336C384.719 249.896 384.855 250.456 384.983 251.016C385.111 251.576 385.239 252.144 385.367 252.72H385.463C385.575 252.144 385.679 251.576 385.775 251.016C385.871 250.456 385.975 249.896 386.087 249.336L387.503 243.216H390.095L387.095 255H383.807L382.439 249.504C382.311 248.944 382.191 248.392 382.079 247.848C381.967 247.288 381.847 246.696 381.719 246.072H381.623C381.511 246.696 381.399 247.288 381.287 247.848C381.175 248.408 381.055 248.968 380.927 249.528L379.583 255H376.415ZM395.046 255.288C394.006 255.288 393.166 254.976 392.526 254.352C391.886 253.712 391.566 252.872 391.566 251.832C391.566 251.208 391.694 250.656 391.95 250.176C392.222 249.68 392.638 249.256 393.198 248.904C393.774 248.552 394.494 248.256 395.358 248.016C396.238 247.776 397.286 247.592 398.502 247.464C398.486 247.16 398.438 246.872 398.358 246.6C398.294 246.312 398.174 246.064 397.998 245.856C397.838 245.632 397.622 245.464 397.35 245.352C397.078 245.224 396.742 245.16 396.342 245.16C395.766 245.16 395.198 245.272 394.638 245.496C394.094 245.72 393.558 245.992 393.03 246.312L392.021 244.464C392.678 244.048 393.414 243.688 394.23 243.384C395.046 243.08 395.926 242.928 396.87 242.928C398.342 242.928 399.438 243.368 400.158 244.248C400.894 245.112 401.262 246.368 401.262 248.016V255H398.982L398.79 253.704H398.694C398.166 254.152 397.598 254.528 396.99 254.832C396.398 255.136 395.75 255.288 395.046 255.288ZM395.934 253.128C396.414 253.128 396.846 253.016 397.23 252.792C397.63 252.568 398.054 252.248 398.502 251.832V249.192C397.702 249.288 397.03 249.416 396.486 249.576C395.942 249.736 395.502 249.92 395.166 250.128C394.83 250.32 394.59 250.544 394.446 250.8C394.302 251.056 394.23 251.328 394.23 251.616C394.23 252.144 394.39 252.528 394.71 252.768C395.03 253.008 395.438 253.128 395.934 253.128ZM407.253 255.288C406.261 255.288 405.565 254.992 405.165 254.4C404.765 253.808 404.565 253 404.565 251.976V238.056H407.325V252.12C407.325 252.456 407.389 252.696 407.517 252.84C407.645 252.968 407.781 253.032 407.925 253.032C407.989 253.032 408.045 253.032 408.093 253.032C408.157 253.032 408.245 253.016 408.357 252.984L408.717 255.048C408.349 255.208 407.861 255.288 407.253 255.288ZM413.768 255.288C412.776 255.288 412.08 254.992 411.68 254.4C411.28 253.808 411.08 253 411.08 251.976V238.056H413.84V252.12C413.84 252.456 413.904 252.696 414.032 252.84C414.16 252.968 414.296 253.032 414.44 253.032C414.504 253.032 414.56 253.032 414.608 253.032C414.672 253.032 414.76 253.016 414.872 252.984L415.232 255.048C414.864 255.208 414.376 255.288 413.768 255.288ZM422.636 255.288C421.82 255.288 421.06 255.152 420.356 254.88C419.652 254.592 419.036 254.184 418.508 253.656C417.98 253.128 417.564 252.488 417.26 251.736C416.972 250.968 416.828 250.096 416.828 249.12C416.828 248.16 416.98 247.296 417.284 246.528C417.588 245.76 417.988 245.112 418.484 244.584C418.996 244.056 419.58 243.648 420.236 243.36C420.892 243.072 421.564 242.928 422.252 242.928C423.052 242.928 423.756 243.064 424.364 243.336C424.972 243.608 425.476 243.992 425.876 244.488C426.292 244.984 426.604 245.576 426.812 246.264C427.02 246.952 427.124 247.704 427.124 248.52C427.124 248.792 427.108 249.048 427.076 249.288C427.06 249.528 427.036 249.72 427.004 249.864H419.516C419.644 250.92 420.012 251.736 420.62 252.312C421.244 252.872 422.036 253.152 422.996 253.152C423.508 253.152 423.98 253.08 424.412 252.936C424.86 252.776 425.3 252.56 425.732 252.288L426.668 254.016C426.108 254.384 425.484 254.688 424.796 254.928C424.108 255.168 423.388 255.288 422.636 255.288ZM419.492 247.992H424.724C424.724 247.08 424.524 246.368 424.124 245.856C423.74 245.328 423.14 245.064 422.324 245.064C421.62 245.064 421.004 245.312 420.476 245.808C419.948 246.304 419.62 247.032 419.492 247.992ZM433.677 255.288C432.989 255.288 432.405 255.184 431.925 254.976C431.461 254.768 431.077 254.48 430.773 254.112C430.485 253.728 430.269 253.28 430.125 252.768C429.997 252.24 429.933 251.656 429.933 251.016V245.4H428.253V243.336L430.077 243.216L430.413 240H432.717V243.216H435.717V245.4H432.717V251.016C432.717 252.392 433.269 253.08 434.373 253.08C434.581 253.08 434.789 253.056 434.997 253.008C435.221 252.96 435.421 252.896 435.597 252.816L436.077 254.856C435.757 254.968 435.389 255.064 434.973 255.144C434.573 255.24 434.141 255.288 433.677 255.288Z" fill="#333333"/>
<path d="M160.236 292.192C159.575 292.192 158.967 292.069 158.412 291.824C157.857 291.579 157.372 291.227 156.956 290.768C156.551 290.299 156.231 289.728 155.996 289.056C155.772 288.373 155.66 287.605 155.66 286.752C155.66 285.909 155.777 285.152 156.012 284.48C156.247 283.808 156.572 283.237 156.988 282.768C157.404 282.299 157.895 281.941 158.46 281.696C159.025 281.44 159.644 281.312 160.316 281.312C160.956 281.312 161.516 281.445 161.996 281.712C162.487 281.968 162.887 282.267 163.196 282.608L162.476 283.472C162.199 283.173 161.884 282.933 161.532 282.752C161.18 282.571 160.78 282.48 160.332 282.48C159.831 282.48 159.377 282.581 158.972 282.784C158.567 282.976 158.22 283.259 157.932 283.632C157.644 283.995 157.42 284.437 157.26 284.96C157.111 285.483 157.036 286.069 157.036 286.72C157.036 287.381 157.111 287.979 157.26 288.512C157.42 289.035 157.639 289.483 157.916 289.856C158.193 290.229 158.529 290.517 158.924 290.72C159.329 290.923 159.783 291.024 160.284 291.024C160.796 291.024 161.244 290.923 161.628 290.72C162.012 290.507 162.375 290.213 162.716 289.84L163.452 290.672C163.036 291.152 162.567 291.525 162.044 291.792C161.521 292.059 160.919 292.192 160.236 292.192ZM168.305 292.192C167.825 292.192 167.366 292.101 166.929 291.92C166.502 291.739 166.123 291.477 165.793 291.136C165.462 290.784 165.195 290.357 164.993 289.856C164.801 289.344 164.705 288.768 164.705 288.128C164.705 287.477 164.801 286.901 164.993 286.4C165.195 285.888 165.462 285.456 165.793 285.104C166.123 284.752 166.502 284.485 166.929 284.304C167.366 284.123 167.825 284.032 168.305 284.032C168.785 284.032 169.238 284.123 169.665 284.304C170.102 284.485 170.486 284.752 170.817 285.104C171.147 285.456 171.409 285.888 171.601 286.4C171.803 286.901 171.905 287.477 171.905 288.128C171.905 288.768 171.803 289.344 171.601 289.856C171.409 290.357 171.147 290.784 170.817 291.136C170.486 291.477 170.102 291.739 169.665 291.92C169.238 292.101 168.785 292.192 168.305 292.192ZM168.305 291.104C168.635 291.104 168.939 291.035 169.217 290.896C169.494 290.747 169.729 290.544 169.921 290.288C170.123 290.021 170.278 289.707 170.385 289.344C170.491 288.981 170.545 288.576 170.545 288.128C170.545 287.68 170.491 287.275 170.385 286.912C170.278 286.539 170.123 286.219 169.921 285.952C169.729 285.685 169.494 285.483 169.217 285.344C168.939 285.195 168.635 285.12 168.305 285.12C167.974 285.12 167.67 285.195 167.393 285.344C167.115 285.483 166.875 285.685 166.673 285.952C166.481 286.219 166.331 286.539 166.225 286.912C166.118 287.275 166.065 287.68 166.065 288.128C166.065 288.576 166.118 288.981 166.225 289.344C166.331 289.707 166.481 290.021 166.673 290.288C166.875 290.544 167.115 290.747 167.393 290.896C167.67 291.035 167.974 291.104 168.305 291.104ZM173.953 292V284.224H175.041L175.153 285.344H175.201C175.574 284.971 175.963 284.661 176.369 284.416C176.785 284.16 177.265 284.032 177.809 284.032C178.63 284.032 179.227 284.288 179.601 284.8C179.985 285.312 180.177 286.069 180.177 287.072V292H178.865V287.248C178.865 286.512 178.747 285.984 178.513 285.664C178.278 285.333 177.905 285.168 177.393 285.168C176.987 285.168 176.63 285.269 176.321 285.472C176.011 285.675 175.659 285.973 175.265 286.368V292H173.953ZM182.703 292V284.224H183.791L183.903 285.344H183.951C184.324 284.971 184.713 284.661 185.119 284.416C185.535 284.16 186.015 284.032 186.559 284.032C187.38 284.032 187.977 284.288 188.351 284.8C188.735 285.312 188.927 286.069 188.927 287.072V292H187.615V287.248C187.615 286.512 187.497 285.984 187.263 285.664C187.028 285.333 186.655 285.168 186.143 285.168C185.737 285.168 185.38 285.269 185.071 285.472C184.761 285.675 184.409 285.973 184.015 286.368V292H182.703ZM194.605 292.192C194.082 292.192 193.591 292.101 193.133 291.92C192.685 291.728 192.29 291.461 191.949 291.12C191.618 290.768 191.357 290.341 191.165 289.84C190.973 289.339 190.877 288.768 190.877 288.128C190.877 287.488 190.973 286.917 191.165 286.416C191.367 285.904 191.629 285.472 191.949 285.12C192.279 284.768 192.653 284.501 193.069 284.32C193.485 284.128 193.917 284.032 194.365 284.032C194.855 284.032 195.293 284.117 195.677 284.288C196.071 284.459 196.397 284.704 196.653 285.024C196.919 285.344 197.122 285.728 197.261 286.176C197.399 286.624 197.469 287.125 197.469 287.68C197.469 287.819 197.463 287.957 197.453 288.096C197.453 288.224 197.442 288.336 197.421 288.432H192.173C192.226 289.264 192.482 289.925 192.941 290.416C193.41 290.896 194.018 291.136 194.765 291.136C195.138 291.136 195.479 291.083 195.789 290.976C196.109 290.859 196.413 290.709 196.701 290.528L197.165 291.392C196.823 291.605 196.445 291.792 196.029 291.952C195.613 292.112 195.138 292.192 194.605 292.192ZM192.157 287.488H196.317C196.317 286.699 196.146 286.101 195.805 285.696C195.474 285.28 195.005 285.072 194.397 285.072C194.119 285.072 193.853 285.125 193.597 285.232C193.351 285.339 193.127 285.499 192.925 285.712C192.722 285.915 192.551 286.165 192.413 286.464C192.285 286.763 192.199 287.104 192.157 287.488ZM202.462 292.192C201.95 292.192 201.47 292.101 201.022 291.92C200.574 291.739 200.185 291.477 199.854 291.136C199.534 290.784 199.278 290.357 199.086 289.856C198.905 289.344 198.814 288.768 198.814 288.128C198.814 287.477 198.915 286.901 199.118 286.4C199.321 285.888 199.593 285.456 199.934 285.104C200.275 284.752 200.67 284.485 201.118 284.304C201.577 284.123 202.057 284.032 202.558 284.032C203.07 284.032 203.507 284.123 203.87 284.304C204.233 284.485 204.553 284.699 204.83 284.944L204.158 285.808C203.934 285.605 203.694 285.44 203.438 285.312C203.193 285.184 202.915 285.12 202.606 285.12C202.254 285.12 201.929 285.195 201.63 285.344C201.331 285.483 201.075 285.685 200.862 285.952C200.649 286.219 200.478 286.539 200.35 286.912C200.233 287.275 200.174 287.68 200.174 288.128C200.174 288.576 200.233 288.981 200.35 289.344C200.467 289.707 200.627 290.021 200.83 290.288C201.043 290.544 201.299 290.747 201.598 290.896C201.897 291.035 202.222 291.104 202.574 291.104C202.937 291.104 203.267 291.029 203.566 290.88C203.875 290.72 204.153 290.533 204.398 290.32L204.974 291.2C204.622 291.509 204.233 291.755 203.806 291.936C203.379 292.107 202.931 292.192 202.462 292.192ZM208.979 292.192C208.563 292.192 208.211 292.128 207.923 292C207.645 291.872 207.416 291.696 207.235 291.472C207.064 291.248 206.941 290.976 206.867 290.656C206.792 290.336 206.755 289.984 206.755 289.6V285.296H205.603V284.304L206.819 284.224L206.979 282.048H208.083V284.224H210.179V285.296H208.083V289.616C208.083 290.096 208.168 290.469 208.339 290.736C208.52 290.992 208.835 291.12 209.283 291.12C209.421 291.12 209.571 291.099 209.731 291.056C209.891 291.013 210.035 290.965 210.163 290.912L210.419 291.904C210.205 291.979 209.971 292.043 209.715 292.096C209.469 292.16 209.224 292.192 208.979 292.192ZM217.588 292.192C217.172 292.192 216.82 292.128 216.532 292C216.255 291.872 216.025 291.696 215.844 291.472C215.673 291.248 215.551 290.976 215.476 290.656C215.401 290.336 215.364 289.984 215.364 289.6V285.296H214.212V284.304L215.428 284.224L215.588 282.048H216.692V284.224H218.788V285.296H216.692V289.616C216.692 290.096 216.777 290.469 216.948 290.736C217.129 290.992 217.444 291.12 217.892 291.12C218.031 291.12 218.18 291.099 218.34 291.056C218.5 291.013 218.644 290.965 218.772 290.912L219.028 291.904C218.815 291.979 218.58 292.043 218.324 292.096C218.079 292.16 217.833 292.192 217.588 292.192ZM223.352 292.192C222.872 292.192 222.413 292.101 221.976 291.92C221.549 291.739 221.17 291.477 220.84 291.136C220.509 290.784 220.242 290.357 220.04 289.856C219.848 289.344 219.752 288.768 219.752 288.128C219.752 287.477 219.848 286.901 220.04 286.4C220.242 285.888 220.509 285.456 220.84 285.104C221.17 284.752 221.549 284.485 221.976 284.304C222.413 284.123 222.872 284.032 223.352 284.032C223.832 284.032 224.285 284.123 224.712 284.304C225.149 284.485 225.533 284.752 225.864 285.104C226.194 285.456 226.456 285.888 226.648 286.4C226.85 286.901 226.952 287.477 226.952 288.128C226.952 288.768 226.85 289.344 226.648 289.856C226.456 290.357 226.194 290.784 225.864 291.136C225.533 291.477 225.149 291.739 224.712 291.92C224.285 292.101 223.832 292.192 223.352 292.192ZM223.352 291.104C223.682 291.104 223.986 291.035 224.264 290.896C224.541 290.747 224.776 290.544 224.968 290.288C225.17 290.021 225.325 289.707 225.432 289.344C225.538 288.981 225.592 288.576 225.592 288.128C225.592 287.68 225.538 287.275 225.432 286.912C225.325 286.539 225.17 286.219 224.968 285.952C224.776 285.685 224.541 285.483 224.264 285.344C223.986 285.195 223.682 285.12 223.352 285.12C223.021 285.12 222.717 285.195 222.44 285.344C222.162 285.483 221.922 285.685 221.72 285.952C221.528 286.219 221.378 286.539 221.272 286.912C221.165 287.275 221.112 287.68 221.112 288.128C221.112 288.576 221.165 288.981 221.272 289.344C221.378 289.707 221.528 290.021 221.72 290.288C221.922 290.544 222.162 290.747 222.44 290.896C222.717 291.035 223.021 291.104 223.352 291.104ZM233.995 292.192C233.344 292.192 232.8 292 232.363 291.616C231.936 291.232 231.723 290.688 231.723 289.984C231.723 289.131 232.101 288.48 232.859 288.032C233.616 287.573 234.827 287.253 236.491 287.072C236.491 286.827 236.464 286.587 236.411 286.352C236.368 286.117 236.288 285.909 236.171 285.728C236.053 285.547 235.888 285.403 235.675 285.296C235.472 285.179 235.211 285.12 234.891 285.12C234.443 285.12 234.021 285.205 233.627 285.376C233.232 285.547 232.88 285.739 232.571 285.952L232.059 285.04C232.421 284.805 232.864 284.581 233.387 284.368C233.909 284.144 234.485 284.032 235.115 284.032C236.064 284.032 236.752 284.325 237.179 284.912C237.605 285.488 237.819 286.261 237.819 287.232V292H236.731L236.619 291.072H236.571C236.197 291.381 235.797 291.648 235.371 291.872C234.944 292.085 234.485 292.192 233.995 292.192ZM234.379 291.136C234.752 291.136 235.104 291.051 235.435 290.88C235.765 290.699 236.117 290.437 236.491 290.096V287.936C235.84 288.021 235.291 288.123 234.843 288.24C234.405 288.357 234.048 288.496 233.771 288.656C233.504 288.816 233.307 289.003 233.179 289.216C233.061 289.419 233.003 289.643 233.003 289.888C233.003 290.336 233.136 290.656 233.403 290.848C233.669 291.04 233.995 291.136 234.379 291.136ZM245.5 292.192C244.946 292.192 244.418 292.091 243.916 291.888C243.415 291.685 242.978 291.429 242.604 291.12L243.26 290.24C243.602 290.517 243.948 290.741 244.3 290.912C244.663 291.083 245.079 291.168 245.548 291.168C246.06 291.168 246.444 291.051 246.7 290.816C246.956 290.581 247.084 290.293 247.084 289.952C247.084 289.749 247.031 289.573 246.924 289.424C246.818 289.275 246.679 289.147 246.508 289.04C246.348 288.923 246.162 288.821 245.948 288.736C245.735 288.651 245.522 288.565 245.308 288.48C245.031 288.384 244.754 288.277 244.476 288.16C244.199 288.032 243.948 287.883 243.724 287.712C243.511 287.531 243.335 287.323 243.196 287.088C243.058 286.853 242.988 286.571 242.988 286.24C242.988 285.931 243.047 285.643 243.164 285.376C243.292 285.099 243.468 284.864 243.692 284.672C243.927 284.469 244.21 284.315 244.54 284.208C244.871 284.091 245.244 284.032 245.66 284.032C246.151 284.032 246.599 284.117 247.004 284.288C247.42 284.459 247.778 284.667 248.076 284.912L247.452 285.744C247.186 285.541 246.908 285.376 246.62 285.248C246.332 285.12 246.018 285.056 245.676 285.056C245.186 285.056 244.823 285.168 244.588 285.392C244.364 285.616 244.252 285.877 244.252 286.176C244.252 286.357 244.3 286.517 244.396 286.656C244.492 286.784 244.62 286.901 244.78 287.008C244.94 287.104 245.122 287.195 245.324 287.28C245.538 287.355 245.756 287.435 245.98 287.52C246.258 287.627 246.535 287.739 246.812 287.856C247.1 287.973 247.356 288.123 247.58 288.304C247.804 288.475 247.986 288.688 248.124 288.944C248.274 289.2 248.348 289.509 248.348 289.872C248.348 290.192 248.284 290.491 248.156 290.768C248.039 291.045 247.858 291.291 247.612 291.504C247.378 291.717 247.079 291.883 246.716 292C246.364 292.128 245.959 292.192 245.5 292.192ZM253.323 292.192C252.801 292.192 252.31 292.101 251.851 291.92C251.403 291.728 251.009 291.461 250.667 291.12C250.337 290.768 250.075 290.341 249.883 289.84C249.691 289.339 249.595 288.768 249.595 288.128C249.595 287.488 249.691 286.917 249.883 286.416C250.086 285.904 250.347 285.472 250.667 285.12C250.998 284.768 251.371 284.501 251.787 284.32C252.203 284.128 252.635 284.032 253.083 284.032C253.574 284.032 254.011 284.117 254.395 284.288C254.79 284.459 255.115 284.704 255.371 285.024C255.638 285.344 255.841 285.728 255.979 286.176C256.118 286.624 256.187 287.125 256.187 287.68C256.187 287.819 256.182 287.957 256.171 288.096C256.171 288.224 256.161 288.336 256.139 288.432H250.891C250.945 289.264 251.201 289.925 251.659 290.416C252.129 290.896 252.737 291.136 253.483 291.136C253.857 291.136 254.198 291.083 254.507 290.976C254.827 290.859 255.131 290.709 255.419 290.528L255.883 291.392C255.542 291.605 255.163 291.792 254.747 291.952C254.331 292.112 253.857 292.192 253.323 292.192ZM250.875 287.488H255.035C255.035 286.699 254.865 286.101 254.523 285.696C254.193 285.28 253.723 285.072 253.115 285.072C252.838 285.072 252.571 285.125 252.315 285.232C252.07 285.339 251.846 285.499 251.643 285.712C251.441 285.915 251.27 286.165 251.131 286.464C251.003 286.763 250.918 287.104 250.875 287.488ZM261.181 292.192C260.669 292.192 260.189 292.101 259.741 291.92C259.293 291.739 258.904 291.477 258.573 291.136C258.253 290.784 257.997 290.357 257.805 289.856C257.624 289.344 257.533 288.768 257.533 288.128C257.533 287.477 257.634 286.901 257.837 286.4C258.04 285.888 258.312 285.456 258.653 285.104C258.994 284.752 259.389 284.485 259.837 284.304C260.296 284.123 260.776 284.032 261.277 284.032C261.789 284.032 262.226 284.123 262.589 284.304C262.952 284.485 263.272 284.699 263.549 284.944L262.877 285.808C262.653 285.605 262.413 285.44 262.157 285.312C261.912 285.184 261.634 285.12 261.325 285.12C260.973 285.12 260.648 285.195 260.349 285.344C260.05 285.483 259.794 285.685 259.581 285.952C259.368 286.219 259.197 286.539 259.069 286.912C258.952 287.275 258.893 287.68 258.893 288.128C258.893 288.576 258.952 288.981 259.069 289.344C259.186 289.707 259.346 290.021 259.549 290.288C259.762 290.544 260.018 290.747 260.317 290.896C260.616 291.035 260.941 291.104 261.293 291.104C261.656 291.104 261.986 291.029 262.285 290.88C262.594 290.72 262.872 290.533 263.117 290.32L263.693 291.2C263.341 291.509 262.952 291.755 262.525 291.936C262.098 292.107 261.65 292.192 261.181 292.192ZM267.678 292.192C266.846 292.192 266.238 291.936 265.854 291.424C265.48 290.912 265.294 290.155 265.294 289.152V284.224H266.622V288.976C266.622 289.712 266.734 290.245 266.958 290.576C267.192 290.896 267.566 291.056 268.078 291.056C268.483 291.056 268.84 290.955 269.15 290.752C269.459 290.539 269.8 290.203 270.174 289.744V284.224H271.486V292H270.398L270.286 290.784H270.238C269.875 291.211 269.491 291.552 269.086 291.808C268.691 292.064 268.222 292.192 267.678 292.192ZM274.109 292V284.224H275.197L275.309 285.632H275.357C275.624 285.141 275.944 284.752 276.317 284.464C276.701 284.176 277.117 284.032 277.565 284.032C277.874 284.032 278.152 284.085 278.397 284.192L278.141 285.344C278.013 285.301 277.896 285.269 277.789 285.248C277.682 285.227 277.549 285.216 277.389 285.216C277.058 285.216 276.712 285.349 276.349 285.616C275.997 285.883 275.688 286.347 275.421 287.008V292H274.109ZM282.652 292.192C282.129 292.192 281.638 292.101 281.18 291.92C280.732 291.728 280.337 291.461 279.996 291.12C279.665 290.768 279.404 290.341 279.212 289.84C279.02 289.339 278.924 288.768 278.924 288.128C278.924 287.488 279.02 286.917 279.212 286.416C279.414 285.904 279.676 285.472 279.996 285.12C280.326 284.768 280.7 284.501 281.116 284.32C281.532 284.128 281.964 284.032 282.411 284.032C282.902 284.032 283.34 284.117 283.724 284.288C284.118 284.459 284.444 284.704 284.7 285.024C284.966 285.344 285.169 285.728 285.308 286.176C285.446 286.624 285.516 287.125 285.516 287.68C285.516 287.819 285.51 287.957 285.5 288.096C285.5 288.224 285.489 288.336 285.468 288.432H280.22C280.273 289.264 280.529 289.925 280.988 290.416C281.457 290.896 282.065 291.136 282.812 291.136C283.185 291.136 283.526 291.083 283.836 290.976C284.156 290.859 284.46 290.709 284.748 290.528L285.212 291.392C284.87 291.605 284.492 291.792 284.076 291.952C283.66 292.112 283.185 292.192 282.652 292.192ZM280.204 287.488H284.364C284.364 286.699 284.193 286.101 283.852 285.696C283.521 285.28 283.052 285.072 282.444 285.072C282.166 285.072 281.9 285.125 281.644 285.232C281.398 285.339 281.174 285.499 280.972 285.712C280.769 285.915 280.598 286.165 280.46 286.464C280.332 286.763 280.246 287.104 280.204 287.488ZM291.872 292L289.712 284.224H291.056L292.208 288.72C292.293 289.093 292.373 289.456 292.448 289.808C292.523 290.16 292.597 290.517 292.672 290.88H292.736C292.821 290.517 292.907 290.16 292.992 289.808C293.077 289.445 293.168 289.083 293.264 288.72L294.464 284.224H295.744L296.96 288.72C297.056 289.093 297.147 289.456 297.232 289.808C297.328 290.16 297.419 290.517 297.504 290.88H297.568C297.653 290.517 297.733 290.16 297.808 289.808C297.883 289.456 297.963 289.093 298.048 288.72L299.184 284.224H300.432L298.352 292H296.752L295.632 287.824C295.536 287.451 295.445 287.083 295.36 286.72C295.285 286.357 295.2 285.979 295.104 285.584H295.04C294.955 285.979 294.869 286.363 294.784 286.736C294.699 287.099 294.603 287.467 294.496 287.84L293.408 292H291.872ZM303.76 292.192C303.11 292.192 302.566 292 302.128 291.616C301.702 291.232 301.488 290.688 301.488 289.984C301.488 289.131 301.867 288.48 302.624 288.032C303.382 287.573 304.592 287.253 306.256 287.072C306.256 286.827 306.23 286.587 306.176 286.352C306.134 286.117 306.054 285.909 305.936 285.728C305.819 285.547 305.654 285.403 305.44 285.296C305.238 285.179 304.976 285.12 304.656 285.12C304.208 285.12 303.787 285.205 303.392 285.376C302.998 285.547 302.646 285.739 302.336 285.952L301.824 285.04C302.187 284.805 302.63 284.581 303.152 284.368C303.675 284.144 304.251 284.032 304.88 284.032C305.83 284.032 306.518 284.325 306.944 284.912C307.371 285.488 307.584 286.261 307.584 287.232V292H306.496L306.384 291.072H306.336C305.963 291.381 305.563 291.648 305.136 291.872C304.71 292.085 304.251 292.192 303.76 292.192ZM304.144 291.136C304.518 291.136 304.87 291.051 305.2 290.88C305.531 290.699 305.883 290.437 306.256 290.096V287.936C305.606 288.021 305.056 288.123 304.608 288.24C304.171 288.357 303.814 288.496 303.536 288.656C303.27 288.816 303.072 289.003 302.944 289.216C302.827 289.419 302.768 289.643 302.768 289.888C302.768 290.336 302.902 290.656 303.168 290.848C303.435 291.04 303.76 291.136 304.144 291.136ZM311.423 292.192C310.921 292.192 310.564 292.043 310.351 291.744C310.137 291.445 310.031 291.008 310.031 290.432V280.608H311.343V290.528C311.343 290.741 311.38 290.891 311.455 290.976C311.529 291.061 311.615 291.104 311.711 291.104C311.753 291.104 311.791 291.104 311.823 291.104C311.865 291.104 311.924 291.093 311.999 291.072L312.175 292.064C312.089 292.107 311.988 292.139 311.871 292.16C311.753 292.181 311.604 292.192 311.423 292.192ZM315.501 292.192C315 292.192 314.642 292.043 314.429 291.744C314.216 291.445 314.109 291.008 314.109 290.432V280.608H315.421V290.528C315.421 290.741 315.458 290.891 315.533 290.976C315.608 291.061 315.693 291.104 315.789 291.104C315.832 291.104 315.869 291.104 315.901 291.104C315.944 291.104 316.002 291.093 316.077 291.072L316.253 292.064C316.168 292.107 316.066 292.139 315.949 292.16C315.832 292.181 315.682 292.192 315.501 292.192ZM321.339 292.192C320.816 292.192 320.326 292.101 319.867 291.92C319.419 291.728 319.024 291.461 318.683 291.12C318.352 290.768 318.091 290.341 317.899 289.84C317.707 289.339 317.611 288.768 317.611 288.128C317.611 287.488 317.707 286.917 317.899 286.416C318.102 285.904 318.363 285.472 318.683 285.12C319.014 284.768 319.387 284.501 319.803 284.32C320.219 284.128 320.651 284.032 321.099 284.032C321.59 284.032 322.027 284.117 322.411 284.288C322.806 284.459 323.131 284.704 323.387 285.024C323.654 285.344 323.856 285.728 323.995 286.176C324.134 286.624 324.203 287.125 324.203 287.68C324.203 287.819 324.198 287.957 324.187 288.096C324.187 288.224 324.176 288.336 324.155 288.432H318.907C318.96 289.264 319.216 289.925 319.675 290.416C320.144 290.896 320.752 291.136 321.499 291.136C321.872 291.136 322.214 291.083 322.523 290.976C322.843 290.859 323.147 290.709 323.435 290.528L323.899 291.392C323.558 291.605 323.179 291.792 322.763 291.952C322.347 292.112 321.872 292.192 321.339 292.192ZM318.891 287.488H323.051C323.051 286.699 322.88 286.101 322.539 285.696C322.208 285.28 321.739 285.072 321.131 285.072C320.854 285.072 320.587 285.125 320.331 285.232C320.086 285.339 319.862 285.499 319.659 285.712C319.456 285.915 319.286 286.165 319.147 286.464C319.019 286.763 318.934 287.104 318.891 287.488ZM328.416 292.192C328 292.192 327.648 292.128 327.36 292C327.083 291.872 326.854 291.696 326.672 291.472C326.502 291.248 326.379 290.976 326.304 290.656C326.23 290.336 326.192 289.984 326.192 289.6V285.296H325.04V284.304L326.256 284.224L326.416 282.048H327.52V284.224H329.616V285.296H327.52V289.616C327.52 290.096 327.606 290.469 327.776 290.736C327.958 290.992 328.272 291.12 328.72 291.12C328.859 291.12 329.008 291.099 329.168 291.056C329.328 291.013 329.472 290.965 329.6 290.912L329.856 291.904C329.643 291.979 329.408 292.043 329.152 292.096C328.907 292.16 328.662 292.192 328.416 292.192ZM337.026 292.192C336.61 292.192 336.258 292.128 335.97 292C335.692 291.872 335.463 291.696 335.282 291.472C335.111 291.248 334.988 290.976 334.914 290.656C334.839 290.336 334.802 289.984 334.802 289.6V285.296H333.65V284.304L334.866 284.224L335.026 282.048H336.13V284.224H338.226V285.296H336.13V289.616C336.13 290.096 336.215 290.469 336.386 290.736C336.567 290.992 336.882 291.12 337.33 291.12C337.468 291.12 337.618 291.099 337.778 291.056C337.938 291.013 338.082 290.965 338.21 290.912L338.466 291.904C338.252 291.979 338.018 292.043 337.762 292.096C337.516 292.16 337.271 292.192 337.026 292.192ZM342.789 292.192C342.309 292.192 341.85 292.101 341.413 291.92C340.986 291.739 340.608 291.477 340.277 291.136C339.946 290.784 339.68 290.357 339.477 289.856C339.285 289.344 339.189 288.768 339.189 288.128C339.189 287.477 339.285 286.901 339.477 286.4C339.68 285.888 339.946 285.456 340.277 285.104C340.608 284.752 340.986 284.485 341.413 284.304C341.85 284.123 342.309 284.032 342.789 284.032C343.269 284.032 343.722 284.123 344.149 284.304C344.586 284.485 344.97 284.752 345.301 285.104C345.632 285.456 345.893 285.888 346.085 286.4C346.288 286.901 346.389 287.477 346.389 288.128C346.389 288.768 346.288 289.344 346.085 289.856C345.893 290.357 345.632 290.784 345.301 291.136C344.97 291.477 344.586 291.739 344.149 291.92C343.722 292.101 343.269 292.192 342.789 292.192ZM342.789 291.104C343.12 291.104 343.424 291.035 343.701 290.896C343.978 290.747 344.213 290.544 344.405 290.288C344.608 290.021 344.762 289.707 344.869 289.344C344.976 288.981 345.029 288.576 345.029 288.128C345.029 287.68 344.976 287.275 344.869 286.912C344.762 286.539 344.608 286.219 344.405 285.952C344.213 285.685 343.978 285.483 343.701 285.344C343.424 285.195 343.12 285.12 342.789 285.12C342.458 285.12 342.154 285.195 341.877 285.344C341.6 285.483 341.36 285.685 341.157 285.952C340.965 286.219 340.816 286.539 340.709 286.912C340.602 287.275 340.549 287.68 340.549 288.128C340.549 288.576 340.602 288.981 340.709 289.344C340.816 289.707 340.965 290.021 341.157 290.288C341.36 290.544 341.6 290.747 341.877 290.896C342.154 291.035 342.458 291.104 342.789 291.104ZM353.432 292.192C352.781 292.192 352.237 292 351.8 291.616C351.373 291.232 351.16 290.688 351.16 289.984C351.16 289.131 351.539 288.48 352.296 288.032C353.053 287.573 354.264 287.253 355.928 287.072C355.928 286.827 355.901 286.587 355.848 286.352C355.805 286.117 355.725 285.909 355.608 285.728C355.491 285.547 355.325 285.403 355.112 285.296C354.909 285.179 354.648 285.12 354.328 285.12C353.88 285.12 353.459 285.205 353.064 285.376C352.669 285.547 352.317 285.739 352.008 285.952L351.496 285.04C351.859 284.805 352.301 284.581 352.824 284.368C353.347 284.144 353.923 284.032 354.552 284.032C355.501 284.032 356.189 284.325 356.616 284.912C357.043 285.488 357.256 286.261 357.256 287.232V292H356.168L356.056 291.072H356.008C355.635 291.381 355.235 291.648 354.808 291.872C354.381 292.085 353.923 292.192 353.432 292.192ZM353.816 291.136C354.189 291.136 354.541 291.051 354.872 290.88C355.203 290.699 355.555 290.437 355.928 290.096V287.936C355.277 288.021 354.728 288.123 354.28 288.24C353.843 288.357 353.485 288.496 353.208 288.656C352.941 288.816 352.744 289.003 352.616 289.216C352.499 289.419 352.44 289.643 352.44 289.888C352.44 290.336 352.573 290.656 352.84 290.848C353.107 291.04 353.432 291.136 353.816 291.136ZM362.775 292.192C362.263 292.192 361.783 292.101 361.335 291.92C360.887 291.739 360.497 291.477 360.167 291.136C359.847 290.784 359.591 290.357 359.399 289.856C359.217 289.344 359.127 288.768 359.127 288.128C359.127 287.477 359.228 286.901 359.431 286.4C359.633 285.888 359.905 285.456 360.247 285.104C360.588 284.752 360.983 284.485 361.431 284.304C361.889 284.123 362.369 284.032 362.871 284.032C363.383 284.032 363.82 284.123 364.183 284.304C364.545 284.485 364.865 284.699 365.143 284.944L364.471 285.808C364.247 285.605 364.007 285.44 363.751 285.312C363.505 285.184 363.228 285.12 362.919 285.12C362.567 285.12 362.241 285.195 361.943 285.344C361.644 285.483 361.388 285.685 361.175 285.952C360.961 286.219 360.791 286.539 360.663 286.912C360.545 287.275 360.487 287.68 360.487 288.128C360.487 288.576 360.545 288.981 360.663 289.344C360.78 289.707 360.94 290.021 361.143 290.288C361.356 290.544 361.612 290.747 361.911 290.896C362.209 291.035 362.535 291.104 362.887 291.104C363.249 291.104 363.58 291.029 363.879 290.88C364.188 290.72 364.465 290.533 364.711 290.32L365.287 291.2C364.935 291.509 364.545 291.755 364.119 291.936C363.692 292.107 363.244 292.192 362.775 292.192ZM369.728 292.192C369.216 292.192 368.736 292.101 368.288 291.92C367.84 291.739 367.45 291.477 367.12 291.136C366.8 290.784 366.544 290.357 366.352 289.856C366.17 289.344 366.08 288.768 366.08 288.128C366.08 287.477 366.181 286.901 366.384 286.4C366.586 285.888 366.858 285.456 367.2 285.104C367.541 284.752 367.936 284.485 368.384 284.304C368.842 284.123 369.322 284.032 369.824 284.032C370.336 284.032 370.773 284.123 371.136 284.304C371.498 284.485 371.818 284.699 372.096 284.944L371.424 285.808C371.2 285.605 370.96 285.44 370.704 285.312C370.458 285.184 370.181 285.12 369.872 285.12C369.52 285.12 369.194 285.195 368.896 285.344C368.597 285.483 368.341 285.685 368.128 285.952C367.914 286.219 367.744 286.539 367.616 286.912C367.498 287.275 367.44 287.68 367.44 288.128C367.44 288.576 367.498 288.981 367.616 289.344C367.733 289.707 367.893 290.021 368.096 290.288C368.309 290.544 368.565 290.747 368.864 290.896C369.162 291.035 369.488 291.104 369.84 291.104C370.202 291.104 370.533 291.029 370.832 290.88C371.141 290.72 371.418 290.533 371.664 290.32L372.24 291.2C371.888 291.509 371.498 291.755 371.072 291.936C370.645 292.107 370.197 292.192 369.728 292.192ZM376.761 292.192C376.238 292.192 375.748 292.101 375.289 291.92C374.841 291.728 374.446 291.461 374.105 291.12C373.774 290.768 373.513 290.341 373.321 289.84C373.129 289.339 373.033 288.768 373.033 288.128C373.033 287.488 373.129 286.917 373.321 286.416C373.524 285.904 373.785 285.472 374.105 285.12C374.436 284.768 374.809 284.501 375.225 284.32C375.641 284.128 376.073 284.032 376.521 284.032C377.012 284.032 377.449 284.117 377.833 284.288C378.228 284.459 378.553 284.704 378.809 285.024C379.076 285.344 379.278 285.728 379.417 286.176C379.556 286.624 379.625 287.125 379.625 287.68C379.625 287.819 379.62 287.957 379.609 288.096C379.609 288.224 379.598 288.336 379.577 288.432H374.329C374.382 289.264 374.638 289.925 375.097 290.416C375.566 290.896 376.174 291.136 376.921 291.136C377.294 291.136 377.636 291.083 377.945 290.976C378.265 290.859 378.569 290.709 378.857 290.528L379.321 291.392C378.98 291.605 378.601 291.792 378.185 291.952C377.769 292.112 377.294 292.192 376.761 292.192ZM374.313 287.488H378.473C378.473 286.699 378.302 286.101 377.961 285.696C377.63 285.28 377.161 285.072 376.553 285.072C376.276 285.072 376.009 285.125 375.753 285.232C375.508 285.339 375.284 285.499 375.081 285.712C374.878 285.915 374.708 286.165 374.569 286.464C374.441 286.763 374.356 287.104 374.313 287.488ZM383.578 292.192C383.024 292.192 382.496 292.091 381.994 291.888C381.493 291.685 381.056 291.429 380.682 291.12L381.338 290.24C381.68 290.517 382.026 290.741 382.378 290.912C382.741 291.083 383.157 291.168 383.626 291.168C384.138 291.168 384.522 291.051 384.778 290.816C385.034 290.581 385.162 290.293 385.162 289.952C385.162 289.749 385.109 289.573 385.002 289.424C384.896 289.275 384.757 289.147 384.586 289.04C384.426 288.923 384.24 288.821 384.026 288.736C383.813 288.651 383.6 288.565 383.386 288.48C383.109 288.384 382.832 288.277 382.554 288.16C382.277 288.032 382.026 287.883 381.802 287.712C381.589 287.531 381.413 287.323 381.274 287.088C381.136 286.853 381.066 286.571 381.066 286.24C381.066 285.931 381.125 285.643 381.242 285.376C381.37 285.099 381.546 284.864 381.77 284.672C382.005 284.469 382.288 284.315 382.618 284.208C382.949 284.091 383.322 284.032 383.738 284.032C384.229 284.032 384.677 284.117 385.082 284.288C385.498 284.459 385.856 284.667 386.154 284.912L385.53 285.744C385.264 285.541 384.986 285.376 384.698 285.248C384.41 285.12 384.096 285.056 383.754 285.056C383.264 285.056 382.901 285.168 382.666 285.392C382.442 285.616 382.33 285.877 382.33 286.176C382.33 286.357 382.378 286.517 382.474 286.656C382.57 286.784 382.698 286.901 382.858 287.008C383.018 287.104 383.2 287.195 383.402 287.28C383.616 287.355 383.834 287.435 384.058 287.52C384.336 287.627 384.613 287.739 384.89 287.856C385.178 287.973 385.434 288.123 385.658 288.304C385.882 288.475 386.064 288.688 386.202 288.944C386.352 289.2 386.426 289.509 386.426 289.872C386.426 290.192 386.362 290.491 386.234 290.768C386.117 291.045 385.936 291.291 385.69 291.504C385.456 291.717 385.157 291.883 384.794 292C384.442 292.128 384.037 292.192 383.578 292.192ZM390.282 292.192C389.727 292.192 389.199 292.091 388.698 291.888C388.196 291.685 387.759 291.429 387.386 291.12L388.042 290.24C388.383 290.517 388.73 290.741 389.082 290.912C389.444 291.083 389.86 291.168 390.33 291.168C390.842 291.168 391.226 291.051 391.482 290.816C391.738 290.581 391.866 290.293 391.866 289.952C391.866 289.749 391.812 289.573 391.706 289.424C391.599 289.275 391.46 289.147 391.29 289.04C391.13 288.923 390.943 288.821 390.73 288.736C390.516 288.651 390.303 288.565 390.09 288.48C389.812 288.384 389.535 288.277 389.258 288.16C388.98 288.032 388.73 287.883 388.506 287.712C388.292 287.531 388.116 287.323 387.978 287.088C387.839 286.853 387.77 286.571 387.77 286.24C387.77 285.931 387.828 285.643 387.946 285.376C388.074 285.099 388.25 284.864 388.474 284.672C388.708 284.469 388.991 284.315 389.322 284.208C389.652 284.091 390.026 284.032 390.442 284.032C390.932 284.032 391.38 284.117 391.786 284.288C392.202 284.459 392.559 284.667 392.858 284.912L392.234 285.744C391.967 285.541 391.69 285.376 391.402 285.248C391.114 285.12 390.799 285.056 390.458 285.056C389.967 285.056 389.604 285.168 389.37 285.392C389.146 285.616 389.034 285.877 389.034 286.176C389.034 286.357 389.082 286.517 389.178 286.656C389.274 286.784 389.402 286.901 389.562 287.008C389.722 287.104 389.903 287.195 390.106 287.28C390.319 287.355 390.538 287.435 390.762 287.52C391.039 287.627 391.316 287.739 391.594 287.856C391.882 287.973 392.138 288.123 392.362 288.304C392.586 288.475 392.767 288.688 392.906 288.944C393.055 289.2 393.13 289.509 393.13 289.872C393.13 290.192 393.066 290.491 392.938 290.768C392.82 291.045 392.639 291.291 392.394 291.504C392.159 291.717 391.86 291.883 391.498 292C391.146 292.128 390.74 292.192 390.282 292.192ZM404.252 289.904L397.388 287.216V286.16L404.252 283.472V284.608L400.876 285.856L398.732 286.656V286.72L400.876 287.52L404.252 288.768V289.904ZM411.104 292.192C410.453 292.192 409.909 292 409.472 291.616C409.045 291.232 408.832 290.688 408.832 289.984C408.832 289.131 409.211 288.48 409.968 288.032C410.725 287.573 411.936 287.253 413.6 287.072C413.6 286.827 413.573 286.587 413.52 286.352C413.477 286.117 413.397 285.909 413.28 285.728C413.163 285.547 412.997 285.403 412.784 285.296C412.581 285.179 412.32 285.12 412 285.12C411.552 285.12 411.131 285.205 410.736 285.376C410.341 285.547 409.989 285.739 409.68 285.952L409.168 285.04C409.531 284.805 409.973 284.581 410.496 284.368C411.019 284.144 411.595 284.032 412.224 284.032C413.173 284.032 413.861 284.325 414.288 284.912C414.715 285.488 414.928 286.261 414.928 287.232V292H413.84L413.728 291.072H413.68C413.307 291.381 412.907 291.648 412.48 291.872C412.053 292.085 411.595 292.192 411.104 292.192ZM411.488 291.136C411.861 291.136 412.213 291.051 412.544 290.88C412.875 290.699 413.227 290.437 413.6 290.096V287.936C412.949 288.021 412.4 288.123 411.952 288.24C411.515 288.357 411.157 288.496 410.88 288.656C410.613 288.816 410.416 289.003 410.288 289.216C410.171 289.419 410.112 289.643 410.112 289.888C410.112 290.336 410.245 290.656 410.512 290.848C410.779 291.04 411.104 291.136 411.488 291.136ZM417.375 295.28V284.224H418.463L418.575 285.12H418.623C418.975 284.821 419.359 284.565 419.775 284.352C420.201 284.139 420.644 284.032 421.103 284.032C421.604 284.032 422.047 284.128 422.431 284.32C422.815 284.501 423.135 284.768 423.391 285.12C423.647 285.461 423.839 285.877 423.967 286.368C424.105 286.848 424.175 287.392 424.175 288C424.175 288.661 424.084 289.253 423.903 289.776C423.721 290.288 423.476 290.725 423.167 291.088C422.857 291.451 422.5 291.728 422.095 291.92C421.689 292.101 421.263 292.192 420.815 292.192C420.452 292.192 420.089 292.112 419.727 291.952C419.375 291.792 419.017 291.573 418.655 291.296L418.687 292.656V295.28H417.375ZM420.591 291.088C420.911 291.088 421.204 291.019 421.471 290.88C421.748 290.731 421.983 290.528 422.175 290.272C422.377 290.005 422.532 289.68 422.639 289.296C422.756 288.912 422.815 288.48 422.815 288C422.815 287.573 422.777 287.184 422.703 286.832C422.628 286.48 422.505 286.181 422.335 285.936C422.175 285.68 421.961 285.483 421.695 285.344C421.439 285.205 421.129 285.136 420.766 285.136C420.436 285.136 420.1 285.227 419.759 285.408C419.428 285.589 419.071 285.851 418.687 286.192V290.272C419.039 290.571 419.38 290.784 419.711 290.912C420.041 291.029 420.335 291.088 420.591 291.088ZM426.25 295.28V284.224H427.338L427.45 285.12H427.498C427.85 284.821 428.234 284.565 428.65 284.352C429.076 284.139 429.519 284.032 429.978 284.032C430.479 284.032 430.922 284.128 431.306 284.32C431.69 284.501 432.01 284.768 432.266 285.12C432.522 285.461 432.714 285.877 432.842 286.368C432.98 286.848 433.05 287.392 433.05 288C433.05 288.661 432.959 289.253 432.778 289.776C432.596 290.288 432.351 290.725 432.042 291.088C431.732 291.451 431.375 291.728 430.97 291.92C430.564 292.101 430.138 292.192 429.69 292.192C429.327 292.192 428.964 292.112 428.602 291.952C428.25 291.792 427.892 291.573 427.53 291.296L427.562 292.656V295.28H426.25ZM429.466 291.088C429.786 291.088 430.079 291.019 430.346 290.88C430.623 290.731 430.858 290.528 431.05 290.272C431.252 290.005 431.407 289.68 431.514 289.296C431.631 288.912 431.69 288.48 431.69 288C431.69 287.573 431.652 287.184 431.578 286.832C431.503 286.48 431.38 286.181 431.21 285.936C431.05 285.68 430.836 285.483 430.57 285.344C430.314 285.205 430.004 285.136 429.641 285.136C429.311 285.136 428.975 285.227 428.634 285.408C428.303 285.589 427.946 285.851 427.562 286.192V290.272C427.914 290.571 428.255 290.784 428.586 290.912C428.916 291.029 429.21 291.088 429.466 291.088ZM438.328 292V284.224H439.416L439.528 285.344H439.576C439.949 284.971 440.338 284.661 440.744 284.416C441.16 284.16 441.64 284.032 442.184 284.032C443.005 284.032 443.602 284.288 443.976 284.8C444.36 285.312 444.552 286.069 444.552 287.072V292H443.24V287.248C443.24 286.512 443.122 285.984 442.888 285.664C442.653 285.333 442.28 285.168 441.768 285.168C441.362 285.168 441.005 285.269 440.696 285.472C440.386 285.675 440.034 285.973 439.64 286.368V292H438.328ZM448.87 292.192C448.219 292.192 447.675 292 447.238 291.616C446.811 291.232 446.598 290.688 446.598 289.984C446.598 289.131 446.976 288.48 447.734 288.032C448.491 287.573 449.702 287.253 451.366 287.072C451.366 286.827 451.339 286.587 451.286 286.352C451.243 286.117 451.163 285.909 451.046 285.728C450.928 285.547 450.763 285.403 450.55 285.296C450.347 285.179 450.086 285.12 449.766 285.12C449.318 285.12 448.896 285.205 448.502 285.376C448.107 285.547 447.755 285.739 447.446 285.952L446.934 285.04C447.296 284.805 447.739 284.581 448.262 284.368C448.784 284.144 449.36 284.032 449.99 284.032C450.939 284.032 451.627 284.325 452.054 284.912C452.48 285.488 452.694 286.261 452.694 287.232V292H451.606L451.494 291.072H451.446C451.072 291.381 450.672 291.648 450.246 291.872C449.819 292.085 449.36 292.192 448.87 292.192ZM449.254 291.136C449.627 291.136 449.979 291.051 450.31 290.88C450.64 290.699 450.992 290.437 451.366 290.096V287.936C450.715 288.021 450.166 288.123 449.718 288.24C449.28 288.357 448.923 288.496 448.646 288.656C448.379 288.816 448.182 289.003 448.054 289.216C447.936 289.419 447.878 289.643 447.878 289.888C447.878 290.336 448.011 290.656 448.278 290.848C448.544 291.04 448.87 291.136 449.254 291.136ZM455.14 292V284.224H456.228L456.34 285.344H456.388C456.729 284.971 457.097 284.661 457.492 284.416C457.897 284.16 458.335 284.032 458.804 284.032C459.401 284.032 459.865 284.165 460.196 284.432C460.537 284.688 460.788 285.051 460.948 285.52C461.353 285.072 461.759 284.715 462.164 284.448C462.58 284.171 463.028 284.032 463.508 284.032C464.308 284.032 464.9 284.288 465.284 284.8C465.679 285.312 465.876 286.069 465.876 287.072V292H464.564V287.248C464.564 286.512 464.447 285.984 464.212 285.664C463.977 285.333 463.615 285.168 463.124 285.168C462.537 285.168 461.887 285.568 461.172 286.368V292H459.86V287.248C459.86 286.512 459.743 285.984 459.508 285.664C459.273 285.333 458.905 285.168 458.404 285.168C457.817 285.168 457.167 285.568 456.452 286.368V292H455.14ZM471.558 292.192C471.035 292.192 470.544 292.101 470.086 291.92C469.638 291.728 469.243 291.461 468.902 291.12C468.571 290.768 468.31 290.341 468.118 289.84C467.926 289.339 467.83 288.768 467.83 288.128C467.83 287.488 467.926 286.917 468.118 286.416C468.32 285.904 468.582 285.472 468.902 285.12C469.232 284.768 469.606 284.501 470.022 284.32C470.438 284.128 470.87 284.032 471.318 284.032C471.808 284.032 472.246 284.117 472.63 284.288C473.024 284.459 473.35 284.704 473.606 285.024C473.872 285.344 474.075 285.728 474.214 286.176C474.352 286.624 474.422 287.125 474.422 287.68C474.422 287.819 474.416 287.957 474.406 288.096C474.406 288.224 474.395 288.336 474.374 288.432H469.126C469.179 289.264 469.435 289.925 469.894 290.416C470.363 290.896 470.971 291.136 471.718 291.136C472.091 291.136 472.432 291.083 472.742 290.976C473.062 290.859 473.366 290.709 473.654 290.528L474.118 291.392C473.776 291.605 473.398 291.792 472.982 291.952C472.566 292.112 472.091 292.192 471.558 292.192ZM469.11 287.488H473.27C473.27 286.699 473.099 286.101 472.758 285.696C472.427 285.28 471.958 285.072 471.35 285.072C471.072 285.072 470.806 285.125 470.55 285.232C470.304 285.339 470.08 285.499 469.878 285.712C469.675 285.915 469.504 286.165 469.366 286.464C469.238 286.763 469.152 287.104 469.11 287.488ZM478.778 289.904V288.768L482.154 287.52L484.298 286.72V286.656L482.154 285.856L478.778 284.608V283.472L485.642 286.16V287.216L478.778 289.904ZM488.188 292.192C487.921 292.192 487.692 292.101 487.5 291.92C487.318 291.728 487.228 291.488 487.228 291.2C487.228 290.891 487.318 290.645 487.5 290.464C487.692 290.272 487.921 290.176 488.188 290.176C488.444 290.176 488.662 290.272 488.844 290.464C489.036 290.645 489.132 290.891 489.132 291.2C489.132 291.488 489.036 291.728 488.844 291.92C488.662 292.101 488.444 292.192 488.188 292.192Z" fill="#666666"/>
<g filter="url(#filter2_d)">
<rect x="196" y="339" width="250" height="48" rx="4" fill="white"/>
<rect x="196.5" y="339.5" width="249" height="47" rx="3.5" stroke="#CCCCCC"/>
</g>
<path d="M260.75 369.192C260.089 369.192 259.47 369.075 258.894 368.84C258.318 368.605 257.817 368.259 257.39 367.8C256.974 367.341 256.644 366.776 256.398 366.104C256.153 365.432 256.03 364.664 256.03 363.8C256.03 362.947 256.153 362.184 256.398 361.512C256.654 360.829 256.996 360.253 257.422 359.784C257.86 359.315 258.366 358.957 258.942 358.712C259.529 358.467 260.153 358.344 260.814 358.344C261.476 358.344 262.062 358.477 262.574 358.744C263.086 359.011 263.508 359.32 263.838 359.672L262.846 360.872C262.569 360.595 262.27 360.376 261.95 360.216C261.63 360.045 261.268 359.96 260.862 359.96C260.436 359.96 260.041 360.051 259.678 360.232C259.326 360.403 259.017 360.653 258.75 360.984C258.494 361.304 258.292 361.699 258.142 362.168C258.004 362.637 257.934 363.165 257.934 363.752C257.934 364.947 258.19 365.885 258.702 366.568C259.225 367.24 259.929 367.576 260.814 367.576C261.284 367.576 261.7 367.48 262.062 367.288C262.425 367.085 262.756 366.824 263.054 366.504L264.046 367.672C263.62 368.163 263.129 368.541 262.574 368.808C262.03 369.064 261.422 369.192 260.75 369.192ZM268.849 369.192C268.358 369.192 267.889 369.101 267.441 368.92C266.993 368.739 266.593 368.472 266.241 368.12C265.9 367.768 265.628 367.336 265.425 366.824C265.222 366.312 265.121 365.731 265.121 365.08C265.121 364.429 265.222 363.848 265.425 363.336C265.628 362.824 265.9 362.392 266.241 362.04C266.593 361.688 266.993 361.421 267.441 361.24C267.889 361.048 268.358 360.952 268.849 360.952C269.34 360.952 269.809 361.048 270.257 361.24C270.716 361.421 271.116 361.688 271.457 362.04C271.798 362.392 272.07 362.824 272.273 363.336C272.486 363.848 272.593 364.429 272.593 365.08C272.593 365.731 272.486 366.312 272.273 366.824C272.07 367.336 271.798 367.768 271.457 368.12C271.116 368.472 270.716 368.739 270.257 368.92C269.809 369.101 269.34 369.192 268.849 369.192ZM268.849 367.688C269.425 367.688 269.878 367.453 270.209 366.984C270.54 366.504 270.705 365.869 270.705 365.08C270.705 364.28 270.54 363.645 270.209 363.176C269.878 362.696 269.425 362.456 268.849 362.456C268.273 362.456 267.82 362.696 267.489 363.176C267.169 363.645 267.009 364.28 267.009 365.08C267.009 365.869 267.169 366.504 267.489 366.984C267.82 367.453 268.273 367.688 268.849 367.688ZM274.414 369V361.144H275.934L276.062 362.2H276.126C276.478 361.859 276.857 361.565 277.262 361.32C277.678 361.075 278.158 360.952 278.702 360.952C279.545 360.952 280.158 361.224 280.542 361.768C280.926 362.301 281.118 363.069 281.118 364.072V369H279.278V364.312C279.278 363.661 279.182 363.203 278.99 362.936C278.798 362.669 278.484 362.536 278.046 362.536C277.705 362.536 277.401 362.621 277.134 362.792C276.878 362.952 276.585 363.192 276.254 363.512V369H274.414ZM283.368 369V361.144H284.888L285.016 362.2H285.08C285.432 361.859 285.81 361.565 286.216 361.32C286.632 361.075 287.112 360.952 287.656 360.952C288.498 360.952 289.112 361.224 289.496 361.768C289.88 362.301 290.072 363.069 290.072 364.072V369H288.232V364.312C288.232 363.661 288.136 363.203 287.944 362.936C287.752 362.669 287.437 362.536 287 362.536C286.658 362.536 286.354 362.621 286.088 362.792C285.832 362.952 285.538 363.192 285.208 363.512V369H283.368ZM295.681 369.192C295.137 369.192 294.63 369.101 294.161 368.92C293.691 368.728 293.281 368.456 292.929 368.104C292.577 367.752 292.299 367.325 292.097 366.824C291.905 366.312 291.809 365.731 291.809 365.08C291.809 364.44 291.91 363.864 292.113 363.352C292.315 362.84 292.582 362.408 292.913 362.056C293.254 361.704 293.643 361.432 294.081 361.24C294.518 361.048 294.966 360.952 295.425 360.952C295.958 360.952 296.427 361.043 296.833 361.224C297.238 361.405 297.574 361.661 297.841 361.992C298.118 362.323 298.326 362.717 298.465 363.176C298.603 363.635 298.673 364.136 298.673 364.68C298.673 364.861 298.662 365.032 298.641 365.192C298.63 365.352 298.614 365.48 298.593 365.576H293.601C293.686 366.28 293.931 366.824 294.337 367.208C294.753 367.581 295.281 367.768 295.921 367.768C296.262 367.768 296.577 367.72 296.865 367.624C297.163 367.517 297.457 367.373 297.745 367.192L298.369 368.344C297.995 368.589 297.579 368.792 297.121 368.952C296.662 369.112 296.182 369.192 295.681 369.192ZM293.585 364.328H297.073C297.073 363.72 296.939 363.245 296.673 362.904C296.417 362.552 296.017 362.376 295.473 362.376C295.003 362.376 294.593 362.541 294.241 362.872C293.889 363.203 293.67 363.688 293.585 364.328ZM303.71 369.192C303.177 369.192 302.675 369.101 302.206 368.92C301.747 368.739 301.347 368.472 301.006 368.12C300.665 367.768 300.398 367.336 300.206 366.824C300.014 366.312 299.918 365.731 299.918 365.08C299.918 364.429 300.025 363.848 300.238 363.336C300.451 362.824 300.739 362.392 301.102 362.04C301.465 361.688 301.881 361.421 302.35 361.24C302.83 361.048 303.331 360.952 303.854 360.952C304.366 360.952 304.803 361.037 305.166 361.208C305.539 361.379 305.87 361.587 306.158 361.832L305.262 363.032C305.049 362.851 304.835 362.712 304.622 362.616C304.419 362.509 304.195 362.456 303.95 362.456C303.31 362.456 302.793 362.696 302.398 363.176C302.003 363.645 301.806 364.28 301.806 365.08C301.806 365.869 301.998 366.504 302.382 366.984C302.777 367.453 303.283 367.688 303.902 367.688C304.211 367.688 304.499 367.624 304.766 367.496C305.043 367.357 305.294 367.197 305.518 367.016L306.27 368.232C305.897 368.552 305.486 368.792 305.038 368.952C304.601 369.112 304.158 369.192 303.71 369.192ZM310.432 369.192C309.974 369.192 309.584 369.123 309.264 368.984C308.955 368.845 308.699 368.653 308.496 368.408C308.304 368.152 308.16 367.853 308.064 367.512C307.979 367.16 307.936 366.771 307.936 366.344V362.6H306.816V361.224L308.032 361.144L308.256 359H309.792V361.144H311.792V362.6H309.792V366.344C309.792 367.261 310.16 367.72 310.896 367.72C311.035 367.72 311.174 367.704 311.312 367.672C311.462 367.64 311.595 367.597 311.712 367.544L312.032 368.904C311.819 368.979 311.574 369.043 311.296 369.096C311.03 369.16 310.742 369.192 310.432 369.192ZM317.945 369L315.865 361.144H317.721L318.665 365.224C318.75 365.597 318.819 365.971 318.873 366.344C318.937 366.717 319.006 367.096 319.081 367.48H319.145C319.219 367.096 319.294 366.717 319.369 366.344C319.454 365.971 319.545 365.597 319.641 365.224L320.665 361.144H322.345L323.385 365.224C323.481 365.597 323.571 365.971 323.657 366.344C323.742 366.717 323.827 367.096 323.913 367.48H323.977C324.051 367.096 324.121 366.717 324.185 366.344C324.249 365.971 324.318 365.597 324.393 365.224L325.337 361.144H327.065L325.065 369H322.873L321.961 365.336C321.875 364.963 321.795 364.595 321.721 364.232C321.646 363.859 321.566 363.464 321.481 363.048H321.417C321.342 363.464 321.267 363.859 321.193 364.232C321.118 364.605 321.038 364.979 320.953 365.352L320.057 369H317.945ZM328.618 369V361.144H330.458V369H328.618ZM329.546 359.768C329.215 359.768 328.943 359.672 328.73 359.48C328.516 359.288 328.41 359.037 328.41 358.728C328.41 358.419 328.516 358.168 328.73 357.976C328.943 357.773 329.215 357.672 329.546 357.672C329.876 357.672 330.148 357.773 330.362 357.976C330.575 358.168 330.682 358.419 330.682 358.728C330.682 359.037 330.575 359.288 330.362 359.48C330.148 359.672 329.876 359.768 329.546 359.768ZM335.573 369.192C335.114 369.192 334.725 369.123 334.405 368.984C334.096 368.845 333.84 368.653 333.637 368.408C333.445 368.152 333.301 367.853 333.205 367.512C333.12 367.16 333.077 366.771 333.077 366.344V362.6H331.957V361.224L333.173 361.144L333.397 359H334.933V361.144H336.933V362.6H334.933V366.344C334.933 367.261 335.301 367.72 336.037 367.72C336.176 367.72 336.314 367.704 336.453 367.672C336.602 367.64 336.736 367.597 336.853 367.544L337.173 368.904C336.96 368.979 336.714 369.043 336.437 369.096C336.17 369.16 335.882 369.192 335.573 369.192ZM338.586 369V357.704H340.426V360.616L340.362 362.136C340.693 361.827 341.056 361.555 341.45 361.32C341.856 361.075 342.33 360.952 342.874 360.952C343.717 360.952 344.33 361.224 344.714 361.768C345.098 362.301 345.29 363.069 345.29 364.072V369H343.45V364.312C343.45 363.661 343.354 363.203 343.162 362.936C342.97 362.669 342.656 362.536 342.218 362.536C341.877 362.536 341.573 362.621 341.306 362.792C341.05 362.952 340.757 363.192 340.426 363.512V369H338.586ZM350.871 369V358.536H352.967L354.823 363.656C354.941 363.987 355.053 364.328 355.159 364.68C355.266 365.021 355.378 365.363 355.495 365.704H355.559C355.677 365.363 355.783 365.021 355.879 364.68C355.986 364.328 356.098 363.987 356.215 363.656L358.023 358.536H360.135V369H358.423V364.216C358.423 363.971 358.429 363.704 358.439 363.416C358.461 363.128 358.482 362.84 358.503 362.552C358.525 362.253 358.551 361.965 358.583 361.688C358.615 361.4 358.642 361.133 358.663 360.888H358.599L357.751 363.32L356.039 368.024H354.935L353.207 363.32L352.375 360.888H352.311C352.333 361.133 352.354 361.4 352.375 361.688C352.407 361.965 352.434 362.253 352.455 362.552C352.487 362.84 352.509 363.128 352.519 363.416C352.541 363.704 352.551 363.971 352.551 364.216V369H350.871ZM365.993 369.192C365.449 369.192 364.942 369.101 364.473 368.92C364.004 368.728 363.593 368.456 363.241 368.104C362.889 367.752 362.612 367.325 362.409 366.824C362.217 366.312 362.121 365.731 362.121 365.08C362.121 364.44 362.222 363.864 362.425 363.352C362.628 362.84 362.894 362.408 363.225 362.056C363.566 361.704 363.956 361.432 364.393 361.24C364.83 361.048 365.278 360.952 365.737 360.952C366.27 360.952 366.74 361.043 367.145 361.224C367.55 361.405 367.886 361.661 368.153 361.992C368.43 362.323 368.638 362.717 368.777 363.176C368.916 363.635 368.985 364.136 368.985 364.68C368.985 364.861 368.974 365.032 368.953 365.192C368.942 365.352 368.926 365.48 368.905 365.576H363.913C363.998 366.28 364.244 366.824 364.649 367.208C365.065 367.581 365.593 367.768 366.233 367.768C366.574 367.768 366.889 367.72 367.177 367.624C367.476 367.517 367.769 367.373 368.057 367.192L368.681 368.344C368.308 368.589 367.892 368.792 367.433 368.952C366.974 369.112 366.494 369.192 365.993 369.192ZM363.897 364.328H367.385C367.385 363.72 367.252 363.245 366.985 362.904C366.729 362.552 366.329 362.376 365.785 362.376C365.316 362.376 364.905 362.541 364.553 362.872C364.201 363.203 363.982 363.688 363.897 364.328ZM373.354 369.192C372.896 369.192 372.506 369.123 372.186 368.984C371.877 368.845 371.621 368.653 371.418 368.408C371.226 368.152 371.082 367.853 370.986 367.512C370.901 367.16 370.858 366.771 370.858 366.344V362.6H369.738V361.224L370.954 361.144L371.178 359H372.714V361.144H374.714V362.6H372.714V366.344C372.714 367.261 373.082 367.72 373.818 367.72C373.957 367.72 374.096 367.704 374.234 367.672C374.384 367.64 374.517 367.597 374.634 367.544L374.954 368.904C374.741 368.979 374.496 369.043 374.218 369.096C373.952 369.16 373.664 369.192 373.354 369.192ZM377.928 369.192C377.234 369.192 376.674 368.984 376.248 368.568C375.821 368.141 375.608 367.581 375.608 366.888C375.608 366.472 375.693 366.104 375.864 365.784C376.045 365.453 376.322 365.171 376.696 364.936C377.08 364.701 377.56 364.504 378.136 364.344C378.722 364.184 379.421 364.061 380.232 363.976C380.221 363.773 380.189 363.581 380.136 363.4C380.093 363.208 380.013 363.043 379.896 362.904C379.789 362.755 379.645 362.643 379.464 362.568C379.282 362.483 379.058 362.44 378.792 362.44C378.408 362.44 378.029 362.515 377.656 362.664C377.293 362.813 376.936 362.995 376.584 363.208L375.912 361.976C376.349 361.699 376.84 361.459 377.384 361.256C377.928 361.053 378.514 360.952 379.144 360.952C380.125 360.952 380.856 361.245 381.336 361.832C381.826 362.408 382.072 363.245 382.072 364.344V369H380.552L380.424 368.136H380.36C380.008 368.435 379.629 368.685 379.224 368.888C378.829 369.091 378.397 369.192 377.928 369.192ZM378.52 367.752C378.84 367.752 379.128 367.677 379.384 367.528C379.65 367.379 379.933 367.165 380.232 366.888V365.128C379.698 365.192 379.25 365.277 378.888 365.384C378.525 365.491 378.232 365.613 378.008 365.752C377.784 365.88 377.624 366.029 377.528 366.2C377.432 366.371 377.384 366.552 377.384 366.744C377.384 367.096 377.49 367.352 377.704 367.512C377.917 367.672 378.189 367.752 378.52 367.752ZM384.434 369V358.536H386.53L388.386 363.656C388.503 363.987 388.615 364.328 388.722 364.68C388.828 365.021 388.94 365.363 389.058 365.704H389.122C389.239 365.363 389.346 365.021 389.442 364.68C389.548 364.328 389.66 363.987 389.778 363.656L391.586 358.536H393.698V369H391.986V364.216C391.986 363.971 391.991 363.704 392.002 363.416C392.023 363.128 392.044 362.84 392.066 362.552C392.087 362.253 392.114 361.965 392.146 361.688C392.178 361.4 392.204 361.133 392.226 360.888H392.162L391.314 363.32L389.602 368.024H388.498L386.77 363.32L385.938 360.888H385.874C385.895 361.133 385.916 361.4 385.938 361.688C385.97 361.965 385.996 362.253 386.018 362.552C386.05 362.84 386.071 363.128 386.082 363.416C386.103 363.704 386.114 363.971 386.114 364.216V369H384.434ZM398.1 369.192C397.406 369.192 396.846 368.984 396.42 368.568C395.993 368.141 395.78 367.581 395.78 366.888C395.78 366.472 395.865 366.104 396.036 365.784C396.217 365.453 396.494 365.171 396.868 364.936C397.252 364.701 397.732 364.504 398.308 364.344C398.894 364.184 399.593 364.061 400.404 363.976C400.393 363.773 400.361 363.581 400.308 363.4C400.265 363.208 400.185 363.043 400.068 362.904C399.961 362.755 399.817 362.643 399.636 362.568C399.454 362.483 399.23 362.44 398.964 362.44C398.58 362.44 398.201 362.515 397.828 362.664C397.465 362.813 397.108 362.995 396.756 363.208L396.084 361.976C396.521 361.699 397.012 361.459 397.556 361.256C398.1 361.053 398.686 360.952 399.316 360.952C400.297 360.952 401.028 361.245 401.508 361.832C401.998 362.408 402.244 363.245 402.244 364.344V369H400.724L400.596 368.136H400.532C400.18 368.435 399.801 368.685 399.396 368.888C399.001 369.091 398.569 369.192 398.1 369.192ZM398.692 367.752C399.012 367.752 399.3 367.677 399.556 367.528C399.822 367.379 400.105 367.165 400.404 366.888V365.128C399.87 365.192 399.422 365.277 399.06 365.384C398.697 365.491 398.404 365.613 398.18 365.752C397.956 365.88 397.796 366.029 397.7 366.2C397.604 366.371 397.556 366.552 397.556 366.744C397.556 367.096 397.662 367.352 397.876 367.512C398.089 367.672 398.361 367.752 398.692 367.752ZM406.638 369.192C406.094 369.192 405.555 369.091 405.022 368.888C404.499 368.675 404.046 368.413 403.662 368.104L404.526 366.92C404.878 367.197 405.224 367.416 405.566 367.576C405.918 367.725 406.296 367.8 406.702 367.8C407.128 367.8 407.443 367.715 407.646 367.544C407.848 367.363 407.95 367.133 407.95 366.856C407.95 366.696 407.902 366.557 407.806 366.44C407.71 366.312 407.582 366.2 407.422 366.104C407.262 366.008 407.08 365.923 406.878 365.848C406.675 365.763 406.472 365.677 406.27 365.592C406.014 365.496 405.752 365.384 405.486 365.256C405.219 365.128 404.979 364.973 404.766 364.792C404.563 364.611 404.392 364.403 404.254 364.168C404.126 363.923 404.062 363.635 404.062 363.304C404.062 362.611 404.318 362.045 404.83 361.608C405.342 361.171 406.04 360.952 406.926 360.952C407.47 360.952 407.96 361.048 408.398 361.24C408.835 361.432 409.214 361.651 409.534 361.896L408.686 363.016C408.408 362.813 408.126 362.653 407.838 362.536C407.56 362.408 407.267 362.344 406.958 362.344C406.563 362.344 406.27 362.429 406.078 362.6C405.896 362.76 405.806 362.963 405.806 363.208C405.806 363.368 405.848 363.507 405.934 363.624C406.03 363.731 406.152 363.827 406.302 363.912C406.451 363.997 406.622 364.077 406.814 364.152C407.016 364.227 407.224 364.301 407.438 364.376C407.704 364.472 407.971 364.584 408.238 364.712C408.504 364.829 408.744 364.979 408.958 365.16C409.182 365.341 409.358 365.565 409.486 365.832C409.624 366.088 409.694 366.397 409.694 366.76C409.694 367.101 409.624 367.421 409.486 367.72C409.358 368.008 409.166 368.264 408.91 368.488C408.654 368.701 408.334 368.872 407.95 369C407.566 369.128 407.128 369.192 406.638 369.192ZM411.336 369V357.704H413.144V364.76H413.192L416.104 361.144H418.12L415.432 364.344L418.392 369H416.392L414.376 365.592L413.144 367V369H411.336Z" fill="#333333"/>
<g clip-path="url(#clip0)">
<path d="M238.763 352.046L229.435 358.838L231.16 354.831L238.763 352.046Z" fill="#E2761B" stroke="#E2761B" stroke-linecap="round" stroke-linejoin="round"/>
<path d="M217.229 352.046L226.482 358.902L224.841 354.831L217.229 352.046Z" fill="#E4761B" stroke="#E4761B" stroke-linecap="round" stroke-linejoin="round"/>
<path d="M235.406 367.789L232.922 371.52L238.237 372.954L239.766 367.872L235.406 367.789Z" fill="#E4761B" stroke="#E4761B" stroke-linecap="round" stroke-linejoin="round"/>
<path d="M216.244 367.872L217.763 372.954L223.079 371.52L220.594 367.789L216.244 367.872Z" fill="#E4761B" stroke="#E4761B" stroke-linecap="round" stroke-linejoin="round"/>
<path d="M222.778 361.485L221.297 363.681L226.575 363.911L226.388 358.351L222.778 361.485Z" fill="#E4761B" stroke="#E4761B" stroke-linecap="round" stroke-linejoin="round"/>
<path d="M233.213 361.484L229.556 358.286L229.435 363.911L234.703 363.681L233.213 361.484Z" fill="#E4761B" stroke="#E4761B" stroke-linecap="round" stroke-linejoin="round"/>
<path d="M223.078 371.521L226.247 370.004L223.509 367.909L223.078 371.521Z" fill="#E4761B" stroke="#E4761B" stroke-linecap="round" stroke-linejoin="round"/>
<path d="M229.744 370.004L232.922 371.521L232.482 367.909L229.744 370.004Z" fill="#E4761B" stroke="#E4761B" stroke-linecap="round" stroke-linejoin="round"/>
<path d="M232.922 371.52L229.744 370.004L229.997 372.035L229.969 372.89L232.922 371.52Z" fill="#D7C1B3" stroke="#D7C1B3" stroke-linecap="round" stroke-linejoin="round"/>
<path d="M223.078 371.52L226.031 372.89L226.013 372.035L226.247 370.004L223.078 371.52Z" fill="#D7C1B3" stroke="#D7C1B3" stroke-linecap="round" stroke-linejoin="round"/>
<path d="M226.078 366.567L223.435 365.804L225.3 364.968L226.078 366.567Z" fill="#233447" stroke="#233447" stroke-linecap="round" stroke-linejoin="round"/>
<path d="M229.912 366.567L230.69 364.968L232.565 365.804L229.912 366.567Z" fill="#233447" stroke="#233447" stroke-linecap="round" stroke-linejoin="round"/>
<path d="M223.078 371.521L223.528 367.79L220.594 367.872L223.078 371.521Z" fill="#CD6116" stroke="#CD6116" stroke-linecap="round" stroke-linejoin="round"/>
<path d="M232.472 367.79L232.922 371.521L235.406 367.872L232.472 367.79Z" fill="#CD6116" stroke="#CD6116" stroke-linecap="round" stroke-linejoin="round"/>
<path d="M234.703 363.681L229.435 363.911L229.922 366.567L230.7 364.968L232.575 365.804L234.703 363.681Z" fill="#CD6116"/>
<path d="M223.434 365.804L225.309 364.968L226.078 366.567L226.575 363.911L221.297 363.681L223.434 365.804Z" fill="#CD6116"/>
<path d="M221.297 363.681L223.509 367.909L223.434 365.804L221.297 363.681Z" fill="#E4751F" stroke="#E4751F" stroke-linecap="round" stroke-linejoin="round"/>
<path d="M232.575 365.804L232.481 367.909L234.703 363.681L232.575 365.804Z" fill="#E4751F" stroke="#E4751F" stroke-linecap="round" stroke-linejoin="round"/>
<path d="M226.575 363.911L226.078 366.567L226.697 369.701L226.837 365.575L226.575 363.911Z" fill="#E4751F" stroke="#E4751F" stroke-linecap="round" stroke-linejoin="round"/>
<path d="M229.435 363.911L229.182 365.565L229.294 369.701L229.922 366.567L229.435 363.911Z" fill="#E4751F" stroke="#E4751F" stroke-linecap="round" stroke-linejoin="round"/>
<path d="M229.922 366.567L229.294 369.701L229.744 370.004L232.481 367.909L232.575 365.804L229.922 366.567Z" fill="#F6851B" stroke="#F6851B" stroke-linecap="round" stroke-linejoin="round"/>
<path d="M223.435 365.804L223.51 367.909L226.247 370.004L226.697 369.701L226.078 366.567L223.435 365.804Z" fill="#F6851B" stroke="#F6851B" stroke-linecap="round" stroke-linejoin="round"/>
<path d="M229.969 372.89L229.997 372.035L229.763 371.833H226.228L226.013 372.035L226.031 372.89L223.078 371.521L224.109 372.348L226.2 373.772H229.791L231.891 372.348L232.922 371.521L229.969 372.89Z" fill="#C0AD9E" stroke="#C0AD9E" stroke-linecap="round" stroke-linejoin="round"/>
<path d="M229.744 370.004L229.294 369.701H226.697L226.247 370.004L226.013 372.035L226.228 371.833H229.763L229.997 372.035L229.744 370.004Z" fill="#161616" stroke="#161616" stroke-linecap="round" stroke-linejoin="round"/>
<path d="M239.157 359.279L239.954 355.529L238.763 352.046L229.744 358.608L233.213 361.485L238.116 362.891L239.204 361.65L238.735 361.319L239.485 360.648L238.904 360.207L239.654 359.646L239.157 359.279Z" fill="#763D16" stroke="#763D16" stroke-linecap="round" stroke-linejoin="round"/>
<path d="M216.047 355.529L216.844 359.279L216.338 359.646L217.088 360.207L216.516 360.648L217.266 361.319L216.797 361.65L217.875 362.891L222.778 361.485L226.247 358.608L217.228 352.046L216.047 355.529Z" fill="#763D16" stroke="#763D16" stroke-linecap="round" stroke-linejoin="round"/>
<path d="M238.116 362.891L233.213 361.484L234.703 363.681L232.481 367.909L235.406 367.872H239.766L238.116 362.891Z" fill="#F6851B" stroke="#F6851B" stroke-linecap="round" stroke-linejoin="round"/>
<path d="M222.779 361.484L217.875 362.891L216.244 367.872H220.594L223.51 367.909L221.297 363.681L222.779 361.484Z" fill="#F6851B" stroke="#F6851B" stroke-linecap="round" stroke-linejoin="round"/>
<path d="M229.435 363.911L229.744 358.608L231.169 354.831H224.841L226.247 358.608L226.575 363.911L226.688 365.583L226.697 369.701H229.294L229.313 365.583L229.435 363.911Z" fill="#F6851B" stroke="#F6851B" stroke-linecap="round" stroke-linejoin="round"/>
</g>
<defs>
<filter id="filter0_d" x="0" y="0" width="645" height="471" filterUnits="userSpaceOnUse" color-interpolation-filters="sRGB">
<feFlood flood-opacity="0" result="BackgroundImageFix"/>
<feColorMatrix in="SourceAlpha" type="matrix" values="0 0 0 0 0 0 0 0 0 0 0 0 0 0 0 0 0 0 127 0"/>
<feOffset dy="8"/>
<feGaussianBlur stdDeviation="8"/>
<feColorMatrix type="matrix" values="0 0 0 0 0 0 0 0 0 0 0 0 0 0 0 0 0 0 0.1 0"/>
<feBlend mode="normal" in2="BackgroundImageFix" result="effect1_dropShadow"/>
<feBlend mode="normal" in="SourceGraphic" in2="effect1_dropShadow" result="shape"/>
</filter>
<filter id="filter1_d" x="0" y="0" width="645" height="471" filterUnits="userSpaceOnUse" color-interpolation-filters="sRGB">
<feFlood flood-opacity="0" result="BackgroundImageFix"/>
<feColorMatrix in="SourceAlpha" type="matrix" values="0 0 0 0 0 0 0 0 0 0 0 0 0 0 0 0 0 0 127 0"/>
<feOffset dy="8"/>
<feGaussianBlur stdDeviation="8"/>
<feColorMatrix type="matrix" values="0 0 0 0 0 0 0 0 0 0 0 0 0 0 0 0 0 0 0.1 0"/>
<feBlend mode="normal" in2="BackgroundImageFix" result="effect1_dropShadow"/>
<feBlend mode="normal" in="SourceGraphic" in2="effect1_dropShadow" result="shape"/>
</filter>
<filter id="filter2_d" x="192" y="337" width="258" height="56" filterUnits="userSpaceOnUse" color-interpolation-filters="sRGB">
<feFlood flood-opacity="0" result="BackgroundImageFix"/>
<feColorMatrix in="SourceAlpha" type="matrix" values="0 0 0 0 0 0 0 0 0 0 0 0 0 0 0 0 0 0 127 0"/>
<feOffset dy="2"/>
<feGaussianBlur stdDeviation="2"/>
<feColorMatrix type="matrix" values="0 0 0 0 0 0 0 0 0 0 0 0 0 0 0 0 0 0 0.1 0"/>
<feBlend mode="normal" in2="BackgroundImageFix" result="effect1_dropShadow"/>
<feBlend mode="normal" in="SourceGraphic" in2="effect1_dropShadow" result="shape"/>
</filter>
<clipPath id="clip0">
<rect x="216" y="352" width="24" height="21.8182" fill="white"/>
</clipPath>
</defs>
</svg>
